<?xml version="1.0" encoding="utf-8"?>
<!-- Generator: Adobe Illustrator 18.0.0, SVG Export Plug-In . SVG Version: 6.00 Build 0)  -->
<!DOCTYPE svg PUBLIC "-//W3C//DTD SVG 1.1//EN" "http://www.w3.org/Graphics/SVG/1.1/DTD/svg11.dtd">
<svg version="1.1" id="Layer_1" xmlns="http://www.w3.org/2000/svg" xmlns:xlink="http://www.w3.org/1999/xlink" x="0px" y="0px"
	 viewBox="0 33.5 100 33.5" enable-background="new 0 33.5 100 33.5" xml:space="preserve">
<g>
	<path fill="#EC674B" d="M39.9,42.7l-2.8,7.5l-4-10.4h0.8l3.3,8.5l2.8-7.5l2.8,7.5l3.3-8.4h0.8l-4,10.4L39.9,42.7z"/>
	<path fill="#EC674B" d="M51.6,49.3c-0.5,0.5-1.2,0.8-2.1,0.8c-1.9,0-3.5-1.6-3.5-3.5c0-1.9,1.6-3.5,3.5-3.5c1.9,0,3.2,1.6,3.2,3.5
		c0,0.1,0,0.2,0,0.3h-5.9c0.2,1.4,1.4,2.5,2.8,2.5c0.6,0,1.2-0.2,1.6-0.6L51.6,49.3z M51.9,46.3c-0.1-0.7-0.3-1.2-0.7-1.7
		c-0.5-0.5-1.1-0.8-1.8-0.8c-1.4,0-2.6,1.1-2.8,2.5C46.7,46.3,51.9,46.3,51.9,46.3z"/>
	<path fill="#EC674B" d="M54.4,44.2c0.6-0.7,1.4-1.1,2.4-1.1c2,0,3.6,1.6,3.6,3.5c0,1.9-1.6,3.5-3.6,3.5c-1,0-1.8-0.4-2.4-1.1v0.7
		h-0.7v-10h0.7V44.2z M54.4,47.7c0.1,0.4,0.3,0.7,0.5,1c0.5,0.5,1.1,0.8,1.9,0.8c1.6,0,2.8-1.3,2.8-2.8c0-1.6-1.3-2.8-2.8-2.8
		c-0.8,0-1.4,0.3-1.9,0.8c-0.3,0.3-0.4,0.6-0.5,1V47.7z"/>
	<path fill="#04ADAC" d="M71,48.6c-1,1-2.3,1.6-3.8,1.6c-3,0-5.4-2.4-5.4-5.4c0-3,2.4-5.4,5.4-5.4c1.5,0,2.8,0.6,3.8,1.6l-0.5,0.5
		c-0.8-0.8-2-1.4-3.3-1.4c-2.6,0-4.7,2.1-4.7,4.7c0,2.6,2.1,4.7,4.7,4.7c1.3,0,2.5-0.5,3.3-1.4L71,48.6z"/>
	<path fill="#04ADAC" d="M77.6,49.1c-0.6,0.7-1.4,1.1-2.4,1.1c-1.9,0-3.5-1.6-3.5-3.5c0-1.9,1.6-3.5,3.5-3.5c1,0,1.8,0.4,2.4,1.1
		v-0.7h0.7v6.3h-0.7V49.1z M77.6,45.6c-0.1-0.4-0.3-0.7-0.6-1c-0.5-0.5-1.1-0.8-1.8-0.8c-1.6,0-2.8,1.2-2.8,2.8
		c0,1.6,1.3,2.8,2.8,2.8c0.8,0,1.4-0.3,1.8-0.8c0.3-0.3,0.5-0.6,0.6-1V45.6z"/>
	<path fill="#04ADAC" d="M80.5,44.1c0.5-0.6,1.3-1,2.1-1c1.1,0,2,0.6,2.5,1.5c0.5-0.9,1.4-1.5,2.5-1.5c1.6,0,2.8,1.3,2.8,2.8v3.8
		h-0.7V46c0-1.2-1-2.1-2.1-2.1c-1.2,0-2.1,1-2.1,2.1v3.8h-0.7V46c0-1.2-1-2.1-2.1-2.1c-1.2,0-2.1,1-2.1,2.1v3.8h-0.7v-6.3h0.7V44.1z
		"/>
	<path fill="#04ADAC" d="M92.4,44.2c0.6-0.7,1.4-1.1,2.4-1.1c2,0,3.5,1.5,3.5,3.5c0,2-1.6,3.5-3.5,3.5c-1,0-1.9-0.4-2.4-1.1v4.9
		h-0.7V43.5h0.7V44.2L92.4,44.2z M92.4,47.6c0.1,0.4,0.3,0.7,0.5,1c0.5,0.5,1.1,0.8,1.9,0.8c1.6,0,2.8-1.3,2.8-2.8
		c0-1.6-1.2-2.8-2.8-2.8c-0.8,0-1.4,0.3-1.9,0.8c-0.3,0.3-0.5,0.6-0.5,1C92.4,45.6,92.4,47.6,92.4,47.6z"/>
</g>
<g>
	<path fill="none" d="M3.2,59.3C3.2,59.3,3.2,59.3,3.2,59.3C3.2,59.3,3.2,59.3,3.2,59.3z"/>
	<path fill="none" d="M3.4,59.2C3.4,59.2,3.3,59.2,3.4,59.2C3.3,59.2,3.4,59.2,3.4,59.2z"/>
	<path fill="none" d="M4.3,58.8c0.2-0.1,0.4-0.3,0.8-0.4L4.3,58.8z"/>
	<path fill="none" d="M29.4,57.8c0-1,0-11.3,0-11.3s0.2-1.8-2-3.2c-2.4-1.5-9.8-5.6-9.8-5.6s-0.8-0.4-1.7,0.2c0.1,0,0.5,0,1.6,0.6
		c2.3,1.3,9,5.2,9,5.2s2.1,1.2,2.1,3.5c0,2.9,0,11.5,0,11.5s0,0.3-0.3,0.6c0.2,0,0.3,0,0.5-0.1C28.8,59.2,29.4,58.7,29.4,57.8z"/>
	<path fill="#58C4C4" d="M1.7,58.2V44.3L1,43.9v13.9c0,1.1,0.7,1.3,1.4,1.5C1.6,58.9,1.7,58.2,1.7,58.2z"/>
	<path fill="#58C4C4" d="M3.2,59.3C3.3,59.3,3.3,59.3,3.2,59.3c0.1,0,0.1-0.1,0.1-0.1c0,0,0,0,0.1,0V45.4l-0.9-0.5v13.6
		c0,0,0.1,0.9,0.4,0.9C3,59.3,3.1,59.3,3.2,59.3C3.2,59.3,3.2,59.3,3.2,59.3z"/>
	<polygon fill="#58C4C4" points="5.1,58.3 5.1,46.4 4.3,45.9 4.3,58.8 	"/>
	<path fill="#58C4C4" d="M6.8,47.5L6,47v10.8l0.5-0.3c0.1-0.1,0.1-0.1,0.2-0.1C6.8,57.4,6.8,47.5,6.8,47.5z"/>
	
		<linearGradient id="SVGID_1_" gradientUnits="userSpaceOnUse" x1="8.332" y1="72.0896" x2="99.532" y2="72.0896" gradientTransform="matrix(0.2893 0 0 0.2893 0 35.5366)">
		<stop  offset="0.2" style="stop-color:#04ADAC"/>
		<stop  offset="0.5074" style="stop-color:#EB674A"/>
		<stop  offset="0.8" style="stop-color:#04ADAC"/>
	</linearGradient>
	<path fill="url(#SVGID_1_)" d="M28.3,59.3L28.3,59.3c-0.2,0-0.6-0.1-0.7-0.1l0,0C27.2,59.1,27,59,27,59s-7.3-4.4-9.4-5.5
		c-2.1-1.1-3.9,0-3.9,0s-4,2.3-6.9,3.9l0,0l-0.2,0.1c-0.5,0.3-1,0.6-1.4,0.8l0,0l0,0c-0.3,0.2-0.6,0.3-0.8,0.4
		c-0.3,0.2-0.6,0.3-0.9,0.4l0,0c0,0,0,0-0.1,0c0,0-0.1,0-0.1,0c0,0,0,0-0.1,0c0,0-0.1,0-0.1,0c-0.1,0-0.1,0-0.2,0.1l0,0
		c-0.3,0.1-0.5,0-0.5,0c1.2,0.9,2.1,0.3,2.1,0.3s7.2-4.1,9.1-5.2c2-1.1,2.9-0.5,3.7-0.2c0.9,0.4,5.5,3,8.7,5.1
		c1.8,1.1,2.7-0.1,2.7-0.1C28.6,59.3,28.4,59.3,28.3,59.3z"/>
	
		<linearGradient id="SVGID_2_" gradientUnits="userSpaceOnUse" x1="8.3" y1="82.1" x2="8.3" y2="82.1" gradientTransform="matrix(0.2893 0 0 0.2893 0 35.5366)">
		<stop  offset="0.2" style="stop-color:#04ADAC"/>
		<stop  offset="0.5074" style="stop-color:#EB674A"/>
		<stop  offset="0.8" style="stop-color:#04ADAC"/>
	</linearGradient>
	<path fill="url(#SVGID_2_)" d="M2.4,59.3L2.4,59.3L2.4,59.3z"/>
	<path fill="#58C4C4" d="M3.3,59.2C3.3,59.2,3.2,59.3,3.3,59.2C3.3,59.3,3.3,59.2,3.3,59.2z"/>
	
		<linearGradient id="SVGID_3_" gradientUnits="userSpaceOnUse" x1="8.2607" y1="81.95" x2="99.5347" y2="81.95" gradientTransform="matrix(0.2893 0 0 0.2893 0 35.5366)">
		<stop  offset="0.2" style="stop-color:#04ADAC"/>
		<stop  offset="0.5074" style="stop-color:#EB674A"/>
		<stop  offset="0.8" style="stop-color:#04ADAC"/>
	</linearGradient>
	<path fill="url(#SVGID_3_)" d="M3.3,59.2C3.3,59.2,3.2,59.3,3.3,59.2C3.3,59.3,3.3,59.2,3.3,59.2z"/>
	<path fill="#58C4C4" d="M3.4,59.2L3.4,59.2C3.4,59.2,3.4,59.2,3.4,59.2C3.4,59.2,3.4,59.2,3.4,59.2z"/>
	
		<linearGradient id="SVGID_4_" gradientUnits="userSpaceOnUse" x1="8.2607" y1="81.85" x2="99.5347" y2="81.85" gradientTransform="matrix(0.2893 0 0 0.2893 0 35.5366)">
		<stop  offset="0.2" style="stop-color:#04ADAC"/>
		<stop  offset="0.5074" style="stop-color:#EB674A"/>
		<stop  offset="0.8" style="stop-color:#04ADAC"/>
	</linearGradient>
	<path fill="url(#SVGID_4_)" d="M3.4,59.2L3.4,59.2C3.4,59.2,3.4,59.2,3.4,59.2C3.4,59.2,3.4,59.2,3.4,59.2z"/>
	<path fill="#58C4C4" d="M3.2,59.3c-0.1,0-0.1,0-0.2,0.1l0,0C3,59.3,3.1,59.3,3.2,59.3z"/>
	
		<linearGradient id="SVGID_5_" gradientUnits="userSpaceOnUse" x1="8.2607" y1="82.2" x2="99.5346" y2="82.2" gradientTransform="matrix(0.2893 0 0 0.2893 0 35.5366)">
		<stop  offset="0.2" style="stop-color:#04ADAC"/>
		<stop  offset="0.5074" style="stop-color:#EB674A"/>
		<stop  offset="0.8" style="stop-color:#04ADAC"/>
	</linearGradient>
	<path fill="url(#SVGID_5_)" d="M3.2,59.3c-0.1,0-0.1,0-0.2,0.1l0,0C3,59.3,3.1,59.3,3.2,59.3z"/>
	<path fill="#58C4C4" d="M5.1,58.3L5.1,58.3L5.1,58.3z"/>
	
		<linearGradient id="SVGID_6_" gradientUnits="userSpaceOnUse" x1="17.6" y1="78.8" x2="17.6" y2="78.8" gradientTransform="matrix(0.2893 0 0 0.2893 0 35.5366)">
		<stop  offset="0.2" style="stop-color:#04ADAC"/>
		<stop  offset="0.5074" style="stop-color:#EB674A"/>
		<stop  offset="0.8" style="stop-color:#04ADAC"/>
	</linearGradient>
	<path fill="url(#SVGID_6_)" d="M5.1,58.3L5.1,58.3L5.1,58.3z"/>
	<path fill="#58C4C4" d="M6.8,57.4c-0.1,0.1-0.1,0.1-0.2,0.1L6.8,57.4L6.8,57.4z"/>
	
		<linearGradient id="SVGID_7_" gradientUnits="userSpaceOnUse" x1="8.2607" y1="75.75" x2="99.5347" y2="75.75" gradientTransform="matrix(0.2893 0 0 0.2893 0 35.5366)">
		<stop  offset="0.2" style="stop-color:#04ADAC"/>
		<stop  offset="0.5074" style="stop-color:#EB674A"/>
		<stop  offset="0.8" style="stop-color:#04ADAC"/>
	</linearGradient>
	<path fill="url(#SVGID_7_)" d="M6.8,57.4c-0.1,0.1-0.1,0.1-0.2,0.1L6.8,57.4L6.8,57.4z"/>
	
		<linearGradient id="SVGID_8_" gradientUnits="userSpaceOnUse" x1="13.4" y1="76.9629" x2="94.3" y2="76.9629" gradientTransform="matrix(0.2893 0 0 0.2893 0 35.5366)">
		<stop  offset="0.2" style="stop-color:#04ADAC"/>
		<stop  offset="0.5074" style="stop-color:#EB674A"/>
		<stop  offset="0.8" style="stop-color:#04ADAC"/>
	</linearGradient>
	<path fill="url(#SVGID_8_)" d="M25.5,59.9c0,0-5.8-3.4-8-4.5c-2.2-1.2-3.9,0-3.9,0S7.5,59,5.9,59.7c-1.4,0.7-2.1,0.3-2.1,0.3
		c0.9,1.2,2.3,0.5,2.3,0.5s5.5-3.1,7.3-4.2c1.8-1.1,3.7-0.2,3.7-0.2s5.1,2.9,6.9,4c2.3,1.4,3.1-0.1,3.1-0.1
		C26.4,60.4,25.5,59.9,25.5,59.9z"/>
	
		<linearGradient id="SVGID_9_" gradientUnits="userSpaceOnUse" x1="19.5" y1="81.9258" x2="88" y2="81.9258" gradientTransform="matrix(0.2893 0 0 0.2893 0 35.5366)">
		<stop  offset="0.2" style="stop-color:#04ADAC"/>
		<stop  offset="0.5074" style="stop-color:#EB674A"/>
		<stop  offset="0.8" style="stop-color:#04ADAC"/>
	</linearGradient>
	<path fill="url(#SVGID_9_)" d="M23.1,60.5c0,0-3.6-2.1-5.7-3.3c-1.8-1.1-3.5-0.1-3.5-0.1S9.6,59.7,8,60.5c-1.4,0.7-2.3,0.6-2.3,0.6
		c1.1,1.2,2.9,0.1,2.9,0.1s3.4-1.9,5.3-3.1c2-1.2,3.5-0.1,3.5-0.1s2.3,1.4,4.5,2.8c2.7,1.6,3.6,0.3,3.6,0.3
		C24.4,61.4,23.1,60.5,23.1,60.5z"/>
	
		<linearGradient id="SVGID_10_" gradientUnits="userSpaceOnUse" x1="25.2" y1="86.7866" x2="82.2" y2="86.7866" gradientTransform="matrix(0.2893 0 0 0.2893 0 35.5366)">
		<stop  offset="0.2" style="stop-color:#04ADAC"/>
		<stop  offset="0.5074" style="stop-color:#EB674A"/>
		<stop  offset="0.8" style="stop-color:#04ADAC"/>
	</linearGradient>
	<path fill="url(#SVGID_10_)" d="M21.8,61.7c0,0-2.7-1.6-4.8-2.8c-1.4-0.8-2.6-0.1-2.6-0.1s-3.5,2.1-5.1,2.9
		c-1.4,0.7-2.1,0.4-2.1,0.4c1.1,1.2,2.4,0.4,2.4,0.4s2.9-1.7,4.8-2.8c1.2-0.7,2.3,0.1,2.3,0.1s2.1,1.2,4.3,2.5
		c1.7,1,2.7-0.3,2.7-0.3C22.8,62.4,21.8,61.7,21.8,61.7z"/>
	
		<linearGradient id="SVGID_11_" gradientUnits="userSpaceOnUse" x1="54.9" y1="43.4975" x2="104.8" y2="43.4975" gradientTransform="matrix(0.2893 0 0 0.2893 0 35.5366)">
		<stop  offset="0" style="stop-color:#59C4C3"/>
		<stop  offset="1" style="stop-color:#004B4B"/>
	</linearGradient>
	<path fill="url(#SVGID_11_)" d="M28.2,42.8c0,0-6.7-3.9-9-5.2c-2.5-1.4-3.4,0.3-3.4,0.3s0,0,0.1,0c0.9-0.6,1.7-0.2,1.7-0.2
		s7.4,4.1,9.8,5.6c2.2,1.3,2,3.2,2,3.2s0,10.3,0,11.3c0,1-0.7,1.5-0.7,1.5c1.4-0.6,1.4-1.6,1.4-1.6s0.1-8.5,0.1-11.4
		C30.3,43.9,28.2,42.8,28.2,42.8z"/>
	
		<linearGradient id="SVGID_12_" gradientUnits="userSpaceOnUse" x1="54.143" y1="44.9337" x2="98.691" y2="44.9337" gradientTransform="matrix(0.2893 0 0 0.2893 0 35.5366)">
		<stop  offset="0" style="stop-color:#59C4C3"/>
		<stop  offset="1" style="stop-color:#004B4B"/>
	</linearGradient>
	<path fill="url(#SVGID_12_)" d="M28.6,58.6c0,0,0-8.6,0-11.5c0-2.4-2.1-3.5-2.1-3.5s-6.7-3.9-9-5.2c-1.1-0.6-1.4-0.6-1.6-0.6
		c0,0,0,0-0.1,0c-0.1,0.1-0.1,0.3-0.2,0.6c0.5,0.3,1,0.5,1,0.5s6.7,3.7,9.1,5.2c2.2,1.3,2,3.2,2,3.2s-0.1,10.3,0,11.3
		c0,0.2-0.1,0.5-0.1,0.5c0.2,0.1,0.4,0.1,0.7,0.1C28.6,58.9,28.6,58.6,28.6,58.6z"/>
	
		<linearGradient id="SVGID_13_" gradientUnits="userSpaceOnUse" x1="8.2607" y1="81.85" x2="99.5346" y2="81.85" gradientTransform="matrix(0.2893 0 0 0.2893 0 35.5366)">
		<stop  offset="0.2" style="stop-color:#04ADAC"/>
		<stop  offset="0.5074" style="stop-color:#EB674A"/>
		<stop  offset="0.8" style="stop-color:#04ADAC"/>
	</linearGradient>
	<path fill="url(#SVGID_13_)" d="M28.3,59.3L28.3,59.3c-0.2,0-0.5-0.1-0.7-0.1l0,0C27.7,59.2,28.1,59.3,28.3,59.3z"/>
	
		<linearGradient id="SVGID_14_" gradientUnits="userSpaceOnUse" x1="54.1421" y1="81.85" x2="98.6914" y2="81.85" gradientTransform="matrix(0.2893 0 0 0.2893 0 35.5366)">
		<stop  offset="0" style="stop-color:#59C4C3"/>
		<stop  offset="1" style="stop-color:#004B4B"/>
	</linearGradient>
	<path fill="url(#SVGID_14_)" d="M28.3,59.3L28.3,59.3c-0.2,0-0.5-0.1-0.7-0.1l0,0C27.7,59.2,28.1,59.3,28.3,59.3z"/>
	
		<linearGradient id="SVGID_15_" gradientUnits="userSpaceOnUse" x1="54.8755" y1="8.15" x2="104.8027" y2="8.15" gradientTransform="matrix(0.2893 0 0 0.2893 0 35.5366)">
		<stop  offset="0" style="stop-color:#59C4C3"/>
		<stop  offset="1" style="stop-color:#004B4B"/>
	</linearGradient>
	<path fill="url(#SVGID_15_)" d="M15.9,37.9C15.9,37.9,15.9,37.9,15.9,37.9C15.9,37.9,15.9,37.9,15.9,37.9z"/>
	
		<linearGradient id="SVGID_16_" gradientUnits="userSpaceOnUse" x1="54.1421" y1="8.15" x2="98.6914" y2="8.15" gradientTransform="matrix(0.2893 0 0 0.2893 0 35.5366)">
		<stop  offset="0" style="stop-color:#59C4C3"/>
		<stop  offset="1" style="stop-color:#004B4B"/>
	</linearGradient>
	<path fill="url(#SVGID_16_)" d="M15.9,37.9C15.9,37.9,15.9,37.9,15.9,37.9C15.9,37.9,15.9,37.9,15.9,37.9z"/>
	
		<linearGradient id="SVGID_17_" gradientUnits="userSpaceOnUse" x1="53.9" y1="47.1485" x2="92.761" y2="47.1485" gradientTransform="matrix(0.2893 0 0 0.2893 0 35.5366)">
		<stop  offset="0" style="stop-color:#59C4C3"/>
		<stop  offset="1" style="stop-color:#004B4B"/>
	</linearGradient>
	<path fill="url(#SVGID_17_)" d="M16.5,40.8c0,0,5.1,2.8,7.5,4.3c2.2,1.3,2,3.2,2,3.2s-0.1,8.8,0,10c0.4,0.3,0.9,0.5,0.9,0.5
		s0-7.8,0-10.7c0-2.4-2.1-3.5-2.1-3.5s-5.2-3.1-7.5-4.4c-1.5-0.8-1.6-0.8-1.6-0.8c0,0.5,0,0.5,0,0.9C15.9,40.5,16.5,40.8,16.5,40.8z
		"/>
	
		<linearGradient id="SVGID_18_" gradientUnits="userSpaceOnUse" x1="53.9" y1="48.4" x2="87.058" y2="48.4" gradientTransform="matrix(0.2893 0 0 0.2893 0 35.5366)">
		<stop  offset="0" style="stop-color:#59C4C3"/>
		<stop  offset="1" style="stop-color:#004B4B"/>
	</linearGradient>
	<path fill="url(#SVGID_18_)" d="M24.3,49.4c0,0,0.1,6.9,0,7.9c0.4,0.3,0.9,0.5,0.9,0.5s0-5.7,0-8.6c0-2.4-2.1-3.5-2.1-3.5
		s-5.2-3.1-7.5-4.4c0,0.5,0,1,0,1s4.3,2.5,6.7,3.9C24.5,47.6,24.3,49.4,24.3,49.4z"/>
</g>
<g>
	<path fill="#EC674B" d="M67.7,59.1c0,0.5-0.2,0.9-0.5,1.2s-0.8,0.4-1.5,0.4c-0.7,0-1.2-0.1-1.6-0.3v-0.8c0.2,0.1,0.5,0.2,0.8,0.3
		c0.3,0.1,0.5,0.1,0.8,0.1c0.4,0,0.7-0.1,0.9-0.2c0.2-0.1,0.3-0.3,0.3-0.6c0-0.2-0.1-0.4-0.3-0.5s-0.5-0.3-1-0.5
		c-0.5-0.2-0.8-0.3-1-0.5c-0.2-0.1-0.3-0.3-0.4-0.5c-0.1-0.2-0.1-0.4-0.1-0.6c0-0.5,0.2-0.8,0.5-1.1c0.3-0.3,0.8-0.4,1.4-0.4
		c0.5,0,1.1,0.1,1.6,0.4L67.3,56c-0.5-0.2-1-0.3-1.4-0.3c-0.4,0-0.6,0.1-0.8,0.2s-0.3,0.3-0.3,0.5c0,0.1,0,0.3,0.1,0.4
		c0.1,0.1,0.2,0.2,0.3,0.3c0.1,0.1,0.5,0.2,0.9,0.4c0.6,0.2,1,0.5,1.2,0.7C67.6,58.4,67.7,58.7,67.7,59.1z"/>
	<path fill="#EC674B" d="M70.6,60c0.1,0,0.3,0,0.4,0c0.1,0,0.2-0.1,0.3-0.1v0.6c-0.1,0.1-0.2,0.1-0.4,0.1c-0.2,0-0.3,0-0.4,0
		c-1,0-1.5-0.5-1.5-1.7v-3.3h-0.7v-0.4L69,55l0.3-1.2h0.4v1.3h1.5v0.6h-1.5V59c0,0.3,0.1,0.6,0.2,0.8C70.1,59.9,70.3,60,70.6,60z"/>
	<path fill="#EC674B" d="M73,55.1v3.6c0,0.5,0.1,0.8,0.3,1c0.2,0.2,0.5,0.3,0.9,0.3c0.5,0,0.9-0.1,1.2-0.5c0.3-0.3,0.4-0.8,0.4-1.5
		v-2.9h0.8v5.5h-0.6l-0.1-0.8h0c-0.1,0.3-0.4,0.5-0.7,0.6s-0.6,0.2-1,0.2c-0.6,0-1.1-0.1-1.4-0.5c-0.3-0.3-0.5-0.8-0.5-1.5v-3.6H73z
		"/>
	<path fill="#EC674B" d="M81.6,59.8L81.6,59.8c-0.4,0.5-0.9,0.8-1.6,0.8c-0.7,0-1.2-0.3-1.6-0.8c-0.4-0.5-0.5-1.2-0.5-2.1
		c0-0.9,0.2-1.6,0.5-2.1c0.4-0.5,0.9-0.8,1.6-0.8c0.7,0,1.2,0.3,1.6,0.8h0.1l0-0.4l0-0.4v-2.2h0.8v7.8h-0.6L81.6,59.8z M80,60
		c0.5,0,0.9-0.1,1.2-0.5c0.2-0.3,0.3-0.8,0.3-1.5v-0.2c0-0.8-0.1-1.3-0.3-1.7c-0.2-0.3-0.6-0.5-1.2-0.5c-0.5,0-0.8,0.2-1,0.6
		c-0.2,0.4-0.3,0.9-0.3,1.6s0.1,1.2,0.3,1.6C79.2,59.8,79.6,60,80,60z"/>
	<path fill="#EC674B" d="M86.1,60.7c-0.8,0-1.4-0.3-1.8-0.8c-0.4-0.5-0.7-1.2-0.7-2.1c0-0.9,0.2-1.6,0.6-2.1c0.4-0.5,1-0.8,1.6-0.8
		c0.6,0,1.2,0.2,1.5,0.7c0.3,0.5,0.5,1,0.5,1.8V58h-3.5c0,0.6,0.2,1.1,0.5,1.5c0.3,0.3,0.7,0.5,1.2,0.5c0.5,0,1.1-0.1,1.6-0.4v0.8
		c-0.3,0.1-0.5,0.2-0.8,0.3C86.7,60.6,86.5,60.7,86.1,60.7z M85.9,55.7c-0.4,0-0.7,0.1-1,0.4c-0.3,0.3-0.4,0.7-0.4,1.2h2.7
		c0-0.5-0.1-0.9-0.3-1.2C86.6,55.8,86.3,55.7,85.9,55.7z"/>
	<path fill="#EC674B" d="M92.8,60.6V57c0-0.5-0.1-0.8-0.3-1c-0.2-0.2-0.5-0.3-0.9-0.3c-0.5,0-0.9,0.1-1.2,0.5
		c-0.2,0.3-0.4,0.8-0.4,1.5v2.9h-0.8v-5.5h0.6l0.1,0.8h0c0.1-0.3,0.4-0.5,0.7-0.6s0.6-0.2,1-0.2c0.6,0,1.1,0.2,1.4,0.5
		c0.3,0.3,0.5,0.8,0.5,1.5v3.6C93.5,60.6,92.8,60.6,92.8,60.6z"/>
	<path fill="#EC674B" d="M96.8,60c0.1,0,0.3,0,0.4,0c0.1,0,0.2-0.1,0.3-0.1v0.6c-0.1,0.1-0.2,0.1-0.4,0.1c-0.2,0-0.3,0-0.4,0
		c-1,0-1.5-0.5-1.5-1.7v-3.3h-0.7v-0.4l0.7-0.3l0.3-1.2H96v1.3h1.5v0.6H96V59c0,0.3,0.1,0.6,0.2,0.8C96.3,59.9,96.5,60,96.8,60z"/>
</g>
</svg>
