<?xml version="1.0" encoding="utf-8"?>
<!-- Generator: Adobe Illustrator 18.0.0, SVG Export Plug-In . SVG Version: 6.00 Build 0)  -->
<!DOCTYPE svg PUBLIC "-//W3C//DTD SVG 1.1//EN" "http://www.w3.org/Graphics/SVG/1.1/DTD/svg11.dtd">
<svg version="1.1" id="Layer_1" xmlns="http://www.w3.org/2000/svg" xmlns:xlink="http://www.w3.org/1999/xlink" x="0px" y="0px"
	 viewBox="0 0 345.7 96" enable-background="new 0 0 345.7 96" xml:space="preserve">
<g>
	<path fill="#EC674B" d="M137.9,22.7l-9.7,25.8l-13.9-36h2.6l11.3,29.3l9.7-25.8l9.7,25.8L159,12.6h2.6l-14,36L137.9,22.7z"/>
	<path fill="#EC674B" d="M178.3,45.7c-1.9,1.8-4.3,2.9-7.3,2.9c-6.7,0-12.1-5.4-12.1-12.1c0-6.7,5.4-12.2,12.1-12.2
		c6.7,0,10.9,5.5,10.9,12.2c0,0.4,0,0.8,0,1.2h-20.5c0.6,4.8,4.7,8.5,9.6,8.5c2.2,0,4.2-0.7,5.6-2.1L178.3,45.7z M179.5,35.3
		c-0.2-2.3-1-4.3-2.3-5.8c-1.6-1.8-3.7-2.8-6.2-2.8c-4.9,0-9.1,3.8-9.6,8.6C161.4,35.3,179.5,35.3,179.5,35.3z"/>
	<path fill="#EC674B" d="M187.9,27.8c2-2.3,4.9-3.7,8.3-3.7c6.8,0,12.3,5.5,12.3,12.2s-5.5,12.2-12.3,12.2c-3.5,0-6.3-1.4-8.3-3.8
		v2.5h-2.4V12.6h2.4V27.8z M187.9,39.9c0.4,1.3,1.1,2.5,1.9,3.5c1.6,1.8,3.8,2.8,6.4,2.8c5.5,0,9.8-4.4,9.8-9.8
		c0-5.5-4.4-9.8-9.8-9.8c-2.6,0-4.8,1-6.4,2.8c-0.9,1-1.5,2.2-1.9,3.5V39.9z"/>
	<path fill="#04ADAC" d="M245.6,43.1c-3.4,3.4-8.1,5.5-13.2,5.5c-10.3,0-18.6-8.4-18.6-18.6c0-10.3,8.3-18.6,18.6-18.6
		c5.1,0,9.8,2.1,13.2,5.5l-1.7,1.7c-2.9-2.9-7-4.8-11.5-4.8c-9,0-16.2,7.3-16.2,16.2c0,9,7.3,16.2,16.2,16.2c4.5,0,8.5-1.8,11.5-4.8
		L245.6,43.1z"/>
	<path fill="#04ADAC" d="M268.2,44.8c-2,2.3-4.8,3.7-8.3,3.7c-6.7,0-12.1-5.4-12.1-12.1c0-6.7,5.4-12.1,12.1-12.1
		c3.5,0,6.3,1.4,8.3,3.7v-2.4h2.4v21.7h-2.4V44.8z M268.2,32.8c-0.4-1.3-1.1-2.5-2-3.5c-1.6-1.8-3.8-2.7-6.3-2.7
		c-5.4,0-9.7,4.3-9.7,9.7c0,5.4,4.4,9.7,9.7,9.7c2.6,0,4.7-1,6.3-2.8c0.9-1,1.6-2.1,2-3.4V32.8z"/>
	<path fill="#04ADAC" d="M278.4,27.7c1.8-2.1,4.5-3.4,7.4-3.4c3.7,0,7,2.1,8.6,5.1c1.6-3,4.9-5.1,8.6-5.1c5.4,0,9.8,4.4,9.8,9.8
		v13.2h-2.4V34.1c0-4.1-3.3-7.4-7.4-7.4c-4.1,0-7.4,3.3-7.4,7.4v13.2h-2.4V34.1c0-4.1-3.3-7.4-7.4-7.4c-4.1,0-7.4,3.3-7.4,7.4v13.2
		H276V25.6h2.4V27.7z"/>
	<path fill="#04ADAC" d="M319.4,28.1c2-2.3,4.9-3.8,8.4-3.8c6.8,0,12,5.3,12,12.1c0,6.8-5.5,12.2-12.2,12.2c-3.5,0-6.4-1.5-8.3-3.8
		v16.8H317v-36h2.4L319.4,28.1L319.4,28.1z M319.4,39.8c0.4,1.3,1,2.5,1.9,3.5c1.6,1.8,3.8,2.8,6.4,2.8c5.4,0,9.8-4.4,9.8-9.8
		s-4.2-9.7-9.7-9.7c-2.6,0-4.9,0.9-6.5,2.7c-0.9,1-1.6,2.2-1.9,3.5V39.8z"/>
</g>
<g>
	<path fill="none" d="M11.2,80c-0.1,0-0.2,0.1-0.3,0.1C11,80,11.1,80,11.2,80z"/>
	<path fill="none" d="M11.7,79.8c-0.1,0-0.2,0.1-0.3,0.1C11.5,79.9,11.6,79.9,11.7,79.8z"/>
	<path fill="none" d="M14.9,78.3c0.6-0.3,1.5-0.9,2.7-1.5L14.9,78.3z"/>
	<path fill="none" d="M101.8,74.8c0-3.5,0-39,0-39s0.7-6.3-6.8-10.9C86.6,19.8,61,5.5,61,5.5S58.3,4,55.1,6.1c0.4-0.1,1.7-0.1,5.4,2
		c7.9,4.4,31,18,31,18s7.2,4,7.2,12.2c0,10,0,39.7,0,39.7s0,0.9-1,2.1c0.6,0,1.2,0,1.8-0.2C99.5,79.8,101.8,78.2,101.8,74.8z"/>
	<path fill="#58C4C4" d="M6,76.5V28.4l-2.5-1.6v48.1c0,3.8,2.5,4.4,4.8,5.2C5.7,78.7,6,76.5,6,76.5z"/>
	<path fill="#58C4C4" d="M11.2,80c0.1,0,0.2,0,0.2-0.1c0.1,0,0.2-0.1,0.3-0.1c0.1,0,0.1-0.1,0.2-0.1V32.1l-3-1.7v46.9
		c0,0,0.5,3.1,1.3,3c0.2,0,0.5-0.1,0.8-0.2C11,80,11.1,80,11.2,80z"/>
	<polygon fill="#58C4C4" points="17.6,76.8 17.6,35.5 14.9,33.8 14.9,78.3 17.6,76.8 	"/>
	<path fill="#58C4C4" d="M23.4,39.2l-2.6-1.7V75l1.8-1c0.3-0.2,0.5-0.3,0.8-0.5V39.2z"/>
	
		<linearGradient id="SVGID_1_" gradientUnits="userSpaceOnUse" x1="8.332" y1="27.9639" x2="99.536" y2="27.9639" gradientTransform="matrix(1 0 0 -1 0 98)">
		<stop  offset="0.2" style="stop-color:#04ADAC"/>
		<stop  offset="0.5074" style="stop-color:#EB674A"/>
		<stop  offset="0.8" style="stop-color:#04ADAC"/>
	</linearGradient>
	<path fill="url(#SVGID_1_)" d="M97.7,80C97.7,80,97.7,80,97.7,80c-0.8,0-2.2-0.3-2.3-0.3v0c-1.2-0.3-2.1-0.7-2.1-0.7
		S67.9,63.7,60.7,59.9c-7.1-3.9-13.6,0-13.6,0s-14,8-23.8,13.6l0,0l-0.8,0.5c-1.9,1.1-3.6,2.1-5,2.8l0,0l0,0
		c-1.1,0.6-2.1,1.2-2.7,1.5c-1.2,0.7-2.2,1.1-3,1.4v0c0,0-0.1,0-0.2,0.1c-0.1,0-0.2,0.1-0.3,0.1c-0.1,0-0.1,0-0.2,0.1
		c-0.1,0-0.2,0.1-0.3,0.1c-0.3,0.1-0.5,0.1-0.8,0.2c0,0,0,0,0,0c-1.1,0.2-1.7,0-1.8-0.1c4.1,3,7.1,1.2,7.1,1.2s25-14.2,31.5-17.9
		c6.8-3.9,9.9-1.9,12.9-0.6c3,1.3,18.9,10.4,30.2,17.5c6.2,3.9,9.5-0.5,9.5-0.5C98.9,80,98.3,80,97.7,80z"/>
	
		<linearGradient id="SVGID_2_" gradientUnits="userSpaceOnUse" x1="8.2607" y1="17.885" x2="99.5347" y2="17.885" gradientTransform="matrix(1 0 0 -1 0 98)">
		<stop  offset="0.2" style="stop-color:#04ADAC"/>
		<stop  offset="0.5074" style="stop-color:#EB674A"/>
		<stop  offset="0.8" style="stop-color:#04ADAC"/>
	</linearGradient>
	<path fill="url(#SVGID_2_)" d="M8.3,80.1C8.3,80.1,8.3,80.1,8.3,80.1C8.3,80.1,8.3,80.1,8.3,80.1z"/>
	<path fill="#58C4C4" d="M11.4,79.9c-0.1,0-0.2,0.1-0.2,0.1C11.3,80,11.4,79.9,11.4,79.9z"/>
	
		<linearGradient id="SVGID_3_" gradientUnits="userSpaceOnUse" x1="8.2607" y1="18.0425" x2="99.5347" y2="18.0425" gradientTransform="matrix(1 0 0 -1 0 98)">
		<stop  offset="0.2" style="stop-color:#04ADAC"/>
		<stop  offset="0.5074" style="stop-color:#EB674A"/>
		<stop  offset="0.8" style="stop-color:#04ADAC"/>
	</linearGradient>
	<path fill="url(#SVGID_3_)" d="M11.4,79.9c-0.1,0-0.2,0.1-0.2,0.1C11.3,80,11.4,79.9,11.4,79.9z"/>
	<path fill="#58C4C4" d="M11.9,79.8L11.9,79.8c-0.1,0-0.1,0-0.2,0.1C11.8,79.8,11.9,79.8,11.9,79.8z"/>
	
		<linearGradient id="SVGID_4_" gradientUnits="userSpaceOnUse" x1="8.2607" y1="18.2165" x2="99.5347" y2="18.2165" gradientTransform="matrix(1 0 0 -1 0 98)">
		<stop  offset="0.2" style="stop-color:#04ADAC"/>
		<stop  offset="0.5074" style="stop-color:#EB674A"/>
		<stop  offset="0.8" style="stop-color:#04ADAC"/>
	</linearGradient>
	<path fill="url(#SVGID_4_)" d="M11.9,79.8L11.9,79.8c-0.1,0-0.1,0-0.2,0.1C11.8,79.8,11.9,79.8,11.9,79.8z"/>
	<path fill="#58C4C4" d="M10.9,80.1c-0.3,0.1-0.5,0.1-0.8,0.2c0,0,0,0,0,0C10.4,80.2,10.7,80.1,10.9,80.1z"/>
	
		<linearGradient id="SVGID_5_" gradientUnits="userSpaceOnUse" x1="8.2607" y1="17.8409" x2="99.5346" y2="17.8409" gradientTransform="matrix(1 0 0 -1 0 98)">
		<stop  offset="0.2" style="stop-color:#04ADAC"/>
		<stop  offset="0.5074" style="stop-color:#EB674A"/>
		<stop  offset="0.8" style="stop-color:#04ADAC"/>
	</linearGradient>
	<path fill="url(#SVGID_5_)" d="M10.9,80.1c-0.3,0.1-0.5,0.1-0.8,0.2c0,0,0,0,0,0C10.4,80.2,10.7,80.1,10.9,80.1z"/>
	<polygon fill="#58C4C4" points="17.6,76.8 17.6,76.8 17.6,76.8 	"/>
	
		<linearGradient id="SVGID_6_" gradientUnits="userSpaceOnUse" x1="8.2607" y1="21.206" x2="99.5347" y2="21.206" gradientTransform="matrix(1 0 0 -1 0 98)">
		<stop  offset="0.2" style="stop-color:#04ADAC"/>
		<stop  offset="0.5074" style="stop-color:#EB674A"/>
		<stop  offset="0.8" style="stop-color:#04ADAC"/>
	</linearGradient>
	<polygon fill="url(#SVGID_6_)" points="17.6,76.8 17.6,76.8 17.6,76.8 	"/>
	<path fill="#58C4C4" d="M23.4,73.5c-0.3,0.2-0.5,0.3-0.8,0.5L23.4,73.5L23.4,73.5z"/>
	
		<linearGradient id="SVGID_7_" gradientUnits="userSpaceOnUse" x1="8.2607" y1="24.2845" x2="99.5347" y2="24.2845" gradientTransform="matrix(1 0 0 -1 0 98)">
		<stop  offset="0.2" style="stop-color:#04ADAC"/>
		<stop  offset="0.5074" style="stop-color:#EB674A"/>
		<stop  offset="0.8" style="stop-color:#04ADAC"/>
	</linearGradient>
	<path fill="url(#SVGID_7_)" d="M23.4,73.5c-0.3,0.2-0.5,0.3-0.8,0.5L23.4,73.5L23.4,73.5z"/>
	
		<linearGradient id="SVGID_8_" gradientUnits="userSpaceOnUse" x1="13.412" y1="23.0445" x2="94.384" y2="23.0445" gradientTransform="matrix(1 0 0 -1 0 98)">
		<stop  offset="0.2" style="stop-color:#04ADAC"/>
		<stop  offset="0.5074" style="stop-color:#EB674A"/>
		<stop  offset="0.8" style="stop-color:#04ADAC"/>
	</linearGradient>
	<path fill="url(#SVGID_8_)" d="M88.2,82.2c0,0-20.2-11.9-27.5-15.7c-7.6-4-13.6,0-13.6,0S26,79,20.5,81.7c-4.7,2.4-7.1,1.1-7.1,1.1
		c3,4,8.1,1.8,8.1,1.8s19-10.7,25.4-14.5c6.3-3.9,12.9-0.6,12.9-0.6s17.7,10,23.9,13.7c7.8,4.7,10.6-0.4,10.6-0.4
		C91.4,83.9,88.2,82.2,88.2,82.2z"/>
	
		<linearGradient id="SVGID_9_" gradientUnits="userSpaceOnUse" x1="19.5" y1="18.136" x2="87.944" y2="18.136" gradientTransform="matrix(1 0 0 -1 0 98)">
		<stop  offset="0.2" style="stop-color:#04ADAC"/>
		<stop  offset="0.5074" style="stop-color:#EB674A"/>
		<stop  offset="0.8" style="stop-color:#04ADAC"/>
	</linearGradient>
	<path fill="url(#SVGID_9_)" d="M79.7,84.3c0,0-12.5-7.1-19.6-11.3c-6.3-3.7-12.2-0.3-12.2-0.3s-14.7,8.9-20.2,11.7
		c-4.7,2.4-8.1,2.2-8.1,2.2c3.9,4,9.9,0.4,9.9,0.4s11.8-6.7,18.2-10.6c6.8-4.2,12.2-0.2,12.2-0.2s8.1,5,15.6,9.6
		c9.2,5.6,12.6,1,12.6,1C84.5,87.4,79.7,84.3,79.7,84.3z"/>
	
		<linearGradient id="SVGID_10_" gradientUnits="userSpaceOnUse" x1="25.245" y1="13.1196" x2="82.24" y2="13.1196" gradientTransform="matrix(1 0 0 -1 0 98)">
		<stop  offset="0.2" style="stop-color:#04ADAC"/>
		<stop  offset="0.5074" style="stop-color:#EB674A"/>
		<stop  offset="0.8" style="stop-color:#04ADAC"/>
	</linearGradient>
	<path fill="url(#SVGID_10_)" d="M75.2,88.5c0,0-9.3-5.5-16.5-9.6c-4.8-2.8-8.9-0.4-8.9-0.4s-12,7.1-17.5,9.9
		c-4.7,2.4-7.1,1.4-7.1,1.4c3.9,4,8.3,1.4,8.3,1.4s10.1-6,16.6-9.6c4.1-2.3,7.8,0.2,7.8,0.2s7.3,4.3,14.8,8.8
		c5.8,3.5,9.5-0.9,9.5-0.9C78.7,90.9,75.2,88.5,75.2,88.5z"/>
	
		<linearGradient id="SVGID_11_" gradientUnits="userSpaceOnUse" x1="54.875" y1="56.5327" x2="104.803" y2="56.5327" gradientTransform="matrix(1 0 0 -1 0 98)">
		<stop  offset="0" style="stop-color:#59C4C3"/>
		<stop  offset="1" style="stop-color:#004B4B"/>
	</linearGradient>
	<path fill="url(#SVGID_11_)" d="M97.6,23c0,0-23.1-13.6-31-18C58,0.1,54.9,6.2,54.9,6.2s0-0.1,0.2-0.1C58.3,4,61,5.5,61,5.5
		s25.5,14.3,34,19.4c7.5,4.6,6.8,10.9,6.8,10.9s0,35.6,0,39c0,3.5-2.3,5.1-2.3,5.1c5-2.1,4.9-5.4,4.9-5.4s0.4-29.3,0.4-39.3
		C104.8,26.9,97.6,23,97.6,23z"/>
	
		<linearGradient id="SVGID_12_" gradientUnits="userSpaceOnUse" x1="54.143" y1="54.9965" x2="98.691" y2="54.9965" gradientTransform="matrix(1 0 0 -1 0 98)">
		<stop  offset="0" style="stop-color:#59C4C3"/>
		<stop  offset="1" style="stop-color:#004B4B"/>
	</linearGradient>
	<path fill="url(#SVGID_12_)" d="M98.7,77.9c0,0,0-29.7,0-39.7c0-8.3-7.2-12.2-7.2-12.2s-23.1-13.6-31-18c-3.7-2.1-5-2.1-5.4-2
		c-0.1,0-0.1,0.1-0.2,0.1c-0.2,0.3-0.4,0.9-0.7,2c1.7,1,3.3,1.8,3.3,1.8s23,12.9,31.4,18c7.5,4.6,6.8,10.9,6.8,10.9s-0.3,35.6,0,39
		c0.1,0.8-0.2,1.6-0.2,1.8c0.7,0.2,1.5,0.3,2.3,0.3C98.7,78.9,98.7,77.9,98.7,77.9z"/>
	
		<linearGradient id="SVGID_13_" gradientUnits="userSpaceOnUse" x1="8.2607" y1="18.169" x2="99.5346" y2="18.169" gradientTransform="matrix(1 0 0 -1 0 98)">
		<stop  offset="0.2" style="stop-color:#04ADAC"/>
		<stop  offset="0.5074" style="stop-color:#EB674A"/>
		<stop  offset="0.8" style="stop-color:#04ADAC"/>
	</linearGradient>
	<path fill="url(#SVGID_13_)" d="M97.7,80C97.7,80,97.7,80,97.7,80c-0.8,0-1.6-0.2-2.3-0.3v0C95.6,79.7,97,80,97.7,80z"/>
	
		<linearGradient id="SVGID_14_" gradientUnits="userSpaceOnUse" x1="54.1421" y1="18.169" x2="98.6914" y2="18.169" gradientTransform="matrix(1 0 0 -1 0 98)">
		<stop  offset="0" style="stop-color:#59C4C3"/>
		<stop  offset="1" style="stop-color:#004B4B"/>
	</linearGradient>
	<path fill="url(#SVGID_14_)" d="M97.7,80C97.7,80,97.7,80,97.7,80c-0.8,0-1.6-0.2-2.3-0.3v0C95.6,79.7,97,80,97.7,80z"/>
	
		<linearGradient id="SVGID_15_" gradientUnits="userSpaceOnUse" x1="54.8755" y1="91.884" x2="104.8027" y2="91.884" gradientTransform="matrix(1 0 0 -1 0 98)">
		<stop  offset="0" style="stop-color:#59C4C3"/>
		<stop  offset="1" style="stop-color:#004B4B"/>
	</linearGradient>
	<path fill="url(#SVGID_15_)" d="M54.9,6.2c0.1,0,0.1-0.1,0.2-0.1C54.9,6.1,54.9,6.2,54.9,6.2z"/>
	
		<linearGradient id="SVGID_16_" gradientUnits="userSpaceOnUse" x1="54.1421" y1="91.884" x2="98.6914" y2="91.884" gradientTransform="matrix(1 0 0 -1 0 98)">
		<stop  offset="0" style="stop-color:#59C4C3"/>
		<stop  offset="1" style="stop-color:#004B4B"/>
	</linearGradient>
	<path fill="url(#SVGID_16_)" d="M54.9,6.2c0.1,0,0.1-0.1,0.2-0.1C54.9,6.1,54.9,6.2,54.9,6.2z"/>
	
		<linearGradient id="SVGID_17_" gradientUnits="userSpaceOnUse" x1="53.882" y1="53.0053" x2="92.743" y2="53.0053" gradientTransform="matrix(1 0 0 -1 0 98)">
		<stop  offset="0" style="stop-color:#59C4C3"/>
		<stop  offset="1" style="stop-color:#004B4B"/>
	</linearGradient>
	<path fill="url(#SVGID_17_)" d="M56.9,16.3c0,0,17.6,9.8,26,15c7.5,4.6,6.8,10.9,6.8,10.9s-0.2,30.5-0.1,34.6
		c1.4,0.9,3.1,1.9,3.1,1.9s0-27.1,0-37c0-8.3-7.2-12.2-7.2-12.2s-18.1-10.8-26-15.2c-5.1-2.9-5.6-2.7-5.6-2.7c0,1.7,0,1.7,0,3.1
		C55.1,15.1,56.9,16.3,56.9,16.3z"/>
	
		<linearGradient id="SVGID_18_" gradientUnits="userSpaceOnUse" x1="53.882" y1="51.4995" x2="87.04" y2="51.4995" gradientTransform="matrix(1 0 0 -1 0 98)">
		<stop  offset="0" style="stop-color:#59C4C3"/>
		<stop  offset="1" style="stop-color:#004B4B"/>
	</linearGradient>
	<path fill="url(#SVGID_18_)" d="M84,45.8c0,0,0.2,24,0,27.4c1.4,0.9,3,1.8,3,1.8s0-19.8,0-29.8c0-8.3-7.2-12.2-7.2-12.2
		s-18-10.8-25.9-15.2c0,1.6,0,3.6,0,3.6S68.8,29.9,77.2,35C84.7,39.6,84,45.8,84,45.8z"/>
</g>
<g>
	<path fill="#EC674B" d="M233.9,79.4c0,1.8-0.6,3.1-1.8,4.1s-2.9,1.4-5.1,1.4c-2.3,0-4.2-0.4-5.5-1.2v-2.7c0.8,0.5,1.8,0.8,2.7,1.1
		c1,0.3,1.9,0.4,2.8,0.4c1.4,0,2.5-0.2,3.2-0.7s1.1-1.2,1.1-2.2c0-0.7-0.3-1.4-0.9-1.9c-0.6-0.5-1.8-1.1-3.5-1.9
		c-1.6-0.7-2.8-1.2-3.5-1.7s-1.2-1.1-1.5-1.7c-0.3-0.6-0.5-1.4-0.5-2.2c0-1.6,0.6-2.8,1.8-3.7c1.2-0.9,2.8-1.3,4.8-1.3
		c1.9,0,3.7,0.4,5.6,1.3l-0.9,2.3c-1.8-0.8-3.4-1.2-4.8-1.2c-1.3,0-2.2,0.2-2.9,0.6s-1,1-1,1.8c0,0.5,0.1,0.9,0.4,1.3
		c0.2,0.4,0.6,0.7,1.2,1c0.5,0.3,1.6,0.8,3.1,1.4c2.1,0.8,3.5,1.6,4.2,2.5C233.6,77.1,233.9,78.1,233.9,79.4z"/>
	<path fill="#EC674B" d="M244,82.6c0.5,0,0.9,0,1.4-0.1s0.8-0.2,1-0.2v2.2c-0.3,0.2-0.7,0.3-1.3,0.4c-0.6,0.1-1.1,0.1-1.5,0.1
		c-3.4,0-5.1-1.9-5.1-5.8V67.8h-2.5v-1.4l2.5-1.2l1.1-4.1h1.5v4.4h5.1v2.2h-5.1V79c0,1.1,0.3,2,0.8,2.6
		C242.4,82.2,243.1,82.6,244,82.6z"/>
	<path fill="#EC674B" d="M252.4,65.6v12.3c0,1.6,0.3,2.7,1,3.5c0.7,0.8,1.7,1.1,3.1,1.1c1.8,0,3.2-0.5,4-1.6
		c0.9-1.1,1.3-2.9,1.3-5.3v-10h2.7v19h-2.2l-0.4-2.6h-0.1c-0.5,0.9-1.3,1.7-2.3,2.2c-1,0.5-2.1,0.7-3.3,0.7c-2.1,0-3.7-0.5-4.8-1.6
		c-1.1-1.1-1.6-2.9-1.6-5.3V65.6H252.4z"/>
	<path fill="#EC674B" d="M282.1,82h-0.1c-1.2,1.9-3.1,2.9-5.5,2.9c-2.3,0-4.1-0.9-5.4-2.6c-1.3-1.7-1.9-4.1-1.9-7.3
		c0-3.1,0.6-5.6,1.9-7.3s3.1-2.6,5.4-2.6c2.4,0,4.2,0.9,5.5,2.8h0.2l-0.1-1.4l-0.1-1.3v-7.7h2.7v27h-2.2L282.1,82z M276.7,82.5
		c1.8,0,3.1-0.5,4-1.6c0.8-1.1,1.2-2.8,1.2-5.2v-0.6c0-2.7-0.4-4.6-1.2-5.8s-2.2-1.7-4-1.7c-1.6,0-2.8,0.7-3.6,2
		c-0.8,1.3-1.2,3.2-1.2,5.6c0,2.4,0.4,4.3,1.2,5.5C273.9,81.9,275.1,82.5,276.7,82.5z"/>
	<path fill="#EC674B" d="M297.7,84.9c-2.6,0-4.7-0.9-6.2-2.6s-2.3-4.1-2.3-7.1c0-3.1,0.7-5.5,2.1-7.3s3.3-2.7,5.6-2.7
		c2.2,0,4,0.8,5.2,2.4s1.9,3.6,1.9,6.2v1.8H292c0.1,2.2,0.6,3.9,1.6,5.1s2.4,1.7,4.2,1.7c1.9,0,3.8-0.4,5.6-1.3v2.6
		c-0.9,0.4-1.8,0.8-2.7,0.9S298.9,84.9,297.7,84.9z M297,67.6c-1.4,0-2.5,0.5-3.4,1.5s-1.3,2.4-1.5,4.1h9.2c0-1.8-0.4-3.2-1.1-4.2
		C299.4,68.1,298.4,67.6,297,67.6z"/>
	<path fill="#EC674B" d="M320.8,84.6V72.3c0-1.6-0.3-2.7-1-3.5c-0.7-0.8-1.7-1.1-3.1-1.1c-1.8,0-3.2,0.5-4,1.6s-1.3,2.9-1.3,5.3v10
		h-2.7v-19h2.2l0.4,2.6h0.1c0.5-0.9,1.3-1.7,2.3-2.2c1-0.5,2.1-0.8,3.3-0.8c2.1,0,3.7,0.6,4.8,1.7c1.1,1.1,1.6,2.9,1.6,5.3v12.4
		H320.8z"/>
	<path fill="#EC674B" d="M334.6,82.6c0.5,0,0.9,0,1.4-0.1c0.4-0.1,0.8-0.2,1-0.2v2.2c-0.3,0.2-0.7,0.3-1.3,0.4
		c-0.6,0.1-1.1,0.1-1.5,0.1c-3.4,0-5.1-1.9-5.1-5.8V67.8h-2.5v-1.4l2.5-1.2l1.1-4.1h1.5v4.4h5.1v2.2h-5.1V79c0,1.1,0.3,2,0.8,2.6
		C333,82.2,333.7,82.6,334.6,82.6z"/>
</g>
</svg>
