<?xml version="1.0" encoding="utf-8"?>
<!-- Generator: Adobe Illustrator 19.2.1, SVG Export Plug-In . SVG Version: 6.00 Build 0)  -->
<svg version="1.1" xmlns="http://www.w3.org/2000/svg" xmlns:xlink="http://www.w3.org/1999/xlink" x="0px" y="0px"
	 viewBox="0 0 476.2 937.5" style="enable-background:new 0 0 476.2 937.5;" xml:space="preserve">
<style type="text/css">
	.st0{display:none;}
	.st1{display:inline;fill:none;stroke:#000000;stroke-miterlimit:10;}
	.st2{fill:#E95F42;}
	.st3{fill:#00A7AB;}
	.st4{fill:#282828;}
	.st5{fill:none;}
	.st6{fill:#63C1C4;}
	.st7{fill:url(#SVGID_1_);}
	.st8{fill:url(#SVGID_2_);}
	.st9{fill:url(#SVGID_3_);}
	.st10{fill:url(#SVGID_4_);}
	.st11{fill:url(#SVGID_5_);}
	.st12{fill:url(#SVGID_6_);}
	.st13{fill:url(#SVGID_7_);}
	.st14{fill:url(#SVGID_8_);}
	.st15{fill:url(#SVGID_9_);}
	.st16{fill:url(#SVGID_10_);}
	.st17{fill:url(#SVGID_11_);}
	.st18{fill:url(#SVGID_12_);}
	.st19{fill:url(#SVGID_13_);}
	.st20{fill:url(#SVGID_14_);}
	.st21{fill:url(#SVGID_15_);}
	.st22{fill:url(#SVGID_16_);}
	.st23{fill:url(#SVGID_17_);}
	.st24{fill:url(#SVGID_18_);}
	.st25{fill:#FFFFFF;}
	.st26{fill:#E8571E;}
	.st27{fill:#008184;}
	.st28{fill:#2C9FA2;}
	.st29{fill:url(#SVGID_19_);}
	.st30{fill:url(#SVGID_20_);}
	.st31{fill:url(#SVGID_21_);}
	.st32{fill:url(#SVGID_22_);}
	.st33{fill:url(#SVGID_23_);}
	.st34{fill:url(#SVGID_24_);}
	.st35{fill:url(#SVGID_25_);}
	.st36{fill:url(#SVGID_26_);}
	.st37{fill:url(#SVGID_27_);}
	.st38{fill:url(#SVGID_28_);}
	.st39{fill:url(#SVGID_29_);}
	.st40{fill:url(#SVGID_30_);}
	.st41{fill:url(#SVGID_31_);}
	.st42{fill:url(#SVGID_32_);}
	.st43{fill:url(#SVGID_33_);}
	.st44{fill:url(#SVGID_34_);}
	.st45{fill:url(#SVGID_35_);}
	.st46{fill:url(#SVGID_36_);}
	.st47{fill:#E9642E;}
	.st48{fill:#DC481B;}
	.st49{fill:#E6E7E9;}
	.st50{display:inline;fill:#008184;}
	.st51{display:inline;}
	.st52{clip-path:url(#SVGID_38_);}
	.st53{clip-path:url(#SVGID_40_);}
	.st54{clip-path:url(#SVGID_42_);}
	.st55{clip-path:url(#SVGID_44_);}
	.st56{clip-path:url(#SVGID_46_);}
	.st57{display:inline;opacity:0.5;}
	.st58{clip-path:url(#SVGID_48_);}
	.st59{display:none;fill:#008184;}
	.st60{fill:#2C688F;}
	.st61{fill:#F0F0E7;}
	.st62{fill:#F8B03E;}
	.st63{fill:#5F8596;}
	.st64{fill:#FDC818;}
	.st65{fill:#7EA2B0;}
	.st66{fill:#043348;}
	.st67{fill:#16507A;}
	.st68{fill:#EFEFE6;}
	.st69{fill:#C3E2DE;}
	.st70{opacity:0.82;}
	.st71{opacity:0.82;fill:#C3E2DE;}
	.st72{fill:#71C6CC;}
	.st73{opacity:0.97;fill:#B5DEE6;}
	.st74{fill:#5E8394;}
	.st75{fill:#3A7397;}
	.st76{fill:#3A7397;stroke:#356799;stroke-width:2;stroke-linecap:round;stroke-linejoin:round;}
	.st77{fill:#17507A;}
	.st78{fill:#5994B2;stroke:#6392B4;stroke-width:2;}
	.st79{fill:none;stroke:#78BFA0;stroke-width:0.8297;}
	.st80{fill:#7BC7C9;}
	.st81{fill:url(#SVGID_49_);}
	.st82{fill:url(#SVGID_50_);}
	.st83{fill:url(#SVGID_51_);}
	.st84{fill:url(#SVGID_52_);}
	.st85{fill:url(#SVGID_53_);}
	.st86{fill:url(#SVGID_54_);}
	.st87{fill:#F6AF3F;}
	.st88{fill:#529A5E;}
	.st89{fill:#C2E1D4;}
	.st90{fill:#72B980;}
	.st91{fill:#B1D8C7;}
	.st92{fill:url(#SVGID_55_);}
	.st93{fill:#1EABB1;}
	.st94{fill:url(#SVGID_56_);}
	.st95{fill:#D0E9EE;}
	.st96{opacity:0.61;fill:#FFFFFF;}
	.st97{fill:#4EBBC2;}
	.st98{fill:#FCC816;}
	.st99{fill:#DE401B;}
	.st100{fill:#F4D8C0;}
	.st101{fill:#F3E1D3;}
	.st102{fill:#FDDCA0;}
	.st103{fill:url(#SVGID_57_);}
	.st104{fill:#E0D5BE;}
	.st105{fill:#DFD4BD;}
	.st106{fill:#F59E1E;}
	.st107{fill:#1F2F3B;}
	.st108{fill:#FAFAFA;}
	.st109{fill:#F8F7F7;}
	.st110{fill:#D8D9D9;}
	.st111{fill:#14202D;}
	.st112{fill:#F2F2F2;}
	.st113{fill:#EAEAEA;}
	.st114{fill:#BCBCBB;}
	.st115{fill:#C0E1DC;}
	.st116{fill:#C2C1C1;}
	.st117{fill:#3895D2;}
	.st118{fill:#70B8D8;}
	.st119{fill:#E87E08;}
	.st120{fill:#354A5F;}
	.st121{fill:#4E7392;}
	.st122{fill:#B3D1CA;}
	.st123{fill:#A5A5A4;}
	.st124{fill:#F2C504;}
	.st125{fill:#F9ECB7;}
	.st126{fill:#E94C36;}
	.st127{fill:#F18D85;}
	.st128{fill:#CE6A14;}
	.st129{fill:#F49967;}
	.st130{fill:#132C39;}
	.st131{opacity:0.2;fill:#F6F5F5;}
	.st132{fill:#F3F2F1;}
	.st133{fill:#CED0D0;}
	.st134{fill:#001B2C;}
	.st135{opacity:0.2;fill:#ECECEB;}
	.st136{fill:#E3E4E3;}
	.st137{fill:#B0B2B2;}
	.st138{fill:#F8AD49;}
	.st139{fill:#FDC630;}
	.st140{fill:#759CA9;}
	.st141{fill:#EAEAE0;}
	.st142{fill:#2E6B8F;}
	.st143{fill:#5B8192;}
	.st144{fill-rule:evenodd;clip-rule:evenodd;fill:#DEDFDE;}
	.st145{fill-rule:evenodd;clip-rule:evenodd;fill:url(#SVGID_58_);}
	.st146{fill:#75797B;}
	.st147{opacity:0.5;}
	.st148{opacity:0.2;}
	.st149{fill:#F36E31;}
	.st150{fill:#1579A2;}
	.st151{fill:#14779E;}
	.st152{opacity:0.2;fill-rule:evenodd;clip-rule:evenodd;}
	.st153{opacity:0.3;fill-rule:evenodd;clip-rule:evenodd;}
	.st154{opacity:0.3;}
	.st155{fill:url(#SVGID_59_);}
	.st156{fill:url(#SVGID_60_);}
	.st157{fill:url(#SVGID_61_);}
	.st158{fill:url(#SVGID_62_);}
	.st159{fill:url(#SVGID_63_);}
	.st160{fill:url(#SVGID_64_);}
	.st161{fill:url(#SVGID_65_);}
	.st162{fill:url(#SVGID_66_);}
	.st163{fill:url(#SVGID_67_);}
	.st164{fill:url(#SVGID_68_);}
	.st165{fill:url(#SVGID_69_);}
	.st166{fill:url(#SVGID_70_);}
	.st167{fill:url(#SVGID_71_);}
	.st168{fill:url(#SVGID_72_);}
	.st169{fill:#004057;}
	.st170{fill:#7B3018;}
	.st171{fill-rule:evenodd;clip-rule:evenodd;fill:#8E5A42;}
	.st172{fill-rule:evenodd;clip-rule:evenodd;fill:#EDCAAD;}
	.st173{fill-rule:evenodd;clip-rule:evenodd;fill:url(#SVGID_73_);}
	.st174{opacity:0.7;}
	.st175{fill-rule:evenodd;clip-rule:evenodd;fill:url(#SVGID_74_);}
	.st176{fill-rule:evenodd;clip-rule:evenodd;fill:url(#SVGID_75_);}
	.st177{fill-rule:evenodd;clip-rule:evenodd;fill:url(#SVGID_76_);}
	.st178{fill-rule:evenodd;clip-rule:evenodd;fill:url(#SVGID_77_);}
	.st179{fill-rule:evenodd;clip-rule:evenodd;fill:url(#SVGID_78_);}
	.st180{opacity:0.4;}
	.st181{fill-rule:evenodd;clip-rule:evenodd;fill:url(#SVGID_79_);}
	.st182{fill-rule:evenodd;clip-rule:evenodd;fill:url(#SVGID_80_);}
	.st183{fill-rule:evenodd;clip-rule:evenodd;fill:url(#SVGID_81_);}
	.st184{fill-rule:evenodd;clip-rule:evenodd;fill:#C89064;}
	.st185{fill-rule:evenodd;clip-rule:evenodd;fill:#A7755F;}
	.st186{opacity:0.3;fill-rule:evenodd;clip-rule:evenodd;fill:#A7755F;}
	.st187{opacity:0.8;fill-rule:evenodd;clip-rule:evenodd;fill:#82523B;}
	.st188{opacity:0.2;fill:#18181C;}
	.st189{opacity:0.6;fill-rule:evenodd;clip-rule:evenodd;fill:url(#SVGID_82_);}
	.st190{opacity:0.4;fill-rule:evenodd;clip-rule:evenodd;fill:#FFFFFF;}
	.st191{opacity:0.2;fill-rule:evenodd;clip-rule:evenodd;fill:url(#SVGID_83_);}
	.st192{opacity:0.1;fill-rule:evenodd;clip-rule:evenodd;fill:#FFFFFF;}
	.st193{opacity:0.2;fill-rule:evenodd;clip-rule:evenodd;fill:#18181C;}
	.st194{opacity:0.5;fill-rule:evenodd;clip-rule:evenodd;fill:url(#SVGID_84_);}
	.st195{opacity:0.3;fill-rule:evenodd;clip-rule:evenodd;fill:#18181C;}
	.st196{fill-rule:evenodd;clip-rule:evenodd;fill:#18181C;}
	.st197{opacity:0.4;fill-rule:evenodd;clip-rule:evenodd;fill:#18181C;}
	.st198{fill-rule:evenodd;clip-rule:evenodd;fill:none;}
	.st199{fill-rule:evenodd;clip-rule:evenodd;fill:#AC7544;}
	.st200{fill:#6C4826;}
	.st201{opacity:0.5;fill:#18181C;}
	.st202{fill-rule:evenodd;clip-rule:evenodd;fill:#681D18;}
	.st203{fill-rule:evenodd;clip-rule:evenodd;fill:url(#SVGID_85_);}
	.st204{fill:#8F4C45;}
	.st205{fill-rule:evenodd;clip-rule:evenodd;fill:#FFFFFF;}
	.st206{fill-rule:evenodd;clip-rule:evenodd;fill:#8F4C45;}
	.st207{fill-rule:evenodd;clip-rule:evenodd;fill:#19181C;fill-opacity:0.2;}
	.st208{opacity:0.3;fill-rule:evenodd;clip-rule:evenodd;fill:url(#SVGID_86_);}
	.st209{clip-path:url(#SVGID_88_);}
	.st210{fill-rule:evenodd;clip-rule:evenodd;fill:#19AAE0;}
	.st211{opacity:0.5;fill-rule:evenodd;clip-rule:evenodd;fill:url(#SVGID_89_);}
	.st212{fill:#253B7B;}
	.st213{opacity:0.1;clip-path:url(#SVGID_91_);}
	.st214{opacity:5.000000e-02;clip-path:url(#SVGID_91_);}
	.st215{fill-rule:evenodd;clip-rule:evenodd;}
	.st216{opacity:0.9;fill-rule:evenodd;clip-rule:evenodd;fill:url(#SVGID_92_);}
	.st217{opacity:0.3;fill-rule:evenodd;clip-rule:evenodd;fill:url(#SVGID_93_);}
	.st218{opacity:0.2;fill:#FFFFFF;}
	.st219{opacity:0.9;fill-rule:evenodd;clip-rule:evenodd;fill:url(#SVGID_94_);}
	.st220{opacity:0.5;fill:#FFFFFF;}
	.st221{opacity:0.3;fill-rule:evenodd;clip-rule:evenodd;fill:url(#SVGID_95_);}
	.st222{clip-path:url(#SVGID_97_);}
	.st223{opacity:0.5;fill-rule:evenodd;clip-rule:evenodd;fill:url(#SVGID_98_);}
	.st224{opacity:0.1;clip-path:url(#SVGID_100_);}
	.st225{opacity:5.000000e-02;clip-path:url(#SVGID_100_);}
	.st226{opacity:0.9;fill-rule:evenodd;clip-rule:evenodd;fill:url(#SVGID_101_);}
	.st227{opacity:0.3;fill-rule:evenodd;clip-rule:evenodd;fill:url(#SVGID_102_);}
	.st228{opacity:0.9;fill-rule:evenodd;clip-rule:evenodd;fill:url(#SVGID_103_);}
	.st229{fill-rule:evenodd;clip-rule:evenodd;fill:#795431;}
	.st230{fill:url(#SVGID_104_);}
	.st231{fill:url(#SVGID_105_);}
	.st232{fill:url(#SVGID_106_);}
	.st233{fill:url(#SVGID_107_);}
	.st234{fill:url(#SVGID_108_);}
	.st235{fill:url(#SVGID_109_);}
	.st236{fill:url(#SVGID_110_);}
	.st237{fill:url(#SVGID_111_);}
	.st238{fill:url(#SVGID_112_);}
	.st239{fill:url(#SVGID_113_);}
	.st240{fill:url(#SVGID_114_);}
	.st241{fill:url(#SVGID_115_);}
	.st242{fill:url(#SVGID_116_);}
	.st243{fill:url(#SVGID_117_);}
	.st244{fill:url(#SVGID_118_);}
	.st245{fill:url(#SVGID_119_);}
	.st246{fill:url(#SVGID_120_);}
	.st247{fill:url(#SVGID_121_);}
	.st248{fill:url(#SVGID_122_);}
	.st249{fill:url(#SVGID_123_);}
	.st250{fill:url(#SVGID_124_);}
	.st251{fill:url(#SVGID_125_);}
	.st252{fill:url(#SVGID_126_);}
	.st253{fill:url(#SVGID_127_);}
	.st254{fill:url(#SVGID_128_);}
	.st255{fill:url(#SVGID_129_);}
	.st256{fill:url(#SVGID_130_);}
	.st257{fill:url(#SVGID_131_);}
	.st258{fill:url(#SVGID_132_);}
	.st259{fill:url(#SVGID_133_);}
	.st260{fill:#00537F;}
	.st261{fill:#004B71;}
	.st262{opacity:0.5;fill:url(#SVGID_134_);}
	.st263{opacity:0.3;fill:#63C9D7;}
	.st264{opacity:0.5;fill:url(#SVGID_135_);}
	.st265{opacity:0.3;fill:url(#SVGID_136_);}
	.st266{fill:url(#SVGID_137_);}
	.st267{fill:url(#SVGID_138_);}
	.st268{fill:url(#SVGID_139_);}
	.st269{opacity:0.5;fill:url(#SVGID_140_);}
	.st270{opacity:0.5;fill:url(#SVGID_141_);}
	.st271{opacity:0.5;fill:url(#SVGID_142_);}
	.st272{fill:url(#SVGID_143_);}
	.st273{fill:url(#SVGID_144_);}
	.st274{fill:url(#SVGID_145_);}
	.st275{fill:url(#SVGID_146_);}
	.st276{fill:url(#SVGID_147_);}
	.st277{fill:url(#SVGID_148_);}
	.st278{fill:url(#SVGID_149_);}
	.st279{fill:url(#SVGID_150_);}
	.st280{fill:url(#SVGID_151_);}
	.st281{fill:url(#SVGID_152_);}
	.st282{fill:url(#SVGID_153_);}
	.st283{fill:url(#SVGID_154_);}
	.st284{fill:url(#SVGID_155_);}
	.st285{fill:url(#SVGID_156_);}
	.st286{fill:url(#SVGID_157_);}
	.st287{fill:url(#SVGID_158_);}
	.st288{fill:url(#SVGID_159_);}
	.st289{fill:url(#SVGID_160_);}
	.st290{fill:url(#SVGID_161_);}
	.st291{fill:url(#SVGID_162_);}
	.st292{fill:url(#SVGID_163_);}
	.st293{fill:url(#SVGID_164_);}
	.st294{fill:url(#SVGID_165_);}
	.st295{fill:url(#SVGID_166_);}
	.st296{fill:url(#SVGID_167_);}
	.st297{fill:url(#SVGID_168_);}
	.st298{fill:url(#SVGID_169_);}
	.st299{fill:url(#SVGID_170_);}
	.st300{fill:url(#SVGID_171_);}
	.st301{fill:url(#SVGID_172_);}
	.st302{fill:url(#SVGID_173_);}
	.st303{fill:url(#SVGID_174_);}
	.st304{fill:url(#SVGID_175_);}
	.st305{fill:url(#SVGID_176_);}
	.st306{fill:url(#SVGID_177_);}
	.st307{fill:url(#SVGID_178_);}
	.st308{fill:url(#SVGID_179_);}
	.st309{fill:url(#SVGID_180_);}
	.st310{fill:url(#SVGID_181_);}
	.st311{fill:url(#SVGID_182_);}
	.st312{fill:url(#SVGID_183_);}
	.st313{fill:url(#SVGID_184_);}
	.st314{fill:url(#SVGID_185_);}
	.st315{fill:url(#SVGID_186_);}
	.st316{fill:url(#SVGID_187_);}
	.st317{fill:url(#SVGID_188_);}
	.st318{fill:url(#SVGID_189_);}
	.st319{fill:url(#SVGID_190_);}
	.st320{fill:url(#SVGID_191_);}
	.st321{fill:url(#SVGID_192_);}
	.st322{fill:url(#SVGID_193_);}
	.st323{fill:url(#SVGID_194_);}
	.st324{fill:url(#SVGID_195_);}
	.st325{fill:url(#SVGID_196_);}
	.st326{fill:url(#SVGID_197_);}
	.st327{fill:url(#SVGID_198_);}
	.st328{fill:url(#SVGID_199_);}
	.st329{fill:url(#SVGID_200_);}
	.st330{fill:url(#SVGID_201_);}
	.st331{fill:url(#SVGID_202_);}
	.st332{fill:url(#SVGID_203_);}
	.st333{fill:url(#SVGID_204_);}
	.st334{fill:url(#SVGID_205_);}
	.st335{fill:url(#SVGID_206_);}
	.st336{fill:url(#SVGID_207_);}
	.st337{fill:url(#SVGID_208_);}
	.st338{fill:url(#SVGID_209_);}
	.st339{fill:url(#SVGID_210_);}
	.st340{fill:url(#SVGID_211_);}
	.st341{fill:url(#SVGID_212_);}
	.st342{fill:url(#SVGID_213_);}
	.st343{fill:url(#SVGID_214_);}
	.st344{fill:url(#SVGID_215_);}
	.st345{fill:url(#SVGID_216_);}
	.st346{fill:url(#SVGID_217_);}
	.st347{fill:url(#SVGID_218_);}
	.st348{fill:url(#SVGID_219_);}
	.st349{fill:url(#SVGID_220_);}
	.st350{fill:url(#SVGID_221_);}
	.st351{fill:url(#SVGID_222_);}
	.st352{fill:url(#SVGID_223_);}
	.st353{fill:url(#SVGID_224_);}
	.st354{fill:url(#SVGID_225_);}
	.st355{fill:url(#SVGID_226_);}
	.st356{fill:url(#SVGID_227_);}
	.st357{fill:url(#SVGID_228_);}
	.st358{fill:url(#SVGID_229_);}
	.st359{fill:url(#SVGID_230_);}
	.st360{fill:url(#SVGID_231_);}
	.st361{fill:url(#SVGID_232_);}
	.st362{fill:url(#SVGID_233_);}
	.st363{fill:url(#SVGID_234_);}
	.st364{fill:url(#SVGID_235_);}
	.st365{fill:url(#SVGID_236_);}
	.st366{fill:url(#SVGID_237_);}
	.st367{fill:url(#SVGID_238_);}
	.st368{fill:url(#SVGID_239_);}
	.st369{fill:url(#SVGID_240_);}
	.st370{fill:url(#SVGID_241_);}
	.st371{fill:url(#SVGID_242_);}
	.st372{fill:url(#SVGID_243_);}
	.st373{fill:url(#SVGID_244_);}
	.st374{fill:url(#SVGID_245_);}
	.st375{fill:url(#SVGID_246_);}
	.st376{fill:url(#SVGID_247_);}
	.st377{fill:url(#SVGID_248_);}
	.st378{fill:url(#SVGID_249_);}
	.st379{fill:url(#SVGID_250_);}
	.st380{fill:url(#SVGID_251_);}
	.st381{fill:url(#SVGID_252_);}
	.st382{fill:url(#SVGID_253_);}
	.st383{fill:url(#SVGID_254_);}
	.st384{fill:url(#SVGID_255_);}
	.st385{fill:url(#SVGID_256_);}
	.st386{fill:url(#SVGID_257_);}
	.st387{fill:url(#SVGID_258_);}
	.st388{fill:url(#SVGID_259_);}
	.st389{fill:url(#SVGID_260_);}
	.st390{fill:url(#SVGID_261_);}
	.st391{fill:url(#SVGID_262_);}
	.st392{fill:url(#SVGID_263_);}
	.st393{fill:url(#SVGID_264_);}
	.st394{fill:url(#SVGID_265_);}
	.st395{fill:url(#SVGID_266_);}
	.st396{fill:url(#SVGID_267_);}
	.st397{fill:url(#SVGID_268_);}
	.st398{fill:url(#SVGID_269_);}
	.st399{fill:url(#SVGID_270_);}
	.st400{fill:url(#SVGID_271_);}
	.st401{fill:url(#SVGID_272_);}
	.st402{fill:url(#SVGID_273_);}
	.st403{fill:url(#SVGID_274_);}
	.st404{fill:url(#SVGID_275_);}
	.st405{fill:url(#SVGID_276_);}
	.st406{fill:url(#SVGID_277_);}
	.st407{fill:url(#SVGID_278_);}
	.st408{fill:url(#SVGID_279_);}
	.st409{fill:url(#SVGID_280_);}
	.st410{fill:url(#SVGID_281_);}
	.st411{fill:url(#SVGID_282_);}
	.st412{fill:url(#SVGID_283_);}
	.st413{fill:url(#SVGID_284_);}
	.st414{opacity:0.8;fill:url(#SVGID_285_);}
	.st415{opacity:0.3;fill:url(#SVGID_286_);}
	.st416{opacity:0.3;fill:url(#SVGID_287_);}
	.st417{opacity:0.3;fill:url(#SVGID_288_);}
	.st418{fill:#97D7D9;}
	.st419{fill:#30485E;}
	.st420{fill:#F36C36;}
	.st421{fill:#121212;}
	.st422{fill:#F5E0CD;}
	.st423{fill:#4A3222;}
	.st424{fill:#CF9E76;}
	.st425{fill:#ECC19C;}
	.st426{fill:#543E36;}
	.st427{fill:#999999;}
	.st428{fill:#335C64;}
	.st429{fill:#FDB851;}
	.st430{fill:#203449;}
	.st431{fill:#FAA435;}
	.st432{fill:url(#SVGID_289_);}
	.st433{fill:#F4BE69;}
	.st434{fill:#465566;}
	.st435{fill:#FECC7E;}
	.st436{fill:#F4F7F6;}
	.st437{fill:#F7CF8E;}
	.st438{fill:#77838F;}
	.st439{fill:#737C82;}
	.st440{fill:#FBAB49;}
	.st441{fill:#F59933;}
	.st442{fill:#3BAF49;}
	.st443{fill:#FEE69F;}
	.st444{font-family:'Impact';}
	.st445{font-size:18px;}
	.st446{fill:#D8F0F5;}
	.st447{font-family:'Monaco';}
	.st448{font-size:11px;}
	.st449{fill:#EF4136;}
	.st450{fill:#F15A29;}
	.st451{font-size:16px;}
</style>
<g id="Слой_1" class="st0">
</g>
<g id="Слой_2" class="st0">
</g>
<g id="Слой_3" class="st0">
</g>
<g id="Слой_4">
</g>
<g id="Слой_5">
</g>
<g id="Слой_6">
</g>
<g id="Layer_7">
</g>
<g id="Layer_8">
</g>
<g id="Layer_9">
</g>
<g id="Layer_10">
	<rect x="238.3" class="st418" width="238.1" height="937.5"/>
	<rect class="st419" width="238.1" height="937.5"/>
	<path class="st220" d="M314.7,187.2c0-0.1,0-0.2,0-0.3c0-2.1-1.7-3.8-3.8-3.8c-0.4,0-0.7,0.1-1,0.1c0-2.4-2-4.4-4.5-4.4
		c-0.7,0-1.4,0.2-2,0.5c-0.8-2.7-3.3-4.6-6.3-4.6c-2.9,0-5.4,1.9-6.2,4.5c-0.5-0.2-1.2-0.4-1.8-0.4c-2.4,0-4.4,2-4.4,4.4
		c0,0.1,0,0.2,0,0.4c-0.4-0.1-0.8-0.2-1.2-0.2c-2,0-3.6,1.6-3.6,3.6c0,0.1,0,0.1,0,0.2H314.7z"/>
	<path class="st220" d="M459,119.7c0-0.1,0-0.2,0-0.3c0-2.3-1.9-4.2-4.2-4.2c-0.4,0-0.8,0.1-1.2,0.2c0-2.7-2.3-5-5-5
		c-0.8,0-1.6,0.2-2.3,0.6c-0.9-3-3.7-5.2-7-5.2c-3.3,0-6,2.1-7,5.1c-0.6-0.3-1.3-0.4-2-0.4c-2.7,0-5,2.2-5,5c0,0.1,0,0.3,0,0.4
		c-0.4-0.1-0.8-0.2-1.3-0.2c-2.2,0-4,1.8-4,4c0,0.1,0,0.1,0,0.2H459z"/>
	<path class="st220" d="M303.3,42.1c0-0.1,0-0.2,0-0.3c0-2.4-2-4.4-4.4-4.4c-0.4,0-0.8,0.1-1.2,0.2c0-2.8-2.4-5.1-5.2-5.1
		c-0.9,0-1.7,0.2-2.4,0.6c-1-3.1-3.9-5.4-7.3-5.4c-3.4,0-6.3,2.2-7.3,5.3c-0.6-0.3-1.3-0.4-2.1-0.4c-2.8,0-5.2,2.3-5.2,5.2
		c0,0.1,0,0.3,0,0.4c-0.4-0.1-0.9-0.2-1.4-0.2c-2.3,0-4.1,1.9-4.1,4.1c0,0.1,0,0.1,0,0.2H303.3z"/>
	<path class="st25" d="M346.7,177.9c-0.1,0,0,0.1,0,0.1C346.7,178,346.7,178,346.7,177.9z M347.1,179.9
		C347.1,179.9,347.1,179.8,347.1,179.9L347.1,179.9C347.1,179.9,347.1,179.9,347.1,179.9z M355.2,206.8c-0.3-1.1-0.6-2.1-1.1-3.1
		c0,0.1-0.1,0-0.1,0l0,0l-0.1-0.1c0-0.1,0-0.1,0.1,0c-0.2-0.4-0.3-0.8-0.5-1.2c0,0,0,0-0.1-0.1l-7-28.2c0,0,0-0.1,0.1-0.1
		c0,0,0,0-0.1,0l-0.1-0.3c0,0.1,0,0.3,0,0.4l0,0c0,0.1,0,0.1,0,0.1l0,0.1l0,0c0,0.2,0,0.3,0.1,0.5l0-0.1c0,0,0,0.1,0,0.1
		c0,0,0,0.1,0,0.1c0,0,0,0,0,0c0,0,0,0-0.1,0c0,0,0,0,0,0.1l-0.1,0c0.1,0,0.1,0.3,0.1,0.3l0,0c0,0.2,0,0,0.1,0.1
		c0,0.1-0.1,0-0.1,0.1c0,0.2,0.1,0.4,0.1,0.6c0,0.1,0.1,0.3,0.1,0.4c0,0.1-0.1,0,0,0.1c0,0-0.1,0-0.1,0c0,0,0,0.2,0.1,0.1
		c0,0.2,0,0.4,0.1,0.6c0-0.1-0.1-0.1-0.1,0c0.1,0.1,0.1,0.2,0.1,0.4c0.1,0,0-0.1,0.1-0.1c0,0,0,0.1,0,0.1c0,0-0.1,0-0.1,0.2
		c-0.1,0,0-0.2-0.1-0.2c-0.1,0-0.1-0.3-0.1-0.4c-0.1-0.1,0,0.1-0.1,0.1c0,0.1,0.1,0.2,0.1,0.3c0,0,0-0.1,0.1,0c0.1,0.1,0,0.2,0,0.2
		l0-0.1c0,0.1,0.1,0.1,0.1,0.2c-0.1,0.1,0-0.2-0.1-0.2l-0.1,0.1c0,0.2,0.1,0,0.1,0.2l0,0l0,0.1c0,0,0.1,0,0.1-0.1
		c0.1,0,0,0.1,0.1,0.2c0.1,0,0-0.1,0-0.1c0,0,0.1,0.1,0.1,0.1c0,0.1,0,0.1-0.1,0.1c0,0,0-0.1,0-0.1c-0.1-0.1-0.1,0.1-0.2,0
		c0,0.1,0.1,0.1,0.1,0.2c0,0,0.1,0,0.1,0c0.2,0.2-0.1,0.1,0,0.3c0.1-0.1,0.2,0.2,0.3,0.1c0,0,0.1,0.1,0.1,0.1c-0.1,0,0,0.1-0.1,0
		l0,0.1l-0.1-0.1c0,0.1,0,0.2-0.1,0.3c0.1,0.1,0.1,0,0.1,0.1c0,0-0.1,0,0,0.1c0-0.1,0.1,0,0.1,0c0,0.1,0,0.2,0,0.2l-0.1-0.1
		c0.1,0.1,0,0,0,0.1c0,0,0.1,0,0.2,0.1c0,0.1,0,0.1,0,0.1l-0.1-0.1c0,0.1-0.1,0.1,0,0.2l0.1,0c0,0,0,0,0,0c0,0,0.1,0.1,0.1,0.1l0,0
		c0,0.1,0.1,0.1,0.1,0.2c0.1-0.1,0-0.1,0-0.2c0-0.1,0.1,0.1,0.1,0.1c-0.1,0,0,0.1,0,0.2c0,0,0,0.1,0,0.1l0.1,0
		c-0.1,0.1,0.1,0.1,0,0.2c0,0-0.1,0-0.1,0c0.1-0.1,0.1,0.1,0.2,0.1c0,0.1-0.1,0-0.2,0c0.1,0.1,0,0.2,0.1,0.2c0-0.1,0.1,0,0.1,0
		c0,0.1,0,0,0,0.1c0,0.1,0.1,0.1,0.1,0c0,0.1,0.1,0.1,0.1,0.2c0,0-0.1-0.2-0.1-0.1c0,0.2,0.1,0.1,0.2,0.2c0-0.1,0.1,0,0.2,0
		c0,0.2,0-0.1-0.1,0l0,0.1c-0.1,0.1-0.2-0.2-0.2-0.1l0,0.1c0,0-0.1,0-0.1,0c0.1,0,0.1,0.2,0.1,0.2c0.1,0,0-0.1,0-0.1
		c0,0.1,0.1,0.1,0.1,0.2c-0.1-0.1-0.1,0-0.1,0c0,0.1,0.1,0,0.1,0.1l0,0c0.1,0.3,0.2,0.8,0.4,1c0,0.1,0,0.2,0,0.4c0-0.1,0.1,0,0.1,0
		l0,0.1c0,0.1,0.1,0.2,0.1,0.3l0,0c0,0.1,0.1,0.1,0.1,0.1l0,0.1l0,0c0,0.1,0.1,0.2,0,0.2c0,0,0,0.1,0.1,0c0,0.1,0,0.3,0.1,0.5
		c0-0.1,0-0.1,0.1-0.1c0.1,0,0,0,0.1,0.1c0,0,0,0.1-0.1,0c0,0.2,0.1,0.5,0.2,0.8c0,0.1,0,0,0.1,0.1c0,0.2,0.1,0.4,0.1,0.6
		c0,0,0.1,0,0.1,0.1c0.1,0.1-0.1,0.1-0.1,0.2c0,0,0.1,0.1,0.1,0.2l0,0c0,0.1,0.1,0.1,0.1,0.2l0,0c0,0.1,0,0.1,0,0.2
		c0.1,0,0.1,0.2,0.1,0.2c0,0,0,0,0,0l0,0l0,0.1c0,0,0,0-0.1-0.1c0,0.1,0.1,0,0.1,0.1c0.1,0.1,0,0.1,0,0.1c0,0,0-0.1,0-0.1
		c0,0,0,0.1,0,0.1c0,0,0.1,0,0.1,0.1c0,0.1,0.1,0.2,0,0.2c0,0,0,0.1,0.1,0.1c0,0,0-0.1,0-0.2c0,0,0,0.1,0,0.1l0,0c0,0,0,0.2,0.1,0.1
		l0,0.1c0,0,0.1,0.1,0.1,0.2c-0.1,0-0.1,0-0.1,0.1l0.1,0.1c0,0.1,0,0.1,0,0.1c0,0.2,0.2,0.2,0.2,0.4c-0.1-0.1-0.1,0-0.1,0.1
		c0,0,0,0,0,0c0,0-0.1,0,0-0.1c0,0,0,0.1,0.1,0.1c-0.1,0.2,0.1,0.5,0,0.7c0.1,0,0,0.1,0.1,0.2c-0.1,0,0,0.1,0,0.2l0.1-0.1
		c0,0.2,0.2,0.2,0.1,0.3c0,0.1-0.1,0-0.1,0c-0.1,0.1,0.1,0.3,0.1,0.4c0,0,0.1,0,0.1,0c0,0.1,0,0.3,0,0.2c0,0.1,0.1,0.1,0,0.2
		c0,0,0,0,0-0.1c0,0.1,0.1,0.2,0.1,0.3c0,0.1,0,0.3,0,0.4c0.1,0.1,0,0.2,0.1,0.2c0,0,0,0,0,0c0,0,0.1,0.1,0.1,0.1l-0.1,0
		c-0.1,0,0,0.2,0,0.2c0-0.1,0,0.1,0.1,0.1l0,0.1c0,0.1,0,0,0.1,0.1c0,0.1-0.1,0-0.1,0c0,0.1,0,0.1,0,0.2c0,0,0,0,0,0c0,0,0,0,0,0
		c0,0,0,0,0,0.1c0,0,0,0,0,0c0,0,0-0.1,0-0.1c0,0,0,0,0,0.1c0,0,0,0,0,0c0,0,0,0,0,0.1l-0.1,0c0,0.1,0.1,0.2,0.1,0.2
		c0,0.2,0.1,0.5,0.2,0.6c0,0,0,0,0,0c0,0.1,0.1,0.1,0.1,0.1c0,0.1,0,0.1,0,0.2c0,0,0.1,0,0,0c0,0.2,0.1,0.4,0.1,0.6c0,0,0,0-0.1,0
		c0.1,0.2,0.1,0.3,0.2,0.4c0,0,0,0-0.1,0c0,0.1,0.1,0.2,0.1,0.3c0-0.1,0,0,0,0c0-0.1,0.1,0,0.1,0.1l0,0c0,0.1,0.1,0.1,0.1,0.2
		c0,0.1,0-0.1-0.1,0c-0.1,0,0,0.3,0,0.3c0,0,0,0.1,0.1,0c0,0.1,0,0,0,0.1l0.2,0.2c0,0,0,0,0,0c0,0,0,0.1-0.1,0
		c0,0.1,0.1,0.2,0.1,0.2c0,0.1,0.1,0.3,0.1,0.4c0,0-0.1,0.1-0.1,0c0,0.1,0.1,0.3,0.1,0.5c0.1-0.1,0.1,0.1,0.2,0.1c0,0,0,0.1,0,0.1
		c0,0-0.1,0-0.1,0.1c0.1,0.2,0.1,0.3,0.1,0.5l0,0c0.1,0.1,0.1,0.4,0.2,0.5c0,0,0,0,0,0c0,0,0,0,0,0c0,0.1,0,0.1,0.1,0.1
		c0,0,0,0.1,0,0.1l0,0c0.1,0.1,0,0.2,0.1,0.3c0,0,0,0,0,0c0,0,0,0,0,0c0,0.1,0.1,0.2,0.1,0.3c0,0,0,0,0,0c0,0,0,0,0,0.1
		c0,0,0,0-0.1,0c0,0.1,0.1,0.1,0.1,0.1c0,0,0,0.1,0,0.1c0,0,0,0.1,0,0.1c0,0,0,0.1,0.1,0.1c0,0.1,0,0.1,0.1,0.2c0,0,0,0.1,0,0.1
		c0.2,0.5,0.4,1.1,0.6,1.6c0,0,0,0.1,0,0.1c0,0.1-0.1-0.1-0.1,0c0.1,0,0.1,0.1,0.1,0.2l0,0c0,0.1,0,0.1,0.1,0.2l0,0
		c0.1,0.1,0,0.2,0.1,0.2l0,0.1c0.1,0,0,0.1,0.1,0.2l0,0c0,0.1,0.2,0.2,0.2,0.3c0,0.1,0.1,0.2,0.1,0.2c0,0,0,0,0,0c0,0,0,0-0.1,0
		c0.1,0.3,0.3,0.6,0.4,0.9c0,0.1,0.1,0.2,0.1,0.3l0-0.1c0,0.1,0.1,0.1,0.1,0.2c0,0,0,0,0,0c0.2,0.2,0.1,0.5,0.3,0.6l0.1,0
		c0,0.1,0,0.1,0,0.1c0.1,0,0.1,0.2,0.1,0.2c0,0,0,0,0,0c0,0.1,0.2,0.2,0.2,0.3l0,0c0,0.2,0.1,0.4,0.1,0.6c-0.2-0.7-0.4-1.3-0.7-2
		l1.3,5.2c0-0.3,0-0.5-0.1-0.8c0,0.1,0.1,0.2,0.1,0.3c0.1,0.3,0.3,0.4,0.3,0.4c-0.1-0.9-0.2-1.6-0.3-2.5
		C355.4,207.4,355.2,207,355.2,206.8z M346.4,174.3C346.4,174.3,346.4,174.3,346.4,174.3c0,0,0,0.1,0,0.1c0,0,0,0,0,0c0,0,0,0,0,0
		c0,0,0,0,0,0.1C346.4,174.5,346.4,174.4,346.4,174.3z M346.6,175.3C346.6,175.3,346.6,175.3,346.6,175.3
		C346.6,175.3,346.6,175.3,346.6,175.3C346.6,175.3,346.6,175.3,346.6,175.3z M355.1,208.2c0-0.1,0-0.2-0.1-0.3
		C355.1,207.9,355.1,208,355.1,208.2C355.2,208.1,355.2,208.2,355.1,208.2z M355.2,208.4c0,0.2,0.1,0.3,0.1,0.5
		C355.2,208.7,355.2,208.6,355.2,208.4z M346.5,176.7C346.5,176.7,346.5,176.7,346.5,176.7c-0.1,0-0.1,0.1-0.1,0.1c0,0-0.1,0-0.1,0
		C346.5,176.9,346.5,176.8,346.5,176.7C346.5,176.7,346.5,176.7,346.5,176.7z M346.5,176.6C346.5,176.6,346.5,176.6,346.5,176.6
		C346.5,176.6,346.5,176.6,346.5,176.6C346.5,176.6,346.5,176.6,346.5,176.6z M346.6,177.2l-0.1-0.2
		C346.5,177.1,346.6,177.2,346.6,177.2z M346.6,177.9C346.6,177.9,346.6,177.9,346.6,177.9C346.6,177.9,346.6,177.8,346.6,177.9z
		 M346.5,173.8C346.5,173.8,346.5,173.8,346.5,173.8C346.5,173.9,346.5,173.7,346.5,173.8z M346.5,176.7
		C346.5,176.7,346.5,176.7,346.5,176.7C346.5,176.7,346.5,176.7,346.5,176.7z M350.9,195.7C350.9,195.6,350.9,195.7,350.9,195.7
		C350.9,195.7,350.8,195.6,350.9,195.7z M351.6,198.1L351.6,198.1L351.6,198.1L351.6,198.1z M350.8,195.3
		C350.8,195.2,350.8,195.2,350.8,195.3C350.8,195.2,350.8,195.2,350.8,195.3z M346.9,179.4c0,0,0-0.1,0-0.1
		C346.8,179.2,346.9,179.3,346.9,179.4z M346.8,178.8C346.8,178.8,346.8,178.9,346.8,178.8C346.9,178.9,346.8,178.8,346.8,178.8z
		 M349.8,190.8L349.8,190.8L349.8,190.8L349.8,190.8z M350.4,193.4C350.4,193.4,350.4,193.4,350.4,193.4
		C350.4,193.4,350.4,193.4,350.4,193.4C350.4,193.4,350.4,193.4,350.4,193.4z M381.6,181.9c0-0.1,0-0.1,0-0.1
		C381.6,182.1,381.6,181.8,381.6,181.9z M381.9,185.9C381.9,185.9,381.9,185.9,381.9,185.9C381.9,185.9,381.9,185.9,381.9,185.9
		C381.9,185.9,382,185.9,381.9,185.9z M389.6,212.9C389.6,212.9,389.6,212.9,389.6,212.9C389.6,212.9,389.5,212.8,389.6,212.9z
		 M382.8,189.8c0-0.1,0-0.1,0-0.2C382.7,189.6,382.8,189.8,382.8,189.8z M387.5,205.9L387.5,205.9L387.5,205.9L387.5,205.9z
		 M390.8,216.5L390.8,216.5L390.8,216.5L390.8,216.5z M382.2,187.7C382.2,187.7,382.2,187.7,382.2,187.7
		C382.2,187.8,382.2,187.8,382.2,187.7z M381.9,186.2C381.9,186.3,381.9,186.2,381.9,186.2c0,0.1,0,0,0-0.2c0,0,0,0,0,0
		c0,0,0,0-0.1,0C381.9,186.1,381.9,186.2,381.9,186.2z M389.5,212.4C389.5,212.3,389.4,212.3,389.5,212.4
		C389.4,212.3,389.4,212.3,389.5,212.4z M381.9,186.1C381.9,186,381.9,186,381.9,186.1C381.9,186,381.9,186,381.9,186.1z
		 M388.7,209.8C388.7,209.8,388.7,209.8,388.7,209.8C388.7,209.8,388.7,209.8,388.7,209.8C388.7,209.8,388.7,209.8,388.7,209.8z
		 M382.3,187.8c0,0,0,0.1,0,0.1C382.3,187.9,382.3,187.8,382.3,187.8z M383.1,190.5C383.1,190.5,383.1,190.5,383.1,190.5
		L383.1,190.5C383,190.6,383.1,190.6,383.1,190.5z M382.1,186.8l-0.1-0.3C382,186.6,382.1,186.8,382.1,186.8z M382.6,189.1
		C382.6,189.1,382.6,189.1,382.6,189.1C382.6,189.1,382.6,189.1,382.6,189.1z M396.8,233.5c-0.5-1.1-0.8-2.1-1.1-3.3
		c-0.1-0.4-0.3-0.9-0.4-1.2c-0.5-1.5-0.9-3-1.4-4.5c0,0,0,0,0,0l-12.3-42.3c0,0,0-0.1,0-0.1c0,0,0,0-0.1,0l-0.1-0.4
		c0,0.2,0,0.4,0.1,0.6l0,0c0,0.1,0,0.2,0,0.1l0,0.1l0,0c0,0.2,0,0.4,0.1,0.7l0-0.1c0,0.1,0,0.1,0.1,0.2c0,0,0,0.1,0,0.1
		c0,0,0,0,0,0.1c0-0.1,0,0-0.1,0c0,0,0,0.1,0,0.1l-0.1-0.1c0.1,0,0.1,0.4,0.1,0.5l0,0c0,0.2,0,0,0.1,0.1c0,0.1-0.1,0.1-0.1,0.2
		c0,0.2,0.2,0.6,0.2,0.8c0.1,0.2,0.1,0.4,0.2,0.6c0,0.2-0.1,0,0,0.2c0,0-0.1,0-0.1,0c0,0,0.1,0.3,0.1,0.2c0,0.3,0.1,0.5,0.2,0.8
		c0-0.1-0.1-0.1-0.1,0c0.1,0.1,0.2,0.3,0.2,0.5c0.1,0,0-0.1,0.1-0.1c0,0,0.1,0.1,0.1,0.1c0,0-0.1,0.1-0.1,0.3
		c-0.1,0-0.1-0.3-0.1-0.2c-0.1-0.1-0.2-0.4-0.2-0.5c-0.1-0.2,0,0.1-0.1,0.1c0,0.2,0.1,0.2,0.2,0.5c0,0,0-0.1,0.1,0
		c0.1,0.2,0,0.3,0,0.3l0-0.1c0,0.2,0.1,0.2,0.1,0.3c-0.1,0.1-0.1-0.2-0.2-0.3l0,0.1c0.1,0.2,0.1,0,0.1,0.3l0,0l0.1,0.1
		c0,0,0.1-0.1,0-0.2c0.1,0.1,0,0.1,0.1,0.3c0.1,0.1,0-0.1,0-0.1c0,0,0.1,0.1,0.1,0.2c0,0.2,0,0.1,0,0.2c0,0-0.1-0.2,0-0.2
		c-0.1-0.2-0.1,0.1-0.2,0c0,0.2,0.1,0.1,0.1,0.2c0-0.1,0.1,0,0.1,0c0.2,0.2-0.1,0.2,0,0.5c0.1-0.1,0.2,0.3,0.3,0.1
		c0,0.1,0.1,0.1,0.1,0.2c-0.1-0.1,0,0.1-0.1,0l0,0.1l-0.1-0.1c0,0.1,0,0.3,0,0.4c0.1,0.1,0-0.1,0.1,0.1c0,0,0,0.1,0,0.1
		c0-0.2,0.1,0,0.1,0.1c0,0.1,0,0.3,0,0.3l-0.1-0.1c0.1,0.1,0,0.1,0,0.2c0,0,0.1,0.1,0.2,0.1c0,0.1,0,0.2,0,0.2l-0.1-0.1
		c0.1,0.2-0.1,0.1,0,0.3l0.1,0c0,0,0,0.1,0,0c0,0,0.1,0.1,0.1,0.2l0,0c0,0.1,0.1,0.2,0.1,0.3c0.1-0.1,0-0.1,0-0.2
		c0-0.1,0.1,0.1,0.1,0.2c-0.1,0,0.1,0.2,0.1,0.3c0,0.1,0,0.1,0,0.2l0.1,0c-0.1,0.1,0.1,0.2,0.1,0.3c0,0-0.1,0-0.1,0.1
		c0-0.1,0.1,0.1,0.2,0.1c0,0.2-0.1,0-0.2,0.1c0.1,0.1,0,0.2,0.1,0.3c0-0.2,0.1,0,0.1,0c0,0.2,0,0,0,0.1c0,0.1,0.1,0.2,0.1,0
		c0,0.1,0.1,0.2,0.1,0.3c0,0.1-0.1-0.2-0.1-0.1c0.1,0.3,0.2,0.1,0.2,0.3c0-0.1,0.1,0,0.2,0.1c0.1,0.3-0.1-0.1-0.1,0l0,0.1
		c0,0.2-0.2-0.3-0.3-0.1l0.1,0.1c0,0-0.1,0-0.1,0c0.1,0,0.1,0.3,0.1,0.3c0.1,0,0-0.1,0-0.1c0,0.1,0.1,0.1,0.2,0.3
		c-0.1-0.1-0.1,0.1-0.1,0c0,0.1,0.1,0,0.1,0.1l0,0c0.1,0.5,0.3,1.1,0.5,1.5c0,0.1,0,0.2,0,0.5c0-0.1,0.1,0,0.1,0l0,0.1
		c0,0.1,0.1,0.3,0.2,0.4c0,0,0,0,0,0c0,0.1,0.1,0.1,0.1,0.2l0,0.1l0,0c0.1,0.1,0.1,0.3,0,0.3c0,0,0.1,0.1,0.1,0
		c0,0.1,0.1,0.5,0.2,0.7c0-0.1,0-0.1,0-0.1c0.1,0,0,0.1,0.1,0.1c0,0,0,0.1-0.1,0c0,0.3,0.2,0.7,0.3,1.1c0,0.1,0,0,0.1,0.1
		c0,0.3,0.1,0.5,0.2,0.8c0-0.1,0.1,0,0.2,0.1c0.1,0.1-0.1,0.1-0.1,0.2c0,0.1,0.1,0.2,0.1,0.2l0,0c0.1,0.1,0.1,0.2,0.1,0.3l0,0
		c0,0.1,0,0.2,0,0.3c0.1,0,0.1,0.2,0.2,0.3c0,0,0,0,0,0l0,0l0,0.2c0,0-0.1,0-0.1-0.1c0,0.2,0.1,0,0.1,0.1c0.1,0.1,0,0.1,0,0.2
		c0,0,0-0.1,0-0.1c-0.1-0.1,0,0.1,0,0.1c0,0,0.1,0,0.1,0.1c0,0.1,0.1,0.3,0,0.3c0,0.1,0.1,0.1,0.1,0.2c0-0.1,0-0.2,0-0.2
		c0,0.1,0.1,0.2,0.1,0.2l0,0c0,0,0.1,0.2,0.1,0.1l0,0.1c0.1,0,0.1,0.2,0.1,0.3c0,0-0.1,0-0.1,0.1l0.1,0.2c0,0.1,0,0.1,0,0.1
		c0.1,0.3,0.2,0.3,0.2,0.5c-0.1-0.1-0.1,0-0.1,0.1c0,0,0,0,0,0c0,0-0.1,0,0-0.1c0,0,0.1,0.1,0.1,0.1c-0.1,0.2,0.2,0.7,0.2,1.1
		c0.1,0,0.1,0.1,0.1,0.2c-0.1,0,0.1,0.2,0,0.3l0.1-0.1c0,0.2,0.2,0.3,0.2,0.5c0,0.1-0.1,0-0.1-0.1c0,0.2,0.2,0.4,0.1,0.6
		c0,0,0.1-0.1,0.1,0.1c0,0.1,0,0.4,0,0.3c0,0.1,0.1,0.1,0.1,0.2c0,0,0,0-0.1-0.1c0,0.2,0.1,0.3,0.2,0.4c0,0.1,0.1,0.4,0.1,0.6
		c0.1,0.1,0.1,0.3,0.2,0.3c0,0,0,0,0,0c0,0.1,0.1,0.1,0.2,0.2l-0.1,0c-0.1,0,0.1,0.3,0,0.3c0-0.1,0,0.1,0.1,0.1l0,0.1
		c0.1,0.2,0,0,0.1,0.2c0,0.1-0.1,0.1-0.1,0c0,0.1,0,0.2,0.1,0.3c0,0,0,0,0,0c0,0,0,0,0,0c0,0,0,0.1,0,0.1c0,0,0,0,0,0
		c0,0,0-0.1,0-0.1c0,0,0,0.1,0,0.1c0,0,0,0,0,0c0,0,0,0.1,0,0.1l-0.1,0c0,0.1,0.1,0.2,0.1,0.2c0,0.3,0.2,0.7,0.3,0.9c0,0,0,0,0,0
		c0,0.1,0.1,0.2,0.1,0.2c0,0.1,0,0.1,0,0.2c0,0,0.1,0,0,0c0,0.3,0.2,0.5,0.2,0.8c0,0,0,0-0.1-0.1c0.1,0.2,0.2,0.4,0.3,0.6
		c0,0,0,0-0.1-0.1c0,0.2,0.1,0.3,0.2,0.4c0-0.1,0,0,0-0.1c0-0.1,0.1,0.1,0.1,0.2l0,0c0,0.2,0.1,0.2,0.1,0.3c0,0.1,0-0.1-0.1,0
		c-0.1,0.1,0.1,0.4,0.1,0.4c0,0,0.1,0.1,0.1,0.1c0.1,0.1,0,0.1,0,0.1l0.2,0.3c0,0,0,0,0,0c0,0,0,0.1-0.1,0c0.1,0.2,0.1,0.3,0.2,0.3
		c0.1,0.2,0.1,0.4,0.2,0.6c0,0,0,0.1-0.1,0c0.1,0.1,0.1,0.4,0.2,0.7c0-0.2,0.1,0.2,0.2,0.2c0,0,0,0.1,0,0.1c0,0-0.1,0,0,0.1
		c0.1,0.2,0.2,0.5,0.2,0.7c0,0,0,0,0,0c0.1,0.2,0.2,0.5,0.3,0.7c0,0,0,0,0,0c0,0,0,0-0.1,0c0,0.1,0.1,0.1,0.1,0.1c0,0,0,0.1,0,0.1
		l0,0c0.1,0.1,0.1,0.3,0.2,0.5l0,0c0,0,0,0-0.1,0c0.1,0.1,0.1,0.3,0.2,0.4c0,0,0,0.1,0,0.1c0,0,0,0-0.1-0.1c0,0.1,0.1,0.2,0.1,0.2
		c0,0,0,0.1,0,0.1c0,0,0,0.1,0,0.1c0,0,0.1,0.2,0.1,0.3c0,0,0,0.1,0,0.1c0,0,0,0.1,0,0.2c0.2,0.8,0.5,1.6,0.8,2.3c0,0,0,0.1,0,0.1
		c0,0.1-0.1-0.2-0.1-0.1c0.1,0,0.1,0.1,0.2,0.4l0,0c0,0.1,0,0.2,0.1,0.3l0,0c0.1,0.1,0,0.3,0.1,0.3l0,0.1c0.1,0.1,0,0.2,0.1,0.3l0,0
		c0,0.2,0.2,0.4,0.2,0.5c0.1,0.1,0.1,0.3,0.2,0.3l0,0.1c0,0,0,0-0.1,0c0.2,0.4,0.3,0.9,0.5,1.3c0.4,1.2,0.8,2.3,1.1,3.4
		c0.1,0.4,0.2,0.8,0.4,1.1c0.1,0.2,0.1,0.3,0.2,0.5c0,0,0,0,0,0c0,0.1,0.1,0.1,0.1,0.2c0.3,0.9,0.6,1.7,0.9,2.5l-0.2-0.8
		c0,0,0,0.1,0.1,0.1C396.6,233.4,396.8,233.5,396.8,233.5z M381.6,182.7C381.6,182.7,381.6,182.7,381.6,182.7c0,0.1,0,0.1,0,0.2
		c0,0,0,0,0,0c0,0,0,0,0,0c0,0,0,0.1,0,0.1C381.6,182.9,381.6,182.7,381.6,182.7z M381.8,184.1C381.8,184.1,381.8,184.1,381.8,184.1
		C381.8,184.1,381.8,184.1,381.8,184.1C381.8,184.1,381.8,184.1,381.8,184.1z M381.7,218c-0.3-0.8-0.4-1.7-0.7-2.6
		c0,0.1-0.1,0-0.1,0l0,0l-0.1-0.1c0-0.1,0-0.1,0.1,0c-0.1-0.3-0.2-0.6-0.3-1c-0.1,0-0.1-0.2-0.1-0.2c0,0,0,0,0,0
		c-0.1-0.2-0.1-0.2-0.1-0.5c-0.2-0.9-0.5-1.8-0.7-2.7c-0.3-0.9-0.6-1.8-0.9-2.7c-0.1-0.1-0.2-0.3-0.3-0.5l0,0
		c-0.1-0.1,0-0.2-0.1-0.4c0,0,0-0.1-0.1,0c-0.1,0,0-0.1,0-0.2c0,0,0,0,0,0c-0.1-0.2,0,0,0-0.3c-0.1-0.4-0.3-0.8-0.4-1.2
		c0,0,0,0.1,0,0c0.1-0.1-0.1-0.1-0.1-0.2c0,0,0,0,0.1,0c0-0.2-0.1-0.3-0.1-0.5c-0.1-0.1-0.1-0.4-0.2-0.5c0,0,0-0.1,0-0.1
		c-0.2-0.1-0.1-0.3-0.2-0.4l0,0c-0.1-0.4-0.3-0.9-0.5-1.4c-0.1-0.3-0.1-0.6-0.3-0.8c0,0,0,0-0.1,0c0-0.1,0,0,0,0
		c-0.1-0.1-0.1-0.3-0.2-0.5c0,0-0.1-0.1-0.1,0c0-0.2-0.2-0.4-0.2-0.7c-0.1,0.1-0.1-0.1-0.1-0.1c0,0,0-0.1,0,0
		c-0.1-0.1-0.1-0.2-0.1-0.4c0-0.1-0.1-0.1-0.1-0.2c0-0.1-0.1-0.2-0.1-0.3c0,0-0.1-0.1-0.2-0.2l0.1,0c-0.2-0.3-0.3-0.7-0.5-1.1l0,0
		c-0.2-0.3-0.3-0.7-0.5-1c0-0.1-0.1-0.3-0.1-0.4c-0.1-0.1-0.1-0.2-0.2-0.2c0,0,0-0.1,0-0.1c-0.1-0.2-0.1-0.3-0.2-0.4l0,0
		c-0.1-0.1-0.2-0.3-0.2-0.4c-0.1,0-0.1-0.2-0.1-0.1c0-0.1,0.1-0.1,0-0.1l0.1,0c-0.1-0.3-0.3-0.6-0.4-0.9c0-0.1-0.1-0.3-0.2-0.5
		c-0.1-0.1-0.1-0.3-0.2-0.3l0,0c-0.1-0.1-0.1-0.3-0.2-0.5c0-0.1-0.1-0.1-0.2-0.2l0,0c-0.1-0.1-0.1-0.1-0.2-0.1c0,0,0,0,0,0
		c0,0,0-0.1,0-0.1c0.1,0.1,0.1,0.1,0.2,0.1c0-0.1-0.2-0.2-0.2-0.3c0-0.1-0.1-0.2-0.1-0.1c0,0,0-0.1,0,0c0-0.1-0.1-0.1-0.1-0.1
		c0,0,0,0,0,0c0,0-0.1-0.1-0.1,0c0,0,0-0.1,0-0.1c0,0,0.1,0.1,0.1,0l-0.2-0.1c-0.1-0.2-0.2-0.3-0.2-0.3l0.1,0.4c0,0,0,0,0,0l0,0l0,0
		l0,0c0.1,0.1,0.1,0.2,0.1,0.3l0.1,0.2h0c0,0,0,0,0,0l0.1,0.3c0,0,0,0,0,0c0,0,0.1,0.1,0.1,0.1l0.3,0.7l0,0l0,0l0.1,0.4l-0.1-0.1
		c0,0.1,0.1,0.1,0.1,0.1l0.1,0.4c-0.1-0.1-0.1-0.2-0.1-0.2c-0.1-0.1,0,0.1,0,0.1c0,0.1,0.1,0.1,0.2,0.2c0,0,0,0,0,0l0,0
		c0,0,0,0.1,0,0.1c0,0,0,0,0-0.1l0,0.1l0,0c0,0,0,0.1,0,0.1l0,0.1c0,0,0-0.1-0.1-0.1l0,0.1c0,0.1,0.1,0,0.1,0.1l0,0l0.1,0.1
		c0,0,0,0,0,0l0.1,0.2c0,0,0,0-0.1,0c0,0.1,0.1,0.1,0.1,0.1l0.1,0.3c0,0,0,0,0,0l8,22.4c0,0,0,0.1,0,0.1l0.2,0.5c0,0,0,0,0,0
		c0,0,0,0.1,0,0.1l0.1,0.3c0-0.1-0.1-0.2-0.1-0.3c0.2,0.3,0.2,0.8,0.4,1c0.1,0.3,0.3,0.3,0.3,0.3c-0.3-0.6-0.4-1.2-0.5-1.9
		C381.8,218.4,381.7,218.2,381.7,218z M372.2,192.5C372.2,192.5,372.2,192.5,372.2,192.5C372.2,192.5,372.2,192.5,372.2,192.5
		C372.2,192.5,372.2,192.5,372.2,192.5z M378.8,209.8C378.8,209.8,378.8,209.8,378.8,209.8L378.8,209.8
		C378.8,209.8,378.8,209.8,378.8,209.8z M379,210.3L379,210.3C379,210.3,379,210.3,379,210.3c-0.1,0-0.1-0.2-0.1-0.3
		c0,0,0.1,0.1,0.1,0.1C379,210.1,379,210.3,379,210.3C379,210.4,379.1,210.3,379,210.3z M379.1,210.9
		C379.1,210.9,379.1,210.9,379.1,210.9C379.1,210.8,379.1,210.8,379.1,210.9C379.2,210.9,379.2,210.9,379.1,210.9z M379.4,211.8
		C379.4,211.8,379.4,211.8,379.4,211.8C379.4,211.8,379.4,211.8,379.4,211.8C379.4,211.8,379.4,211.8,379.4,211.8z M379.4,211.9
		C379.4,211.9,379.4,211.8,379.4,211.9C379.4,211.8,379.5,211.8,379.4,211.9L379.4,211.9z M379.5,212.1
		C379.5,212.1,379.5,212.1,379.5,212.1C379.5,212.1,379.5,212.1,379.5,212.1C379.5,212.1,379.5,212.1,379.5,212.1z M379.6,212.4
		C379.6,212.4,379.6,212.4,379.6,212.4C379.6,212.3,379.6,212.4,379.6,212.4C379.6,212.4,379.6,212.4,379.6,212.4z M379.6,212.5
		C379.6,212.5,379.6,212.5,379.6,212.5C379.6,212.5,379.6,212.5,379.6,212.5C379.6,212.5,379.6,212.5,379.6,212.5z M379.7,212.8
		C379.7,212.8,379.7,212.8,379.7,212.8C379.7,212.8,379.7,212.8,379.7,212.8C379.7,212.8,379.7,212.8,379.7,212.8z M380.1,214.3
		C380.1,214.3,380.1,214.2,380.1,214.3C380.1,214.2,380.1,214.3,380.1,214.3C380.1,214.3,380.1,214.3,380.1,214.3z M380.5,215.5
		C380.5,215.5,380.5,215.5,380.5,215.5C380.5,215.5,380.5,215.5,380.5,215.5C380.5,215.5,380.5,215.5,380.5,215.5z M380.7,216.3
		c0,0.1,0.1,0.2,0.1,0.3c0,0,0,0,0,0c0.1,0.2,0.1,0.4,0.2,0.5l0.1,0c0,0.1,0,0.1-0.1,0.1c0,0,0.1,0.2,0.1,0.2c0,0,0,0,0,0
		c0,0.1,0.1,0.2,0.1,0.3l0,0c0,0.2,0,0.4,0.1,0.6C381.1,217.6,380.9,216.9,380.7,216.3z M381.6,219.1c0-0.1-0.1-0.2-0.1-0.3
		C381.6,218.9,381.6,219,381.6,219.1C381.7,219.1,381.6,219.1,381.6,219.1z M377.7,205.1C377.7,205.1,377.7,205.1,377.7,205.1
		C377.8,205.1,377.8,205.1,377.7,205.1L377.7,205.1z M372.1,192.1C372.1,192.1,372.1,192.1,372.1,192.1
		C372.1,192.2,372.1,192.1,372.1,192.1z M372.1,191.9C372.1,191.9,372.1,191.9,372.1,191.9C372.1,192,372,191.9,372.1,191.9z
		 M372.3,192.4C372.3,192.4,372.3,192.5,372.3,192.4C372.3,192.4,372.3,192.4,372.3,192.4z M372.7,194.2
		C372.7,194.1,372.7,194.1,372.7,194.2C372.7,194.1,372.7,194.1,372.7,194.2C372.7,194.1,372.7,194.1,372.7,194.2z M373,195.1
		C373,195.1,373,195.1,373,195.1C373,195.2,373,195.2,373,195.1z M372.7,194.2C372.7,194.2,372.7,194.2,372.7,194.2
		C372.7,194.2,372.7,194.2,372.7,194.2z M372.7,194.3C372.7,194.3,372.7,194.3,372.7,194.3c0,0.1,0,0,0-0.1c0,0,0,0,0,0
		c0,0,0,0-0.1,0C372.7,194.2,372.7,194.3,372.7,194.3z M376.1,200.4C376.1,200.4,376,200.4,376.1,200.4
		C376,200.4,376.1,200.4,376.1,200.4C376.1,200.5,376.1,200.4,376.1,200.4z M381.8,219.5c0.1,0.4,0.3,0.8,0.4,1.1L381.8,219.5z
		 M362.3,191.7C362.3,191.7,362.3,191.8,362.3,191.7C362.3,191.8,362.3,191.7,362.3,191.7z M362.2,191.5
		C362.2,191.5,362.2,191.5,362.2,191.5C362.2,191.6,362.2,191.4,362.2,191.5z M363.5,196.6C363.5,196.6,363.5,196.7,363.5,196.6
		C363.6,196.7,363.5,196.7,363.5,196.6z M363.7,197.2c0,0,0-0.1,0-0.1C363.6,197,363.7,197.1,363.7,197.2z M368.4,209
		C368.4,209,368.4,209,368.4,209C368.4,209,368.4,209,368.4,209L368.4,209z M366.4,202.9C366.4,202.9,366.4,202.9,366.4,202.9
		C366.4,202.9,366.4,202.9,366.4,202.9L366.4,202.9z M363.9,197.7C363.9,197.7,363.9,197.7,363.9,197.7L363.9,197.7
		C363.9,197.7,363.9,197.7,363.9,197.7z M362.8,194.4C362.8,194.5,362.8,194.5,362.8,194.4C362.9,194.5,362.8,194.4,362.8,194.4z
		 M363.3,195.7c-0.1,0,0,0.1,0,0.1C363.3,195.8,363.3,195.8,363.3,195.7z M363.2,195.7C363.2,195.7,363.1,195.7,363.2,195.7
		C363.2,195.7,363.2,195.7,363.2,195.7z M373,225.8c-0.2-1.1-0.4-2.3-0.7-3.4c0,0.1-0.1,0-0.1,0l0,0l-0.1-0.1c0-0.1,0-0.1,0.1,0
		c-0.1-0.5-0.2-0.9-0.3-1.3c-0.1,0-0.1-0.2-0.1-0.2c0,0,0,0,0,0c-0.1-0.3-0.1-0.3-0.1-0.6c-0.3-1.2-0.6-2.3-0.9-3.5
		c-0.3-1.2-0.7-2.3-1.1-3.5c-0.2-0.2-0.2-0.4-0.3-0.6l0,0c-0.1-0.2-0.1-0.2-0.1-0.5c0,0,0-0.1-0.1,0c-0.1-0.1,0-0.2,0-0.3
		c0,0,0,0,0,0c-0.2-0.3,0.1,0,0-0.4c-0.2-0.5-0.4-1.1-0.5-1.6c0,0,0,0.1,0,0c0.1-0.1-0.1-0.2-0.1-0.3c0,0,0,0,0.1,0.1
		c0-0.2-0.2-0.4-0.2-0.7c-0.1-0.2-0.1-0.5-0.2-0.6c0,0,0-0.1,0-0.2c-0.2-0.1-0.1-0.4-0.2-0.6h0c-0.2-0.6-0.4-1.2-0.6-1.8
		c-0.1-0.3-0.1-0.7-0.3-1.1c0-0.1,0,0-0.1-0.1c0-0.1,0,0,0-0.1c-0.1-0.2-0.1-0.4-0.2-0.6c0,0-0.1-0.1-0.1-0.1c0-0.3-0.2-0.6-0.3-0.9
		c-0.1,0.1-0.1-0.1-0.2-0.2c0-0.1,0-0.1,0-0.1c-0.1-0.2-0.1-0.3-0.2-0.5c0-0.1-0.1-0.1-0.1-0.2c0-0.1-0.1-0.3-0.1-0.4
		c0,0.1-0.1-0.1-0.2-0.2l0.1,0c-0.2-0.4-0.3-1-0.5-1.4l0-0.1c-0.2-0.5-0.3-0.9-0.6-1.4c0-0.1-0.1-0.3-0.1-0.5
		c-0.1-0.2-0.1-0.2-0.2-0.3c0-0.1,0-0.1,0-0.1c-0.1-0.2-0.1-0.4-0.2-0.6l0,0c-0.1-0.2-0.2-0.4-0.3-0.6c-0.1,0-0.1-0.2-0.2-0.1
		c0-0.1,0.1-0.1,0-0.1l0.1,0c-0.1-0.4-0.3-0.8-0.5-1.2c0-0.1-0.1-0.4-0.2-0.6c-0.1-0.1-0.1-0.4-0.2-0.4l0,0
		c-0.1-0.2-0.1-0.4-0.2-0.7c0-0.1-0.1-0.1-0.2-0.2l0,0c-0.1-0.1-0.1-0.1-0.2-0.1c0,0,0,0,0-0.1c0-0.1,0-0.1,0-0.2
		c0.1,0.1,0.1,0.1,0.2,0.2c0-0.2-0.2-0.3-0.2-0.4c0-0.1-0.1-0.2-0.1-0.2c0,0,0-0.1,0.1,0c0-0.1-0.1-0.1-0.1-0.2c0,0,0,0,0,0.1
		c0,0-0.1-0.1-0.1-0.1c0,0,0-0.1,0-0.1c0,0,0.1,0.1,0.1,0l-0.2-0.2c-0.1-0.1-0.1-0.3-0.2-0.4l0.1,0.4l0,0c0,0,0,0,0,0l0,0.1
		c0,0,0,0,0,0l0.1,0.1l0,0l0,0c0.1,0.2,0.1,0.3,0.2,0.5l0,0l0.1,0.2c0,0,0,0,0,0c0,0,0,0,0,0l0,0.1l-0.1,0c0,0,0.1,0,0.1,0.1
		l0.1,0.2l0,0c0,0.1,0,0.1,0,0.1l0,0.1c0,0,0,0,0,0.1c0.1,0.2,0.2,0.4,0.2,0.6c0,0.1,0.1,0.1,0.1,0.2l0.1,0.4c0,0,0,0,0,0
		c0,0,0.1,0.2,0.1,0.1l0.1,0.5c0,0,0,0,0,0c0,0,0,0,0.1,0.1l0.1,0.4c0,0,0,0,0,0c-0.1,0-0.2-0.3-0.2-0.4c-0.1-0.1,0,0.1-0.1,0.1
		c0,0.1,0.1,0.2,0.2,0.3c0,0,0-0.1,0.1,0c0,0,0,0,0,0l0,0.1c0,0,0,0.1,0,0.1l0-0.1c0,0.1,0.1,0.1,0.1,0.2c-0.1,0.1-0.1-0.2-0.1-0.2
		l0,0.1c0.1,0.2,0.1,0,0.1,0.2l0,0l0.1,0.1c0,0,0.1-0.1,0-0.1c0.1,0,0,0.1,0.1,0.2c0,0,0,0,0,0l0,0.1c-0.1-0.1-0.1,0.1-0.1,0
		c0,0.1,0.1,0.1,0.1,0.2c0,0,0.1,0,0.1,0l0.1,0.2c0,0-0.1,0.1,0,0.2c0,0,0,0,0.1,0l0.1,0.3c0,0.1,0,0.2,0,0.2c0.1,0.1,0,0,0.1,0l0,0
		c0,0,0,0.1,0,0.1c0-0.1,0-0.1,0-0.1l0.1,0.3c0,0,0,0,0,0l-0.1-0.1c0.1,0.1,0,0,0,0.1c0,0,0,0,0.1,0l0,0.2c0,0-0.1,0,0,0.1l0.1,0
		l0,0c0,0,0,0,0,0c0,0,0.1,0.1,0.1,0.1l0,0l0,0c0,0,0,0,0,0l9.1,31c0-0.3-0.1-0.6-0.1-0.9c0,0.1,0.1,0.3,0.1,0.4
		c0.1,0.4,0.3,0.4,0.3,0.4c-0.2-0.9-0.2-1.7-0.3-2.5C373.1,226.5,373,226.1,373,225.8z M362.4,192.3
		C362.4,192.3,362.4,192.3,362.4,192.3C362.4,192.3,362.4,192.3,362.4,192.3C362.4,192.3,362.4,192.3,362.4,192.3z M369.9,215.1
		C369.9,215.1,369.9,215.1,369.9,215.1L369.9,215.1C369.9,215.1,369.9,215.1,369.9,215.1z M370.1,215.7l0,0.1
		C370.1,215.8,370.1,215.8,370.1,215.7c-0.1-0.1-0.1-0.2-0.2-0.3c0,0,0.1,0.1,0.1,0.1C370.1,215.5,370.2,215.7,370.1,215.7
		C370.2,215.8,370.2,215.7,370.1,215.7z M370.3,216.4C370.3,216.4,370.3,216.4,370.3,216.4C370.3,216.5,370.3,216.5,370.3,216.4
		C370.3,216.5,370.3,216.4,370.3,216.4z M370.6,217.6C370.6,217.6,370.6,217.6,370.6,217.6C370.6,217.6,370.6,217.6,370.6,217.6
		C370.6,217.6,370.6,217.6,370.6,217.6z M370.7,217.8C370.7,217.7,370.7,217.7,370.7,217.8C370.7,217.7,370.7,217.7,370.7,217.8
		L370.7,217.8z M370.8,218.4C370.8,218.4,370.8,218.4,370.8,218.4C370.8,218.4,370.8,218.4,370.8,218.4
		C370.9,218.4,370.8,218.4,370.8,218.4z M371,219C371,218.9,371,218.9,371,219C371,218.9,371,218.9,371,219C371,219,371,219,371,219
		z M371.5,220.9C371.5,220.9,371.5,220.9,371.5,220.9C371.5,220.9,371.5,220.9,371.5,220.9C371.5,220.9,371.5,220.9,371.5,220.9z
		 M371.9,222.5C371.9,222.5,371.9,222.5,371.9,222.5C371.9,222.5,371.9,222.5,371.9,222.5C371.9,222.5,371.9,222.5,371.9,222.5z
		 M372.1,223.6c0,0.1,0.1,0.2,0.1,0.3c0,0,0,0,0,0c0.1,0.2,0,0.5,0.2,0.7l0.1,0.1c0,0.1,0,0.1-0.1,0.1c0,0,0.1,0.2,0.1,0.3
		c0,0,0,0,0,0c0,0.1,0.1,0.2,0.1,0.4l0,0c0,0.2,0,0.4,0,0.7C372.5,225.2,372.3,224.4,372.1,223.6z M372.8,227c0,0.1,0.1,0.2,0.1,0.2
		c0,0.1,0,0.1,0,0.1C372.9,227.2,372.8,227.1,372.8,227z M372.9,227.5c0.1,0.2,0.1,0.4,0.1,0.6C373,227.9,372.9,227.7,372.9,227.5z
		 M362.9,194.5c0,0,0,0.1,0,0.1c0,0-0.1,0,0,0C362.9,194.7,362.9,194.6,362.9,194.5C362.9,194.5,362.9,194.5,362.9,194.5
		C362.9,194.5,362.9,194.5,362.9,194.5z M363,194.8c0,0.1,0.1,0.2,0.1,0.2L363,194.8z M362.9,194.4
		C362.9,194.4,362.8,194.4,362.9,194.4C362.8,194.4,362.9,194.4,362.9,194.4C362.9,194.4,362.9,194.4,362.9,194.4z"/>
	<path class="st420" d="M338.4,172.5c0,0,2.5-7.9,13-9.2c10.5-1.3,20,13,33.5,6.5L369.2,115c0,0-1.1-5.1-5.4-5.6
		c-4.3-0.5-24.6-4.8-24.6-4.8S328.1,133.8,338.4,172.5z"/>
	<g>
		<path class="st421" d="M337.4,133.3c0,0-1.2,2.2,0,5.7c2.8,8.2,8.9,24,17.7,37.4c0,0,1.7-1,2-2c0,0-6.3-17.7-8.5-26.4
			c0,0,6.2,1.7,9.2,1.4c0,0,5,14.5,13.2,26.9l2.2-1.3c0,0-4.9-19.8-5.4-23.6c-0.5-3.8,1.1-10.7-2.7-15L337.4,133.3z"/>
		<path d="M358.3,174c-0.5-0.6-1.4-0.3-1.4-0.3s-1.1,1.8-2.2,2.1c0,0,0.3,0.4-0.1,0.9c-0.3,0.5-3.1,8.3,2.3,8.1
			C361.3,184.6,358.3,174,358.3,174z"/>
		<path d="M374.5,174c-0.5-0.6-1.4-0.3-1.4-0.3s-1.1,1.8-2.2,2.1c0,0,0.3,0.4-0.1,0.9c-0.3,0.5-3.1,8.3,2.3,8.1
			C377.5,184.6,374.5,174,374.5,174z"/>
	</g>
	<g>
		<path class="st422" d="M367.3,111.2c0,0-0.6-2.3,2.7-3.3c5.9-5.3,15.5-22.1,7.6-29.2l-12-13.3c-21,1.7-25.1,19.4-24.2,32.6
			c0.8,11-4,11.9-4,11.9l1.7,3.7l25,6.9L367.3,111.2z"/>
		<path class="st423" d="M380.3,77.6c5.1-13.2-6.9-13.2-11.6-18.4c-7.2-7.8,1.7-13.3,1.7-13.3c-18.9,8.3-14.6,20.7-8.3,27.5
			c4.4,4.7,10.7,6.5,10.7,6.5s-3.2,3.9-3.7,14.1c0.7-1.2,1.8-2.5,3.4-2.5c3,0.1,3.3,5,1,7.2c-1.4,1.4-3.3,1.1-4.4,0.8
			c0.1,2.5,0.4,5.3,0.9,8.4c0,0,7.9-6.5,12-14C386.8,85.2,383.6,78.6,380.3,77.6z"/>
		<path class="st424" d="M347.1,90.8c0,0,8.5,3.6,12.1,6.5c0,0-2.2,7.8-9.6,4.4C342.8,98.7,347.1,90.8,347.1,90.8z"/>
		<path class="st425" d="M352.5,87.4c2.7-1.8,4.9-4.1,6.9-8.9c0,0-3.3,7.5-9.1,8.2c-1,0.3,0.7,1.3,5.5,3.2
			C355.8,89.8,354.1,89.1,352.5,87.4z"/>
		
			<ellipse transform="matrix(0.3996 -0.9167 0.9167 0.3996 139.2238 371.3071)" class="st426" cx="353.1" cy="79.4" rx="2.2" ry="1.5"/>
		
			<ellipse transform="matrix(0.3996 -0.9167 0.9167 0.3996 139.8891 385.487)" class="st426" cx="364.2" cy="86" rx="2.2" ry="1.5"/>
	</g>
	<g>
		<path class="st422" d="M338.5,98.1c0,0-2.7-10-3.7-22.3c-1-12.3,0.3-23.2,1.2-25.3c0.2-1-2.6-1.5-3.9-1.3s-10.6-1.6,1.6,49.4
			L338.5,98.1z"/>
		<polygon class="st25" points="332,97.7 338.8,96.3 340.8,106.7 335.8,113.2 		"/>
	</g>
	<g>
		<path class="st25" d="M339,103.9c0,0,7.5,9.8,28.6,7.4c1.3-0.1-2,12.1,0.2,31.5c0,1.5-15.2,5.5-30-3.3
			C335.3,137.8,332.9,110.9,339,103.9z"/>
		<polygon class="st427" points="343.1,109.2 347.4,111.2 346.8,113.4 345.8,113.8 348,134.9 346.5,140.5 341.3,135.4 343.1,112.9 
			342.3,112.2 		"/>
		<polygon class="st428" points="343.1,109.2 347.5,111 347,113.3 346,113.8 350.6,134.3 348.4,140.3 342.9,135.6 343.3,113 
			342.3,112.2 		"/>
	</g>
	<g>
		<path class="st422" d="M370.4,119.2c0,0,7.9,8.9,5.2,9.4c-2.6,0.5-16-1.4-16.4-1s-1.2,3.2-1.2,4s0.5,2.5,1.1,3s24.4-0.6,24.3-3.1
			c-0.1-2.5-10.4-14.6-10.4-14.6L370.4,119.2z"/>
		<path class="st25" d="M365.6,118.9l5.4,4.3l5.2-5.4c0,0-7-8-9.9-5.5L365.6,118.9z"/>
	</g>
	<g>
		<path class="st429" d="M154.9,181h-19c0,0-1.7-6.7-2.1-8.1c0,0-31.7,0.5-36.9,0c0,0-1.8,7.2-1.8,8.1h-19c0,0,0.5-7.2,0.6-11.9
			c0.1-4.8,0.6-15.9,0.9-19c0.3-3,0.8-21.4,1-25.8c0.3-4.4,1.7-20.4,2.5-26.4c0.8-6,3.8-14.9,7.3-18.5c4.5-4.6,9.9-10,18.5-10.5
			c9.3-0.5,12.2,1.1,18.5,4.6c6.3,3.6,13,11.7,16.9,23.4c3.1,9.3,4.1,15.1,5.7,21.4c1.8,7.4,3.6,22.6,4.1,28.3
			c0.6,5.7,0.9,11.2,1.4,16.7C154.2,170.4,154.9,181,154.9,181"/>
		<path class="st430" d="M99.8,109.6l0.1,0c1.1,0.3,1.9,1.2,1.9,2.4c0,1.7,0.1,4.1,1.2,4.4c1.1,0.4,1.5-1.9,1.7-3.7
			c0.1-1.3,1.2-2.2,2.5-2.1c2.5,0.1,6.3,0.3,9,0.3c1.3,0,2.3,1,2.4,2.2c0.1,1.7,0.4,3.6,1.3,3.4c1-0.3,1.4-2.6,1.5-4.3
			c0.1-1,0.8-1.9,1.8-2.1c1.9-0.4,4.9-1.1,7.5-2c1.7-0.6,3.3,0.8,3.1,2.5c-0.3,2.9-1.1,6.9-3,10c-0.8,1.3-2.8,1.4-3.8,0.2
			c-0.2-0.3-0.5-0.5-0.8-0.5c-0.9-0.1-1,1.6-1,2.9c0,1-0.6,1.8-1.4,2.2c-3.2,1.4-11.3,3.8-22-0.1c-0.9-0.3-1.6-1.2-1.6-2.2
			c0-1.7-0.2-4-1.2-3.9c-0.4,0.1-0.8,0.4-1,0.9c-0.8,1.6-2.9,1.8-4,0.4c-0.3-0.4-0.7-0.9-1-1.4C90.1,114.3,94.4,108.4,99.8,109.6z"
			/>
		<path class="st430" d="M88.2,89.6c-2,0-3.7,1.6-3.7,3.7c0,2,1.6,3.7,3.7,3.7c2,0,3.7-1.6,3.7-3.7C91.9,91.2,90.2,89.6,88.2,89.6
			 M88.3,94.8c-0.8,0-1.5-0.7-1.5-1.5c0-0.8,0.7-1.5,1.5-1.5c0.8,0,1.5,0.7,1.5,1.5C89.7,94.1,89.1,94.8,88.3,94.8"/>
		<path class="st430" d="M134.2,88.8c-2.3,0-4.1,1.8-4.1,4.1c0,2.3,1.8,4.1,4.1,4.1c2.3,0,4.1-1.8,4.1-4.1
			C138.3,90.6,136.4,88.8,134.2,88.8 M134.3,94.8c-1,0-1.8-0.8-1.8-1.8c0-1,0.8-1.8,1.8-1.8c1,0,1.8,0.8,1.8,1.8
			C136.1,94,135.3,94.8,134.3,94.8"/>
		<path class="st431" d="M71,125.1c5.6,4,9.8,6.2,12,1.6c2.1-4.5-3.7-8.5-8.9-10.9c-5.2-2.4-16.6-5-24.5,4.8
			c-11.7,14.5,2.6,42.2,6.1,47c3.5,4.8,8.6,1.6,7.4-2.4c-2.8-10-17.4-26.1-6-40.5C60,121,65.3,121.2,71,125.1z"/>
		
			<linearGradient id="SVGID_1_" gradientUnits="userSpaceOnUse" x1="-193.5566" y1="-1553.4053" x2="-193.3736" y2="-1553.4053" gradientTransform="matrix(-1.094 -55.3483 55.3483 -1.094 85866.3047 -12963.0947)">
			<stop  offset="0" style="stop-color:#FDB851"/>
			<stop  offset="1" style="stop-color:#FAA435"/>
		</linearGradient>
		<path class="st7" d="M103.3,133.1c0,0,9.9-12.9,19.8-0.2c0,0-4.9-1.4-9-1.4C108.5,131.4,105.7,132.1,103.3,133.1z"/>
		<path class="st433" d="M88.3,91.9c-0.8,0-1.5,0.7-1.5,1.5c0,0.8,0.7,1.5,1.5,1.5c0.8,0,1.5-0.7,1.5-1.5
			C89.7,92.5,89.1,91.9,88.3,91.9 M90.1,85.1l-2.3,4.5c0.1,0,0.2,0,0.4,0c2,0,3.7,1.6,3.7,3.7c0,2-1.6,3.7-3.7,3.7
			c-1.3,0-2.5-0.7-3.2-1.8l-2.8,5.5l-0.6-0.4c0.9,1.8,2.2,3.3,3.9,3.8c1,0.3,2.3,0.4,3.7,0.4c3,0,6.4-0.6,8.4-1.7
			c2.9-1.5,4.9-4.2,6-7.9c1.2-3.7,2.4-7,1-7.7C103.6,86.7,100.5,85.1,90.1,85.1"/>
		<path class="st434" d="M88.3,94.8c-0.8,0-1.5-0.7-1.5-1.5c0-0.8,0.7-1.5,1.5-1.5c0.8,0,1.5,0.7,1.5,1.5
			C89.7,94.1,89.1,94.8,88.3,94.8 M88.2,89.6c-0.1,0-0.2,0-0.4,0l-2.8,5.5c0.6,1.1,1.8,1.8,3.2,1.8c2,0,3.7-1.6,3.7-3.7
			C91.9,91.2,90.2,89.6,88.2,89.6"/>
		<path class="st112" d="M80.4,96.6c0.2,0.7,0.4,1.4,0.7,2.2c0-0.4,0.1-0.7,0.1-1c0,0,0,0,0,0L80.4,96.6"/>
		<path class="st433" d="M84.6,92.5l-3,5.8l-0.4-0.5c0,0,0,0,0,0c0,0.3-0.1,0.7-0.1,1c0.2,0.4,0.4,0.9,0.6,1.3l3-6
			c-0.1-0.3-0.1-0.6-0.1-0.8C84.6,93,84.6,92.7,84.6,92.5 M89.1,85.1c-0.2,0-0.4,0-0.7,0l-2.9,5.7c0.3-0.4,0.8-0.7,1.2-0.9
			L89.1,85.1"/>
		<path class="st434" d="M86.7,89.9c-0.5,0.2-0.9,0.5-1.2,0.9l-0.9,1.7c-0.1,0.3-0.1,0.5-0.1,0.8c0,0.3,0,0.6,0.1,0.8L86.7,89.9"/>
		<path class="st112" d="M84.8,85.2c-1.3,0.1-2.8,0.1-4.3,0.2c0,0-1,7.5-0.4,10.4c0,0.1,0,0.1,0,0.2l2.2-3.8
			C83,89.9,83.9,87.4,84.8,85.2"/>
		<path class="st433" d="M86.4,85.2c-0.5,0-1,0-1.6,0.1c-1,2.2-1.8,4.7-2.5,7L86.4,85.2"/>
		<path class="st112" d="M136.6,84.6c1.4,2.2,2.7,4.6,3.9,7.3c-0.1-3.3-0.6-7.1-0.6-7.1C138.7,84.7,137.6,84.7,136.6,84.6"/>
		<path class="st433" d="M134.3,91.2c-1,0-1.8,0.8-1.8,1.8c0,1,0.8,1.8,1.8,1.8c1,0,1.8-0.8,1.8-1.8C136.1,92,135.3,91.2,134.3,91.2
			 M134.2,97c-2.3,0-4.1-1.8-4.1-4.1c0-2.3,1.8-4.1,4.1-4.1c2.3,0,4.1,1.8,4.1,4.1C138.3,95.2,136.4,97,134.2,97 M119.7,98l-1.8-1.5
			l6.7-11.4l1.8,0.2L119.7,98 M120.1,99.4l7.4-14.4l1,0.1l-7.4,14.1L120.1,99.4 M130.5,84.4c-10.5,0-13.6,1.6-14.7,2.2
			c-1.5,0.7-0.2,4,1,7.7c1.2,3.7,3.1,6.3,6,7.9c1.6,0.9,4,1.2,6.3,1.2c1.8,0,3.7-0.2,5.1-0.5c3.8-0.9,5.4-4.7,6.1-7.7
			c0.2-0.8,0.2-2,0.2-3.3c-1.2-2.7-2.5-5.1-3.9-7.3C134.3,84.5,132.3,84.4,130.5,84.4"/>
		<path class="st434" d="M134.3,94.8c-1,0-1.8-0.8-1.8-1.8c0-1,0.8-1.8,1.8-1.8c1,0,1.8,0.8,1.8,1.8C136.1,94,135.3,94.8,134.3,94.8
			 M134.2,88.8c-2.3,0-4.1,1.8-4.1,4.1c0,2.3,1.8,4.1,4.1,4.1c2.3,0,4.1-1.8,4.1-4.1C138.3,90.6,136.4,88.8,134.2,88.8"/>
		<path class="st435" d="M87.2,83.8l-0.8,1.3c0.7,0,1.4,0,2,0L89,84L87.2,83.8"/>
		<path class="st25" d="M80.2,96l-0.1,0.2l0.3,0.4C80.3,96.4,80.3,96.2,80.2,96"/>
		<path class="st436" d="M82.4,92.3L80.2,96c0,0.2,0.1,0.4,0.2,0.6l0.8,1.1C81.5,96.1,81.9,94.2,82.4,92.3"/>
		<path class="st437" d="M88.5,85.1c-0.6,0-1.3,0-2,0l-4.1,7.1c-0.5,1.9-0.9,3.8-1.2,5.5l0.4,0.5l3-5.8c0.1-0.6,0.4-1.2,0.9-1.7
			L88.5,85.1"/>
		<path class="st438" d="M85.5,90.8c-0.4,0.5-0.7,1-0.9,1.7L85.5,90.8"/>
		<path class="st435" d="M81.7,100.1L81.7,100.1l0.1,0.1C81.7,100.2,81.7,100.2,81.7,100.1 M89.8,83.8l-0.6,1.3c0.3,0,0.6,0,0.9,0
			c0.1,0,0.1,0,0.2,0l0.6-1.2L89.8,83.8"/>
		<path class="st437" d="M84.7,94.1l-3,6c0,0,0,0.1,0.1,0.1l0.6,0.4l2.8-5.5C84.9,94.8,84.7,94.5,84.7,94.1 M90,85.1
			c-0.3,0-0.6,0-0.9,0l-2.4,4.8c0.3-0.2,0.7-0.3,1.1-0.3l2.3-4.5C90.1,85.1,90,85.1,90,85.1"/>
		<path class="st438" d="M87.8,89.6c-0.4,0-0.8,0.1-1.1,0.3l-2.1,4.2c0.1,0.4,0.2,0.7,0.4,1L87.8,89.6"/>
		<polyline class="st437" points="124.6,85.1 117.9,96.5 119.7,98 126.5,85.3 124.6,85.1 		"/>
		<polyline class="st437" points="127.5,85 120.1,99.4 121.1,99.2 128.5,85.1 127.5,85 		"/>
		<path class="st439" d="M142.5,89.2c-0.3-4.4-0.8-5.7-0.8-5.7s-8.3-0.7-13.7-0.7c-5.4,0-13.3,1.4-14.4,1.4
			c-1.3-0.1-2.2-0.8-4.2-0.6c-2.4,0.2-2.9,1.5-4.8,1.1c-1.4-0.2-5.8-2.2-25.8-0.6c0,0-2.3,13.4,3.1,18.9c3.1,3.1,9.2,2.4,11,2.3
			c1.9-0.1,5.8-0.8,8.3-2.8c1.7-1.4,3.3-4.9,3.9-7c0.8-2.3,1.4-4.1,1.8-5c1.2-2.2,4.4-2.6,5.8,0.3c1.2,2.4,1.9,6.2,4.6,9.4
			c2.7,3.1,8.3,4.3,10.5,4.4c3.7,0.1,6.5-0.3,9.3-1.8C141.4,100.7,142.9,93.6,142.5,89.2z M101.1,97.4c-1.1,2.4-3.7,4.4-6.7,5
			c-3,0.7-9,0.8-10.9-1.5c-3.3-4.2-2-13.7-2-13.7c5.5-1.8,21.3-0.1,21.5,1.3C103.3,90,102.2,95,101.1,97.4z M139.4,93
			c-0.3,1.6-0.8,4.2-2.1,6.1c-1.3,1.9-5.7,2.6-10.1,2c-4.4-0.7-7.6-3.7-8.4-5.4c-0.9-1.6-2.1-4.8-2.3-6.2c0,0-0.4-2,0.8-2.3
			c0.8-0.2,5.7-1.1,11.1-1.2c4.9-0.1,10.9,0.5,10.9,0.5S139.9,90.2,139.4,93z"/>
		<path class="st440" d="M78,142.9c0,0,11.3-2.8,8.5-12.7c-2.1-7.3-7.8-6-7.8-6l0.5-6.2c0,0,12.7,10.1,22.1,20
			c6.5,6.8,11.9,9.8,11.9,9.8s6.6-4.8,10.7-9.4c6.4-7,10.2-14.6,22-29.1l1.8,7.6c0,0-7.4-1.3-7.3,6.2c0.2,7.5,5.5,12.4,10.6,13.7
			c0,0,1.6,16.2,2,21.3l-30.9,8.1l-7.9-7l-7.3,7l-29.7-7.9C77.2,158.3,78,143.8,78,142.9z"/>
		<path class="st441" d="M113.2,147.9c0,0-11.8-9.5-17.7-15.6l1.8,9.5l3.9,0.1l0.6,4.8L113.2,147.9z"/>
		<path class="st441" d="M130.2,130.5c0,0-10.1,13.2-17,17.3l12.2-2.7l0.4-5h4.7L130.2,130.5z"/>
		<circle class="st441" cx="118.5" cy="152.5" r="1.6"/>
		<circle class="st441" cx="107.9" cy="152.5" r="1.6"/>
		<line class="st442" x1="173.8" y1="150" x2="173.5" y2="150.8"/>
		<path class="st431" d="M146.4,125.7c-3-2.3-4-5.3-1.6-7c4.2-3,15.5,4.9,19.5,9.6c6.5,7.6,9,19.4,4.8,32.3
			c-3.9,11.9-17,17.9-20.5,14.6c-5.1-4.8,11.5-7.4,14.3-19.2c1.5-6.5,0.8-16-2.7-20.9C156.6,130.1,148.5,127.3,146.4,125.7z"/>
	</g>
	<g id="ugly" class="st147">
		<path class="st25" d="M53.5,24.3h-4.9V21c0-1-0.1-1.6-0.2-1.8c-0.1-0.2-0.3-0.4-0.7-0.4c-0.4,0-0.7,0.1-0.8,0.4s-0.2,0.9-0.2,1.9
			V30c0,0.9,0.1,1.5,0.2,1.8c0.1,0.3,0.4,0.4,0.7,0.4c0.4,0,0.6-0.1,0.7-0.4c0.1-0.3,0.2-0.9,0.2-2v-2.4h4.9v0.7
			c0,2-0.1,3.4-0.4,4.2c-0.3,0.8-0.9,1.5-1.8,2.2s-2.1,0.9-3.5,0.9c-1.4,0-2.6-0.3-3.6-0.8s-1.6-1.2-1.9-2.2
			c-0.3-0.9-0.5-2.3-0.5-4.2v-5.5c0-1.4,0-2.4,0.1-3.1s0.4-1.3,0.8-2s1.1-1.1,1.9-1.5s1.8-0.5,2.8-0.5c1.5,0,2.7,0.3,3.6,0.8
			s1.6,1.3,1.9,2.1s0.4,2.1,0.4,3.9V24.3z"/>
		<path class="st25" d="M64.5,19.5v3.3h-2.7V35H57V22.7h-2.7v-3.3H64.5z"/>
		<path class="st25" d="M70.2,19.5l-0.1,1.4c0.4-0.6,0.9-1,1.4-1.2c0.5-0.3,1.1-0.4,1.7-0.4c0.7,0,1.4,0.2,1.9,0.6s0.9,0.8,1,1.4
			s0.2,1.4,0.2,2.6v6.6c0,1.4-0.1,2.4-0.3,3s-0.5,1.1-1,1.4s-1.1,0.5-1.9,0.5c-0.6,0-1.1-0.1-1.6-0.4c-0.5-0.3-1-0.7-1.4-1.2v3.6
			h-4.7V19.5H70.2z M71.6,24c0-1,0-1.5-0.1-1.7s-0.3-0.3-0.6-0.3c-0.3,0-0.5,0.1-0.6,0.4s-0.1,0.8-0.1,1.7v6.4c0,0.9,0,1.5,0.1,1.8
			c0.1,0.2,0.3,0.4,0.6,0.4c0.3,0,0.5-0.1,0.6-0.3s0.1-0.7,0.1-1.6V24z"/>
		<path class="st25" d="M82.1,25.5h-4.4v-1c0-1.2,0.1-2.1,0.4-2.8s0.8-1.2,1.7-1.7s1.9-0.8,3.3-0.8c1.6,0,2.8,0.3,3.6,0.8
			s1.3,1.3,1.5,2.1s0.2,2.5,0.2,5.1V35h-4.6v-1.4c-0.3,0.6-0.7,1-1.1,1.2c-0.5,0.3-1,0.4-1.6,0.4c-0.8,0-1.6-0.2-2.3-0.7
			s-1-1.5-1-3.1v-1.3c0-1.2,0.2-2,0.6-2.4s1.3-0.9,2.7-1.5c1.6-0.6,2.4-1,2.5-1.2s0.2-0.6,0.2-1.3c0-0.8-0.1-1.3-0.2-1.6
			s-0.3-0.4-0.6-0.4c-0.3,0-0.5,0.1-0.6,0.3s-0.1,0.7-0.1,1.6V25.5z M83.6,27.6c-0.8,0.6-1.2,1-1.3,1.4s-0.2,0.9-0.2,1.6
			c0,0.8,0.1,1.3,0.2,1.6c0.1,0.2,0.3,0.4,0.6,0.4c0.3,0,0.5-0.1,0.6-0.3s0.1-0.7,0.1-1.4V27.6z"/>
		<path class="st25" d="M101.1,31.8h1.7V19.5h4.7V35H90V19.5h4.7v12.3h1.7V19.5h4.7V31.8z"/>
		<path class="st25" d="M120.3,35h-4.7v-5.7h-1.7V35h-4.7V19.5h4.7v5.6h1.7v-5.6h4.7V35z"/>
		<path class="st25" d="M133,30.6c0,1.4-0.2,2.4-0.5,3.1s-0.9,1-1.6,1.2s-1.9,0.2-3.5,0.2H122V19.5h4.7v5.2h0.8
			c1.5,0,2.6,0.1,3.4,0.3s1.3,0.6,1.6,1.2s0.5,1.6,0.5,2.9V30.6z M128.3,30v-0.6c0-0.8-0.1-1.3-0.2-1.5s-0.6-0.3-1.4-0.3v4.1
			c0.6,0,1-0.1,1.3-0.2S128.3,30.9,128.3,30z M139.1,35h-4.7V19.5h4.7V35z"/>
		<path class="st25" d="M152.5,35h-4.1v-8.4l-3.3,8.4h-4.3V19.5h4.1v8.3l3.2-8.3h4.4V35z M148,14.9h2c0,1.1-0.4,1.9-0.9,2.6
			s-1.4,1-2.4,1c-1,0-1.8-0.3-2.4-1s-0.9-1.5-0.9-2.6h2c0.1,1.1,0.5,1.6,1.3,1.6C147.4,16.5,147.9,16,148,14.9z"/>
		<path class="st25" d="M170.1,24.3h-4.9V21c0-1-0.1-1.6-0.2-1.8c-0.1-0.2-0.3-0.4-0.7-0.4c-0.4,0-0.7,0.1-0.8,0.4s-0.2,0.9-0.2,1.9
			V30c0,0.9,0.1,1.5,0.2,1.8c0.1,0.3,0.4,0.4,0.7,0.4c0.4,0,0.6-0.1,0.7-0.4c0.1-0.3,0.2-0.9,0.2-2v-2.4h4.9v0.7
			c0,2-0.1,3.4-0.4,4.2c-0.3,0.8-0.9,1.5-1.8,2.2s-2.1,0.9-3.5,0.9c-1.4,0-2.6-0.3-3.6-0.8s-1.6-1.2-1.9-2.2
			c-0.3-0.9-0.5-2.3-0.5-4.2v-5.5c0-1.4,0-2.4,0.1-3.1s0.4-1.3,0.8-2s1.1-1.1,1.9-1.5s1.8-0.5,2.8-0.5c1.5,0,2.7,0.3,3.6,0.8
			s1.6,1.3,1.9,2.1s0.4,2.1,0.4,3.9V24.3z"/>
		<path class="st25" d="M182.3,21.8h-4.6v-1.4c0-0.7-0.1-1.1-0.2-1.3s-0.3-0.3-0.6-0.3c-0.3,0-0.5,0.1-0.7,0.4
			c-0.2,0.2-0.2,0.6-0.2,1.1c0,0.6,0.1,1.1,0.3,1.4c0.2,0.3,0.6,0.7,1.4,1.2c2.2,1.3,3.6,2.4,4.1,3.2s0.9,2.2,0.9,4
			c0,1.4-0.2,2.3-0.5,3s-0.9,1.2-1.8,1.6s-2,0.7-3.2,0.7c-1.3,0-2.4-0.2-3.4-0.8s-1.5-1.1-1.8-1.9c-0.3-0.8-0.4-1.9-0.4-3.3v-1.2
			h4.6v2.3c0,0.7,0.1,1.2,0.2,1.4c0.1,0.2,0.4,0.3,0.7,0.3s0.6-0.1,0.7-0.4c0.2-0.3,0.2-0.6,0.2-1.1c0-1.1-0.2-1.8-0.5-2.2
			c-0.3-0.3-1.1-0.9-2.3-1.7c-1.2-0.8-2-1.4-2.4-1.8s-0.7-0.9-1-1.5s-0.4-1.5-0.4-2.5c0-1.5,0.2-2.5,0.6-3.2s1-1.2,1.8-1.6
			s1.8-0.6,3-0.6c1.3,0,2.4,0.2,3.3,0.6s1.5,0.9,1.8,1.6s0.4,1.7,0.4,3.2V21.8z"/>
		<path class="st25" d="M194.7,21.8h-4.6v-1.4c0-0.7-0.1-1.1-0.2-1.3s-0.3-0.3-0.6-0.3c-0.3,0-0.5,0.1-0.7,0.4
			c-0.2,0.2-0.2,0.6-0.2,1.1c0,0.6,0.1,1.1,0.3,1.4c0.2,0.3,0.6,0.7,1.4,1.2c2.2,1.3,3.6,2.4,4.1,3.2s0.9,2.2,0.9,4
			c0,1.4-0.2,2.3-0.5,3s-0.9,1.2-1.8,1.6s-2,0.7-3.2,0.7c-1.3,0-2.4-0.2-3.4-0.8s-1.5-1.1-1.8-1.9c-0.3-0.8-0.4-1.9-0.4-3.3v-1.2
			h4.6v2.3c0,0.7,0.1,1.2,0.2,1.4c0.1,0.2,0.4,0.3,0.7,0.3s0.6-0.1,0.7-0.4c0.2-0.3,0.2-0.6,0.2-1.1c0-1.1-0.2-1.8-0.5-2.2
			c-0.3-0.3-1.1-0.9-2.3-1.7c-1.2-0.8-2-1.4-2.4-1.8s-0.7-0.9-1-1.5s-0.4-1.5-0.4-2.5c0-1.5,0.2-2.5,0.6-3.2s1-1.2,1.8-1.6
			s1.8-0.6,3-0.6c1.3,0,2.4,0.2,3.3,0.6s1.5,0.9,1.8,1.6s0.4,1.7,0.4,3.2V21.8z"/>
	</g>
	<g id="beautiful">
		<path class="st420" d="M283.4,15.8h4.9l0,8c0.9,0,1.4-0.5,1.4-1.5l0.1-3.7c0-1.4,0.3-2.3,0.8-2.8h4.6c-0.4,0.5-0.7,1.4-0.7,2.9
			l0,3.3c0,2-1.1,3.1-3.3,3.4c2.2,0.3,3.3,1.4,3.3,3.4l0,3c0,1.4,0.2,2.5,0.7,3.1h-4.6c-0.5-0.5-0.8-1.4-0.8-2.8v-3.7
			c0-0.5-0.1-0.8-0.4-1.1s-0.7-0.4-1.1-0.4l0,8h-4.9V15.8z"/>
		<path class="st420" d="M301,19.3l-0.1,1.4c0.4-0.6,0.9-1,1.4-1.2c0.5-0.3,1.1-0.4,1.7-0.4c0.7,0,1.4,0.2,1.9,0.6s0.9,0.8,1,1.4
			s0.2,1.4,0.2,2.6v6.6c0,1.4-0.1,2.4-0.3,3s-0.5,1.1-1,1.4s-1.1,0.5-1.9,0.5c-0.6,0-1.1-0.1-1.6-0.4c-0.5-0.3-1-0.7-1.4-1.2V37
			h-4.7V19.3H301z M302.3,23.8c0-1,0-1.5-0.1-1.7s-0.3-0.3-0.6-0.3c-0.3,0-0.5,0.1-0.6,0.4s-0.1,0.8-0.1,1.7v6.4
			c0,0.9,0,1.5,0.1,1.8c0.1,0.2,0.3,0.4,0.6,0.4c0.3,0,0.5-0.1,0.6-0.3c0.1-0.2,0.1-0.7,0.1-1.6V23.8z"/>
		<path class="st420" d="M312.8,25.3h-4.4v-1c0-1.2,0.1-2.1,0.4-2.8s0.8-1.2,1.7-1.7s1.9-0.8,3.3-0.8c1.6,0,2.8,0.3,3.6,0.8
			s1.3,1.3,1.5,2.1s0.2,2.5,0.2,5.1v7.8h-4.6v-1.4c-0.3,0.6-0.7,1-1.1,1.2c-0.5,0.3-1,0.4-1.6,0.4c-0.8,0-1.6-0.2-2.3-0.7
			s-1-1.5-1-3.1v-1.3c0-1.2,0.2-2,0.6-2.4s1.3-0.9,2.7-1.5c1.6-0.6,2.4-1,2.5-1.2s0.2-0.6,0.2-1.3c0-0.8-0.1-1.3-0.2-1.6
			s-0.3-0.4-0.6-0.4c-0.3,0-0.5,0.1-0.6,0.3s-0.1,0.7-0.1,1.6V25.3z M314.3,27.4c-0.8,0.6-1.2,1-1.3,1.4s-0.2,0.9-0.2,1.6
			c0,0.8,0.1,1.3,0.2,1.6c0.1,0.2,0.3,0.4,0.6,0.4c0.3,0,0.5-0.1,0.6-0.3c0.1-0.2,0.1-0.7,0.1-1.4V27.4z"/>
		<path class="st420" d="M331.1,25.2h-4.5v-1.8c0-0.6-0.1-1-0.2-1.3s-0.3-0.3-0.6-0.3s-0.5,0.1-0.6,0.3s-0.1,0.6-0.1,1.3v7.3
			c0,0.6,0.1,1,0.2,1.2c0.1,0.3,0.3,0.4,0.6,0.4c0.3,0,0.5-0.1,0.7-0.4c0.1-0.3,0.2-0.8,0.2-1.6v-1.9h4.2c0,1.2-0.1,2.2-0.1,2.8
			s-0.3,1.3-0.8,1.9s-1,1.1-1.7,1.5s-1.6,0.5-2.6,0.5c-1.3,0-2.4-0.2-3.2-0.7s-1.3-1.1-1.7-1.9c-0.3-0.8-0.5-2-0.5-3.5v-4.4
			c0-1.3,0.1-2.3,0.4-3s0.8-1.3,1.7-1.8s1.9-0.8,3.2-0.8c1.2,0,2.3,0.3,3.2,0.8s1.5,1.2,1.7,2S331.1,23.7,331.1,25.2z"/>
		<path class="st420" d="M344.3,34.8h-4.1v-8.4l-3.3,8.4h-4.3V19.3h4.1v8.3l3.2-8.3h4.4V34.8z"/>
		<path class="st420" d="M356.9,30.7c0,1.6-0.3,2.7-1,3.2s-2.2,0.9-4.5,0.9H346V19.3h5.6c1.9,0,3.2,0.3,4,0.9s1.1,1.7,1.1,3.2
			c0,1.8-0.9,2.8-2.7,3c1,0.2,1.7,0.5,2.3,1.1s0.8,1.3,0.8,2.2V30.7z M350.7,25.1c0.7,0,1.2-0.1,1.3-0.3s0.2-0.5,0.2-1.1
			c0-0.4-0.1-0.8-0.3-0.9s-0.6-0.3-1.3-0.3V25.1z M352.2,30v-0.5c0-0.7-0.1-1.1-0.3-1.3s-0.6-0.3-1.3-0.3v3.6c0.6,0,1.1-0.1,1.3-0.3
			S352.2,30.7,352.2,30z"/>
		<path class="st420" d="M369.3,30.4c0,1.4-0.2,2.4-0.5,3.1s-0.9,1-1.6,1.2s-1.9,0.2-3.5,0.2h-5.5V19.3h4.7v5.2h0.8
			c1.5,0,2.6,0.1,3.4,0.3s1.3,0.6,1.6,1.2s0.5,1.6,0.5,2.9V30.4z M364.6,29.8v-0.6c0-0.8-0.1-1.3-0.2-1.5s-0.6-0.3-1.4-0.3v4.1
			c0.6,0,1-0.1,1.3-0.2S364.6,30.7,364.6,29.8z M375.5,34.8h-4.7V19.3h4.7V34.8z"/>
		<path class="st420" d="M388.9,34.8h-4.1v-8.4l-3.3,8.4h-4.3V19.3h4.1v8.3l3.2-8.3h4.4V34.8z M384.3,14.7h2c0,1.1-0.4,1.9-0.9,2.6
			s-1.4,1-2.4,1c-1,0-1.8-0.3-2.4-1s-0.9-1.5-0.9-2.6h2c0.1,1.1,0.5,1.6,1.3,1.6C383.8,16.3,384.2,15.8,384.3,14.7z"/>
		<path class="st420" d="M406.4,24.1h-4.9v-3.3c0-1-0.1-1.6-0.2-1.8c-0.1-0.2-0.3-0.4-0.7-0.4c-0.4,0-0.7,0.1-0.8,0.4
			s-0.2,0.9-0.2,1.9v8.8c0,0.9,0.1,1.5,0.2,1.8s0.4,0.4,0.7,0.4c0.4,0,0.6-0.1,0.7-0.4s0.2-0.9,0.2-2v-2.4h4.9V28
			c0,2-0.1,3.4-0.4,4.2c-0.3,0.8-0.9,1.5-1.8,2.2s-2.1,0.9-3.5,0.9c-1.4,0-2.6-0.3-3.6-0.8s-1.6-1.2-1.9-2.2
			c-0.3-0.9-0.5-2.3-0.5-4.2v-5.5c0-1.4,0-2.4,0.1-3.1s0.4-1.3,0.8-2s1.1-1.1,1.9-1.5s1.8-0.5,2.8-0.5c1.5,0,2.7,0.3,3.6,0.8
			s1.6,1.3,1.9,2.1s0.4,2.1,0.4,3.9V24.1z"/>
		<path class="st420" d="M418.7,21.6h-4.6v-1.4c0-0.7-0.1-1.1-0.2-1.3s-0.3-0.3-0.6-0.3c-0.3,0-0.5,0.1-0.7,0.4
			c-0.2,0.2-0.2,0.6-0.2,1.1c0,0.6,0.1,1.1,0.3,1.4c0.2,0.3,0.6,0.7,1.4,1.2c2.2,1.3,3.6,2.4,4.2,3.2s0.9,2.2,0.9,4
			c0,1.4-0.2,2.3-0.5,3s-0.9,1.2-1.8,1.6s-2,0.7-3.2,0.7c-1.3,0-2.4-0.2-3.4-0.8s-1.5-1.1-1.8-1.9c-0.3-0.8-0.4-1.9-0.4-3.3V28h4.6
			v2.3c0,0.7,0.1,1.2,0.2,1.4s0.4,0.3,0.7,0.3s0.6-0.1,0.7-0.4s0.2-0.6,0.2-1.1c0-1.1-0.2-1.8-0.5-2.2c-0.3-0.3-1.1-0.9-2.3-1.7
			c-1.2-0.8-2-1.4-2.4-1.8s-0.7-0.9-1-1.5s-0.4-1.5-0.4-2.5c0-1.5,0.2-2.5,0.6-3.2s1-1.2,1.8-1.6s1.8-0.6,3-0.6
			c1.3,0,2.4,0.2,3.3,0.6s1.5,0.9,1.8,1.6s0.4,1.7,0.4,3.2V21.6z"/>
		<path class="st420" d="M431.1,21.6h-4.6v-1.4c0-0.7-0.1-1.1-0.2-1.3s-0.3-0.3-0.6-0.3c-0.3,0-0.5,0.1-0.7,0.4
			c-0.2,0.2-0.2,0.6-0.2,1.1c0,0.6,0.1,1.1,0.3,1.4c0.2,0.3,0.6,0.7,1.4,1.2c2.2,1.3,3.6,2.4,4.2,3.2s0.9,2.2,0.9,4
			c0,1.4-0.2,2.3-0.5,3s-0.9,1.2-1.8,1.6s-2,0.7-3.2,0.7c-1.3,0-2.4-0.2-3.4-0.8s-1.5-1.1-1.8-1.9c-0.3-0.8-0.4-1.9-0.4-3.3V28h4.6
			v2.3c0,0.7,0.1,1.2,0.2,1.4s0.4,0.3,0.7,0.3s0.6-0.1,0.7-0.4s0.2-0.6,0.2-1.1c0-1.1-0.2-1.8-0.5-2.2c-0.3-0.3-1.1-0.9-2.3-1.7
			c-1.2-0.8-2-1.4-2.4-1.8s-0.7-0.9-1-1.5s-0.4-1.5-0.4-2.5c0-1.5,0.2-2.5,0.6-3.2s1-1.2,1.8-1.6s1.8-0.6,3-0.6
			c1.3,0,2.4,0.2,3.3,0.6s1.5,0.9,1.8,1.6s0.4,1.7,0.4,3.2V21.6z"/>
	</g>
	<g id="repeat">
		<text transform="matrix(1 0 0 1 70.1397 215.0532)" class="st220 st444 st445">повторения</text>
		<text transform="matrix(1 0 0 1 115.2908 205.088)" class="st220 st444 st445">повторения</text>
		<text transform="matrix(1 0 0 1 124.2771 223.5698)" class="st220 st444 st445">повторения</text>
		<text transform="matrix(1 0 0 1 54.1568 210.8361)" class="st446 st444 st445">повторения</text>
	</g>
	<g id="code1">
		<rect x="9.3" y="220.5" width="216" height="216"/>
		<text transform="matrix(1 0 0 1 17.0881 239.1059)"><tspan x="0" y="0" class="st25 st447 st448">#intro1 {</tspan><tspan x="0" y="12" class="st449 st447 st448"> color: #34475E;</tspan><tspan x="105.6" y="12" class="st25 st447 st448"> </tspan><tspan x="0" y="24" class="st25 st447 st448"> padding: 10px; </tspan><tspan x="0" y="36" class="st25 st447 st448">}</tspan><tspan x="0" y="60" class="st25 st447 st448">header {</tspan><tspan x="0" y="72" class="st449 st447 st448"> color: #34475E;</tspan><tspan x="105.6" y="72" class="st25 st447 st448"> </tspan><tspan x="0" y="84" class="st25 st447 st448"> width: 80%;</tspan><tspan x="0" y="96" class="st25 st447 st448"> margin:auto;</tspan><tspan x="0" y="108" class="st25 st447 st448">}</tspan><tspan x="0" y="132" class="st25 st447 st448">.banner {</tspan><tspan x="0" y="144" class="st450 st447 st448"> color: #34475E;</tspan><tspan x="105.6" y="144" class="st25 st447 st448"> </tspan><tspan x="0" y="156" class="st25 st447 st448"> background-image: </tspan><tspan x="0" y="168" class="st25 st447 st448"> url(images/pic.jpg);</tspan><tspan x="0" y="180" class="st25 st447 st448">}</tspan></text>
	</g>
	<g id="code1_1_">
		<rect x="9.3" y="470.3" width="216" height="216"/>
		<text transform="matrix(1 0 0 1 17.0881 488.9384)"><tspan x="0" y="0" class="st25 st447 st448">div.top {</tspan><tspan x="0" y="12" class="st449 st447 st448"> color: #34475E;</tspan><tspan x="105.6" y="12" class="st25 st447 st448"> </tspan><tspan x="0" y="24" class="st25 st447 st448"> padding: 10px; </tspan><tspan x="0" y="36" class="st25 st447 st448">}</tspan><tspan x="0" y="60" class="st25 st447 st448">div.middle {</tspan><tspan x="0" y="72" class="st449 st447 st448"> color: #34488E !important;</tspan><tspan x="178.2" y="72" class="st25 st447 st448"> </tspan><tspan x="0" y="84" class="st25 st447 st448"> width: 80%;</tspan><tspan x="0" y="96" class="st25 st447 st448"> margin:auto;</tspan><tspan x="0" y="108" class="st25 st447 st448">}</tspan><tspan x="0" y="132" class="st25 st447 st448">div.bottom {</tspan><tspan x="0" y="144" class="st450 st447 st448"> color: #090909 !important;</tspan><tspan x="178.2" y="144" class="st25 st447 st448"> </tspan><tspan x="0" y="156" class="st25 st447 st448"> background-image: </tspan><tspan x="0" y="168" class="st25 st447 st448"> url(images/pic.jpg);</tspan><tspan x="0" y="180" class="st25 st447 st448">}</tspan></text>
	</g>
	<g id="code1_3_">
		<rect x="11.1" y="730.3" width="216" height="177.6"/>
		<text transform="matrix(1 0 0 1 18.9607 748.9384)"><tspan x="0" y="0" class="st449 st447 st448">.top&gt;div p</tspan><tspan x="66" y="0" class="st25 st447 st448"> {</tspan><tspan x="0" y="12" class="st25 st447 st448"> padding: 10px; </tspan><tspan x="0" y="24" class="st25 st447 st448">}</tspan><tspan x="0" y="48" class="st449 st447 st448">.top&gt;div p+p.one</tspan><tspan x="105.6" y="48" class="st25 st447 st448">{ </tspan><tspan x="0" y="60" class="st25 st447 st448"> width: 80%;</tspan><tspan x="0" y="72" class="st25 st447 st448"> margin:auto;</tspan><tspan x="0" y="84" class="st25 st447 st448">}</tspan><tspan x="0" y="108" class="st449 st447 st448">.top &gt; div p+p.one:first-child </tspan><tspan x="0" y="120" class="st449 st447 st448">&gt; span</tspan><tspan x="39.6" y="120" class="st25 st447 st448">{</tspan><tspan x="0" y="132" class="st25 st447 st448"> color: red;</tspan><tspan x="0" y="144" class="st25 st447 st448">}</tspan></text>
	</g>
	<g id="code1_4_">
		<rect x="249.4" y="730.3" width="216" height="177.6"/>
		<text transform="matrix(1 0 0 1 257.2023 748.9384)"><tspan x="0" y="0" class="st449 st447 st448">.item</tspan><tspan x="33" y="0" class="st25 st447 st448"> {</tspan><tspan x="0" y="12" class="st25 st447 st448"> padding: 10px; </tspan><tspan x="0" y="24" class="st25 st447 st448">}</tspan><tspan x="0" y="48" class="st449 st447 st448">.item__center</tspan><tspan x="85.8" y="48" class="st25 st447 st448">{ </tspan><tspan x="0" y="60" class="st25 st447 st448"> width: 80%;</tspan><tspan x="0" y="72" class="st25 st447 st448"> margin:auto;</tspan><tspan x="0" y="84" class="st25 st447 st448">}</tspan><tspan x="0" y="108" class="st449 st447 st448">.text--red</tspan><tspan x="66" y="108" class="st25 st447 st448">{</tspan><tspan x="0" y="120" class="st25 st447 st448"> color: red;</tspan><tspan x="0" y="132" class="st25 st447 st448">}</tspan></text>
	</g>
	<g id="code1_2_">
		<rect x="249.1" y="470.3" width="216" height="216"/>
		<text transform="matrix(1 0 0 1 256.9564 488.9384)"><tspan x="0" y="0" class="st25 st447 st448">.top {</tspan><tspan x="0" y="12" class="st449 st447 st448"> color: #34475E;</tspan><tspan x="105.6" y="12" class="st25 st447 st448"> </tspan><tspan x="0" y="24" class="st25 st447 st448"> padding: 10px; </tspan><tspan x="0" y="36" class="st25 st447 st448">}</tspan><tspan x="0" y="60" class="st25 st447 st448">.middle {</tspan><tspan x="0" y="72" class="st449 st447 st448"> color: #34488E;</tspan><tspan x="105.6" y="72" class="st25 st447 st448"> </tspan><tspan x="0" y="84" class="st25 st447 st448"> width: 80%;</tspan><tspan x="0" y="96" class="st25 st447 st448"> margin:auto;</tspan><tspan x="0" y="108" class="st25 st447 st448">}</tspan><tspan x="0" y="132" class="st25 st447 st448">.bottom {</tspan><tspan x="0" y="144" class="st450 st447 st448"> color: #090909;</tspan><tspan x="105.6" y="144" class="st25 st447 st448"> </tspan><tspan x="0" y="156" class="st25 st447 st448"> background-image: </tspan><tspan x="0" y="168" class="st25 st447 st448"> url(images/pic.jpg);</tspan><tspan x="0" y="180" class="st25 st447 st448">}</tspan></text>
	</g>
	<g id="code2">
		<rect x="250.1" y="220.9" width="216" height="216"/>
		<text transform="matrix(1 0 0 1 257.9563 238.5913)"><tspan x="0" y="0" class="st25 st447 st448">.blue{</tspan><tspan x="0" y="12" class="st449 st447 st448"> color: #34475E;</tspan><tspan x="0" y="24" class="st25 st447 st448">}</tspan><tspan x="0" y="48" class="st25 st447 st448">#intro1 {</tspan><tspan x="0" y="60" class="st25 st447 st448"> padding: 10px; </tspan><tspan x="0" y="72" class="st25 st447 st448">}</tspan><tspan x="0" y="96" class="st25 st447 st448">header {</tspan><tspan x="0" y="108" class="st25 st447 st448"> width: 80%;</tspan><tspan x="0" y="120" class="st25 st447 st448"> margin:auto;</tspan><tspan x="0" y="132" class="st25 st447 st448">}</tspan><tspan x="0" y="156" class="st25 st447 st448">.banner {</tspan><tspan x="0" y="168" class="st25 st447 st448"> background-image: </tspan><tspan x="0" y="180" class="st25 st447 st448"> url(images/pic.jpg);</tspan><tspan x="0" y="192" class="st25 st447 st448">}</tspan></text>
	</g>
	<g>
		<text transform="matrix(1 0 0 1 77.1568 464.375)" class="st446 st444 st445">ВАЖНО !!!11</text>
	</g>
	<g>
		<text transform="matrix(1 0 0 1 39.7653 713.1739)"><tspan x="0" y="0" class="st446 st444 st451">Сложно, еще сложнее, </tspan><tspan x="0" y="13" class="st446 st444 st451">совсем сложно !</tspan></text>
	</g>
	<text transform="matrix(1 0 0 1 316.4225 209.8762)" class="st428 st444 st451">Один класс</text>
	<text transform="matrix(1 0 0 1 307.9523 464.375)" class="st428 st444 st451">Один класс</text>
	<text transform="matrix(1 0 0 1 307.9521 720.375)" class="st428 st444 st451">Один класс</text>
</g>
</svg>
