<?xml version="1.0" encoding="UTF-8" standalone="no"?>
<svg width="870px" height="895px" viewBox="0 0 870 895" version="1.1" xmlns="http://www.w3.org/2000/svg" xmlns:xlink="http://www.w3.org/1999/xlink">
    <!-- Generator: Sketch 39.1 (31720) - http://www.bohemiancoding.com/sketch -->
    <title>Artboard</title>
    <desc>Created with Sketch.</desc>
    <defs>
        <linearGradient x1="-18.1158868%" y1="-11702.7624%" x2="-19.127008%" y2="-11877.6052%" id="linearGradient-1">
            <stop stop-color="#FDB851" offset="0%"></stop>
            <stop stop-color="#FAA435" offset="100%"></stop>
        </linearGradient>
    </defs>
    <g id="CSS" stroke="none" stroke-width="1" fill="none" fill-rule="evenodd">
        <g id="Artboard">
            <g id="bad" transform="translate(0.000000, -1.000000)">
                <rect id="Rectangle-path" fill="#30485E" x="0" y="-9.09494702e-13" width="435" height="896.31166"></rect>
                <g id="ugly" transform="translate(142.000000, 76.000000)">
                    <g id="Group">
                        <path d="M109.9,113 L90.9,113 C90.9,113 89.2,106.3 88.8,104.9 C88.8,104.9 57.1,105.4 51.9,104.9 C51.9,104.9 50.1,112.1 50.1,113 L31.1,113 C31.1,113 31.6,105.8 31.7,101.1 C31.8,96.3 32.3,85.2 32.6,82.1 C32.9,79.1 33.4,60.7 33.6,56.3 C33.9,51.9 35.3,35.9 36.1,29.9 C36.9,23.9 39.9,15 43.4,11.4 C47.9,6.8 53.3,1.4 61.9,0.9 C71.2,0.4 74.1,2 80.4,5.5 C86.7,9.1 93.4,17.2 97.3,28.9 C100.4,38.2 101.4,44 103,50.3 C104.8,57.7 106.6,72.9 107.1,78.6 C107.7,84.3 108,89.8 108.5,95.3 C109.2,102.4 109.9,113 109.9,113" id="Shape" fill="#FDB851"></path>
                        <path d="M54.8,41.6 L54.9,41.6 C56,41.9 56.8,42.8 56.8,44 C56.8,45.7 56.9,48.1 58,48.4 C59.1,48.8 59.5,46.5 59.7,44.7 C59.8,43.4 60.9,42.5 62.2,42.6 C64.7,42.7 68.5,42.9 71.2,42.9 C72.5,42.9 73.5,43.9 73.6,45.1 C73.7,46.8 74,48.7 74.9,48.5 C75.9,48.2 76.3,45.9 76.4,44.2 C76.5,43.2 77.2,42.3 78.2,42.1 C80.1,41.7 83.1,41 85.7,40.1 C87.4,39.5 89,40.9 88.8,42.6 C88.5,45.5 87.7,49.5 85.8,52.6 C85,53.9 83,54 82,52.8 C81.8,52.5 81.5,52.3 81.2,52.3 C80.3,52.2 80.2,53.9 80.2,55.2 C80.2,56.2 79.6,57 78.8,57.4 C75.6,58.8 67.5,61.2 56.8,57.3 C55.9,57 55.2,56.1 55.2,55.1 C55.2,53.4 55,51.1 54,51.2 C53.6,51.3 53.2,51.6 53,52.1 C52.2,53.7 50.1,53.9 49,52.5 C48.7,52.1 48.3,51.6 48,51.1 C45.1,46.3 49.4,40.4 54.8,41.6 L54.8,41.6 Z" id="Shape" fill="#203449"></path>
                        <path d="M43.2,21.6 C41.2,21.6 39.5,23.2 39.5,25.3 C39.5,27.3 41.1,29 43.2,29 C45.2,29 46.9,27.4 46.9,25.3 C46.9,23.2 45.2,21.6 43.2,21.6 M43.3,26.8 C42.5,26.8 41.8,26.1 41.8,25.3 C41.8,24.5 42.5,23.8 43.3,23.8 C44.1,23.8 44.8,24.5 44.8,25.3 C44.7,26.1 44.1,26.8 43.3,26.8" id="Shape" fill="#203449"></path>
                        <path d="M89.2,20.8 C86.9,20.8 85.1,22.6 85.1,24.9 C85.1,27.2 86.9,29 89.2,29 C91.5,29 93.3,27.2 93.3,24.9 C93.3,22.6 91.4,20.8 89.2,20.8 M89.3,26.8 C88.3,26.8 87.5,26 87.5,25 C87.5,24 88.3,23.2 89.3,23.2 C90.3,23.2 91.1,24 91.1,25 C91.1,26 90.3,26.8 89.3,26.8" id="Shape" fill="#203449"></path>
                        <path d="M26,57.1 C31.6,61.1 35.8,63.3 38,58.7 C40.1,54.2 34.3,50.2 29.1,47.8 C23.9,45.4 12.5,42.8 4.6,52.6 C-7.1,67.1 7.2,94.8 10.7,99.6 C14.2,104.4 19.3,101.2 18.1,97.2 C15.3,87.2 0.7,71.1 12.1,56.7 C15,53 20.3,53.2 26,57.1 L26,57.1 Z" id="Shape" fill="#FAA435"></path>
                        <path d="M58.3,65.1 C58.3,65.1 68.2,52.2 78.1,64.9 C78.1,64.9 73.2,63.5 69.1,63.5 C63.5,63.4 60.7,64.1 58.3,65.1 L58.3,65.1 Z" id="Shape" fill="url(#linearGradient-1)"></path>
                        <path d="M43.3,23.9 C42.5,23.9 41.8,24.6 41.8,25.4 C41.8,26.2 42.5,26.9 43.3,26.9 C44.1,26.9 44.8,26.2 44.8,25.4 C44.7,24.5 44.1,23.9 43.3,23.9 M45.1,17.1 L42.8,21.6 L43.2,21.6 C45.2,21.6 46.9,23.2 46.9,25.3 C46.9,27.3 45.3,29 43.2,29 C41.9,29 40.7,28.3 40,27.2 L37.2,32.7 L36.6,32.3 C37.5,34.1 38.8,35.6 40.5,36.1 C41.5,36.4 42.8,36.5 44.2,36.5 C47.2,36.5 50.6,35.9 52.6,34.8 C55.5,33.3 57.5,30.6 58.6,26.9 C59.8,23.2 61,19.9 59.6,19.2 C58.6,18.7 55.5,17.1 45.1,17.1" id="Shape" fill="#F4BE69"></path>
                        <path d="M43.3,26.8 C42.5,26.8 41.8,26.1 41.8,25.3 C41.8,24.5 42.5,23.8 43.3,23.8 C44.1,23.8 44.8,24.5 44.8,25.3 C44.7,26.1 44.1,26.8 43.3,26.8 M43.2,21.6 L42.8,21.6 L40,27.1 C40.6,28.2 41.8,28.9 43.2,28.9 C45.2,28.9 46.9,27.3 46.9,25.2 C46.9,23.2 45.2,21.6 43.2,21.6" id="Shape" fill="#465566"></path>
                        <path d="M35.4,28.6 C35.6,29.3 35.8,30 36.1,30.8 C36.1,30.4 36.2,30.1 36.2,29.8 L36.2,29.8 L35.4,28.6" id="Shape" fill="#F2F2F2"></path>
                        <path d="M39.6,24.5 L36.6,30.3 L36.2,29.8 L36.2,29.8 C36.2,30.1 36.1,30.5 36.1,30.8 C36.3,31.2 36.5,31.7 36.7,32.1 L39.7,26.1 C39.6,25.8 39.6,25.5 39.6,25.3 L39.6,24.5 M44.1,17.1 L43.4,17.1 L40.5,22.8 C40.8,22.4 41.3,22.1 41.7,21.9 L44.1,17.1" id="Shape" fill="#F4BE69"></path>
                        <path d="M41.7,21.9 C41.2,22.1 40.8,22.4 40.5,22.8 L39.6,24.5 C39.5,24.8 39.5,25 39.5,25.3 C39.5,25.6 39.5,25.9 39.6,26.1 L41.7,21.9" id="Shape" fill="#465566"></path>
                        <path d="M39.8,17.2 C38.5,17.3 37,17.3 35.5,17.4 C35.5,17.4 34.5,24.9 35.1,27.8 L35.1,28 L37.3,24.2 C38,21.9 38.9,19.4 39.8,17.2" id="Shape" fill="#F2F2F2"></path>
                        <path d="M41.4,17.2 C40.9,17.2 40.4,17.2 39.8,17.3 C38.8,19.5 38,22 37.3,24.3 L41.4,17.2" id="Shape" fill="#F4BE69"></path>
                        <path d="M91.6,16.6 C93,18.8 94.3,21.2 95.5,23.9 C95.4,20.6 94.9,16.8 94.9,16.8 C93.7,16.7 92.6,16.7 91.6,16.6" id="Shape" fill="#F2F2F2"></path>
                        <path d="M89.3,23.2 C88.3,23.2 87.5,24 87.5,25 C87.5,26 88.3,26.8 89.3,26.8 C90.3,26.8 91.1,26 91.1,25 C91.1,24 90.3,23.2 89.3,23.2 M89.2,29 C86.9,29 85.1,27.2 85.1,24.9 C85.1,22.6 86.9,20.8 89.2,20.8 C91.5,20.8 93.3,22.6 93.3,24.9 C93.3,27.2 91.4,29 89.2,29 M74.7,30 L72.9,28.5 L79.6,17.1 L81.4,17.3 L74.7,30 M75.1,31.4 L82.5,17 L83.5,17.1 L76.1,31.2 L75.1,31.4 M85.5,16.4 C75,16.4 71.9,18 70.8,18.6 C69.3,19.3 70.6,22.6 71.8,26.3 C73,30 74.9,32.6 77.8,34.2 C79.4,35.1 81.8,35.4 84.1,35.4 C85.9,35.4 87.8,35.2 89.2,34.9 C93,34 94.6,30.2 95.3,27.2 C95.5,26.4 95.5,25.2 95.5,23.9 C94.3,21.2 93,18.8 91.6,16.6 C89.3,16.5 87.3,16.4 85.5,16.4" id="Shape" fill="#F4BE69"></path>
                        <path d="M89.3,26.8 C88.3,26.8 87.5,26 87.5,25 C87.5,24 88.3,23.2 89.3,23.2 C90.3,23.2 91.1,24 91.1,25 C91.1,26 90.3,26.8 89.3,26.8 M89.2,20.8 C86.9,20.8 85.1,22.6 85.1,24.9 C85.1,27.2 86.9,29 89.2,29 C91.5,29 93.3,27.2 93.3,24.9 C93.3,22.6 91.4,20.8 89.2,20.8" id="Shape" fill="#465566"></path>
                        <path d="M42.2,15.8 L41.4,17.1 L43.4,17.1 L44,16 L42.2,15.8" id="Shape" fill="#FECC7E"></path>
                        <path d="M35.2,28 L35.1,28.2 L35.4,28.6 C35.3,28.4 35.3,28.2 35.2,28" id="Shape" fill="#FFFFFF"></path>
                        <path d="M37.4,24.3 L35.2,28 C35.2,28.2 35.3,28.4 35.4,28.6 L36.2,29.7 C36.5,28.1 36.9,26.2 37.4,24.3" id="Shape" fill="#F4F7F6"></path>
                        <path d="M43.5,17.1 L41.5,17.1 L37.4,24.2 C36.9,26.1 36.5,28 36.2,29.7 L36.6,30.2 L39.6,24.4 C39.7,23.8 40,23.2 40.5,22.7 L43.5,17.1" id="Shape" fill="#F7CF8E"></path>
                        <path d="M40.5,22.8 C40.1,23.3 39.8,23.8 39.6,24.5 L40.5,22.8" id="Shape" fill="#77838F"></path>
                        <path d="M36.7,32.1 L36.7,32.1 L36.8,32.2 C36.7,32.2 36.7,32.2 36.7,32.1 M44.8,15.8 L44.2,17.1 L45.1,17.1 L45.3,17.1 L45.9,15.9 L44.8,15.8" id="Shape" fill="#FECC7E"></path>
                        <path d="M39.7,26.1 L36.7,32.1 C36.7,32.1 36.7,32.2 36.8,32.2 L37.4,32.6 L40.2,27.1 C39.9,26.8 39.7,26.5 39.7,26.1 M45,17.1 L44.1,17.1 L41.7,21.9 C42,21.7 42.4,21.6 42.8,21.6 L45.1,17.1 C45.1,17.1 45,17.1 45,17.1" id="Shape" fill="#F7CF8E"></path>
                        <path d="M42.8,21.6 C42.4,21.6 42,21.7 41.7,21.9 L39.6,26.1 C39.7,26.5 39.8,26.8 40,27.1 L42.8,21.6" id="Shape" fill="#77838F"></path>
                        <polyline id="Shape" fill="#F7CF8E" points="79.6 17.1 72.9 28.5 74.7 30 81.5 17.3 79.6 17.1"></polyline>
                        <polyline id="Shape" fill="#F7CF8E" points="82.5 17 75.1 31.4 76.1 31.2 83.5 17.1 82.5 17"></polyline>
                        <path d="M97.5,21.2 C97.2,16.8 96.7,15.5 96.7,15.5 C96.7,15.5 88.4,14.8 83,14.8 C77.6,14.8 69.7,16.2 68.6,16.2 C67.3,16.1 66.4,15.4 64.4,15.6 C62,15.8 61.5,17.1 59.6,16.7 C58.2,16.5 53.8,14.5 33.8,16.1 C33.8,16.1 31.5,29.5 36.9,35 C40,38.1 46.1,37.4 47.9,37.3 C49.8,37.2 53.7,36.5 56.2,34.5 C57.9,33.1 59.5,29.6 60.1,27.5 C60.9,25.2 61.5,23.4 61.9,22.5 C63.1,20.3 66.3,19.9 67.7,22.8 C68.9,25.2 69.6,29 72.3,32.2 C75,35.3 80.6,36.5 82.8,36.6 C86.5,36.7 89.3,36.3 92.1,34.8 C96.4,32.7 97.9,25.6 97.5,21.2 L97.5,21.2 Z M56.1,29.4 C55,31.8 52.4,33.8 49.4,34.4 C46.4,35.1 40.4,35.2 38.5,32.9 C35.2,28.7 36.5,19.2 36.5,19.2 C42,17.4 57.8,19.1 58,20.5 C58.3,22 57.2,27 56.1,29.4 L56.1,29.4 Z M94.4,25 C94.1,26.6 93.6,29.2 92.3,31.1 C91,33 86.6,33.7 82.2,33.1 C77.8,32.4 74.6,29.4 73.8,27.7 C72.9,26.1 71.7,22.9 71.5,21.5 C71.5,21.5 71.1,19.5 72.3,19.2 C73.1,19 78,18.1 83.4,18 C88.3,17.9 94.3,18.5 94.3,18.5 C94.3,18.5 94.9,22.2 94.4,25 L94.4,25 Z" id="Shape" fill="#737C82"></path>
                        <path d="M33,74.9 C33,74.9 44.3,72.1 41.5,62.2 C39.4,54.9 33.7,56.2 33.7,56.2 L34.2,50 C34.2,50 46.9,60.1 56.3,70 C62.8,76.8 68.2,79.8 68.2,79.8 C68.2,79.8 74.8,75 78.9,70.4 C85.3,63.4 89.1,55.8 100.9,41.3 L102.7,48.9 C102.7,48.9 95.3,47.6 95.4,55.1 C95.6,62.6 100.9,67.5 106,68.8 C106,68.8 107.6,85 108,90.1 L77.1,98.2 L69.2,91.2 L61.9,98.2 L32.2,90.3 C32.2,90.3 33,75.8 33,74.9 L33,74.9 Z" id="Shape" fill="#FBAB49"></path>
                        <path d="M68.2,79.9 C68.2,79.9 56.4,70.4 50.5,64.3 L52.3,73.8 L56.2,73.9 L56.8,78.7 L68.2,79.9 L68.2,79.9 Z" id="Shape" fill="#F59933"></path>
                        <path d="M85.2,62.5 C85.2,62.5 75.1,75.7 68.2,79.8 L80.4,77.1 L80.8,72.1 L85.5,72.1 L85.2,62.5 L85.2,62.5 Z" id="Shape" fill="#F59933"></path>
                        <circle id="Oval" fill="#F59933" cx="73.5" cy="84.5" r="1.6"></circle>
                        <circle id="Oval" fill="#F59933" cx="62.9" cy="84.5" r="1.6"></circle>
                        <path d="M128.8,82 L128.5,82.8" id="Shape" fill="#3BAF49"></path>
                        <path d="M101.4,57.7 C98.4,55.4 97.4,52.4 99.8,50.7 C104,47.7 115.3,55.6 119.3,60.3 C125.8,67.9 128.3,79.7 124.1,92.6 C120.2,104.5 107.1,110.5 103.6,107.2 C98.5,102.4 115.1,99.8 117.9,88 C119.4,81.5 118.7,72 115.2,67.1 C111.6,62.1 103.5,59.3 101.4,57.7 L101.4,57.7 Z" id="Shape" fill="#FAA435"></path>
                    </g>
                </g>
                <text id="Google-не-рекомендуе" font-family="OpenSans-Bold, Open Sans" font-size="24" font-weight="bold" fill="#B9B7BA">
                    <tspan x="72" y="34">Google не рекомендует</tspan>
                </text>
                <g id="protocol" transform="translate(17.000000, 279.000000)">
                    <g id="Group" transform="translate(0.000000, 44.000000)">
                        <g id="code_area" fill="#343434">
                            <rect id="Rectangle-6" x="0" y="0" width="402" height="74.4079368" rx="8"></rect>
                        </g>
                        <text id="&lt;!---Not-recommended" font-family="Monaco" font-size="11" font-weight="normal" fill="#B9B7BA">
                            <tspan x="6" y="34">&lt;!-- Not recommended --&gt;</tspan>
                            <tspan x="6" y="48">&lt;script src="https://www.google.com/autotrack.js"&gt;&lt;/script&gt;</tspan>
                        </text>
                    </g>
                    <text id="Указывать-протокол" font-family="OpenSans-Bold, Open Sans" font-size="20" font-weight="bold" fill="#B9B7BA">
                        <tspan x="92" y="21">Указывать протокол</tspan>
                    </text>
                    <g id="code_area" transform="translate(0.000000, 132.000000)" fill="#343434">
                        <rect id="Rectangle-6" x="0" y="0" width="402" height="74.4079368" rx="8"></rect>
                    </g>
                    <text id="/*-Not-recommended-*" font-family="Monaco" font-size="11" font-weight="normal" fill="#B9B7BA">
                        <tspan x="8" y="150">/* Not recommended */</tspan>
                        <tspan x="8" y="164">.example {</tspan>
                        <tspan x="8" y="178">background: url(https://www.google.com/images/example);</tspan>
                        <tspan x="8" y="192">}</tspan>
                    </text>
                </g>
                <g id="capitalization" transform="translate(17.000000, 507.000000)">
                    <g id="Group" transform="translate(0.000000, 44.000000)" fill="#343434">
                        <g id="code_area">
                            <rect id="Rectangle-6" x="0" y="0" width="402" height="74.4079368" rx="8"></rect>
                        </g>
                    </g>
                    <text id="Использовать-верхний" font-family="OpenSans-Bold, Open Sans" font-size="20" font-weight="bold" fill="#B9B7BA">
                        <tspan x="32" y="21">Использовать верхний регистр</tspan>
                    </text>
                    <g id="code_area" transform="translate(0.000000, 132.000000)" fill="#343434">
                        <rect id="Rectangle-6" x="0" y="0" width="402" height="74.4079368" rx="8"></rect>
                    </g>
                    <text id="&lt;!---Not-recommended" font-family="Monaco" font-size="11" font-weight="normal" fill="#B9B7BA">
                        <tspan x="13" y="77">&lt;!-- Not recommended --&gt;</tspan>
                        <tspan x="13" y="91">&lt;A HREF="/"&gt;Home&lt;/A&gt;</tspan>
                    </text>
                    <text id="/*-Not-recommended-*" font-family="Monaco" font-size="11" font-weight="normal" fill="#B9B7BA">
                        <tspan x="13" y="165">/* Not recommended */</tspan>
                        <tspan x="13" y="179">color: #E5E5E5;</tspan>
                    </text>
                </g>
                <g id="alt" transform="translate(17.000000, 730.000000)">
                    <g id="Group" transform="translate(0.000000, 50.000000)" fill="#343434">
                        <g id="code_area">
                            <rect id="Rectangle-6" x="0" y="0" width="402" height="74.4079368" rx="8"></rect>
                        </g>
                    </g>
                    <text id="Не-использовать-аттр" font-family="OpenSans-Bold, Open Sans" font-size="20" font-weight="bold" fill="#B9B7BA">
                        <tspan x="44" y="21">Не использовать аттрибут alt</tspan>
                    </text>
                    <text id="&lt;!---Not-recommended" font-family="Monaco" font-size="11" font-weight="normal" fill="#B9B7BA">
                        <tspan x="13" y="86">&lt;!-- Not recommended --&gt;</tspan>
                        <tspan x="13" y="100">&lt;img src="spreadsheet.png"&gt;</tspan>
                    </text>
                </g>
            </g>
            <g id="good" transform="translate(435.000000, -1.000000)">
                <rect id="Rectangle-path" fill="#97D7D9" x="0" y="-9.09494702e-13" width="435" height="896.31166"></rect>
                <text id="Google-рекомендует" font-family="OpenSans-Extrabold, Open Sans" font-size="24" font-weight="600" fill="#F36C36">
                    <tspan x="85" y="34">Google рекомендует</tspan>
                </text>
                <g id="protocol-copy" transform="translate(16.000000, 279.000000)">
                    <g id="Group" transform="translate(0.000000, 44.000000)" fill="#343434">
                        <rect id="Rectangle-6" x="0" y="0" width="402" height="74.4079368" rx="8"></rect>
                    </g>
                    <g id="code_area" transform="translate(0.000000, 133.000000)" fill="#343434">
                        <rect id="Rectangle-6" x="0" y="0" width="402" height="74.4079368" rx="8"></rect>
                    </g>
                    <text id="/*-Recommended-*/-.e" font-family="Monaco" font-size="11" font-weight="normal" fill="#E6825C">
                        <tspan x="10" y="153">/* Recommended */</tspan>
                        <tspan x="10" y="167">.example {</tspan>
                        <tspan x="10" y="181">background: url(//www.google.com/images/example);</tspan>
                        <tspan x="10" y="195">}</tspan>
                    </text>
                    <text id="Не-указывать-протоко" font-family="OpenSans-Bold, Open Sans" font-size="20" font-weight="bold" fill="#F36C36">
                        <tspan x="92" y="21">Не указывать протокол</tspan>
                    </text>
                    <text id="&lt;!---Recommended---&gt;" font-family="Monaco" font-size="11" font-weight="normal" fill="#E6825C">
                        <tspan x="9" y="80">&lt;!-- Recommended --&gt;</tspan>
                        <tspan x="9" y="94">&lt;script src="//www.google.com/autotrack.js"&gt;&lt;/script&gt;</tspan>
                    </text>
                </g>
                <g id="capitalization" transform="translate(17.000000, 507.000000)">
                    <g id="Group" transform="translate(0.000000, 44.000000)" fill="#343434">
                        <g id="code_area">
                            <rect id="Rectangle-6" x="0" y="0" width="402" height="74.4079368" rx="8"></rect>
                        </g>
                        <g id="code_area" transform="translate(0.000000, 88.000000)">
                            <rect id="Rectangle-6" x="0" y="0" width="402" height="74.4079368" rx="8"></rect>
                        </g>
                    </g>
                    <text id="Использовать-нижний" font-family="OpenSans-Bold, Open Sans" font-size="20" font-weight="bold" fill="#F36C36">
                        <tspan x="32" y="21">Использовать нижний регистр</tspan>
                    </text>
                    <text id="/*-Recommended-*/-co" font-family="Monaco" font-size="11" font-weight="normal" fill="#E6825C">
                        <tspan x="20" y="166">/* Recommended */</tspan>
                        <tspan x="20" y="180">color: #e5e5e5;</tspan>
                    </text>
                    <text id="&lt;!---Recommended---&gt;" font-family="Monaco" font-size="11" font-weight="normal" fill="#E6825C">
                        <tspan x="20" y="78">&lt;!-- Recommended --&gt;</tspan>
                        <tspan x="20" y="92">&lt;img src="google.png" alt="Google"&gt;</tspan>
                    </text>
                </g>
                <g id="alt" transform="translate(17.000000, 730.000000)">
                    <g id="Group" transform="translate(0.000000, 50.000000)" fill="#343434">
                        <g id="code_area">
                            <rect id="Rectangle-6" x="0" y="0" width="402" height="74.4079368" rx="8"></rect>
                        </g>
                    </g>
                    <text id="Использовать-аттрибу" font-family="OpenSans-Bold, Open Sans" font-size="20" font-weight="bold" fill="#F36C36">
                        <tspan x="60" y="21">Использовать аттрибут alt</tspan>
                    </text>
                    <text id="&lt;!---Recommended---&gt;" font-family="Monaco" font-size="11" font-weight="normal" fill="#E6825C">
                        <tspan x="12" y="83">&lt;!-- Recommended --&gt;</tspan>
                        <tspan x="12" y="97">&lt;img src="spreadsheet.png" alt="Spreadsheet screenshot."&gt;</tspan>
                    </text>
                </g>
            </g>
            <g id="hero" transform="translate(558.000000, 46.000000)">
                <g id="Group-2" transform="translate(5.000000, 18.000000)">
                    <path d="M47.7,142.2 L47.7,141.9 C47.7,139.8 46,138.1 43.9,138.1 C43.5,138.1 43.2,138.2 42.9,138.2 C42.9,135.8 40.9,133.8 38.4,133.8 C37.7,133.8 37,134 36.4,134.3 C35.6,131.6 33.1,129.7 30.1,129.7 C27.2,129.7 24.7,131.6 23.9,134.2 C23.4,134 22.7,133.8 22.1,133.8 C19.7,133.8 17.7,135.8 17.7,138.2 L17.7,138.6 C17.3,138.5 16.9,138.4 16.5,138.4 C14.5,138.4 12.9,140 12.9,142 L12.9,142.2 L47.7,142.2 L47.7,142.2 Z" id="Shape" fill="#FFFFFF" opacity="0.5"></path>
                    <path d="M192,74.7 L192,74.4 C192,72.1 190.1,70.2 187.8,70.2 C187.4,70.2 187,70.3 186.6,70.4 C186.6,67.7 184.3,65.4 181.6,65.4 C180.8,65.4 180,65.6 179.3,66 C178.4,63 175.6,60.8 172.3,60.8 C169,60.8 166.3,62.9 165.3,65.9 C164.7,65.6 164,65.5 163.3,65.5 C160.6,65.5 158.3,67.7 158.3,70.5 L158.3,70.9 C157.9,70.8 157.5,70.7 157,70.7 C154.8,70.7 153,72.5 153,74.7 L153,74.9 L192,74.9 L192,74.7 Z" id="Shape" fill="#FFFFFF" opacity="0.5"></path>
                    <path d="M40.6,31.4 L40.6,31.1 C40.6,28.7 38.6,26.7 36.2,26.7 C35.8,26.7 35.4,26.8 35,26.9 C35,24.1 32.6,21.8 29.8,21.8 C28.9,21.8 28.1,22 27.4,22.4 C26.4,19.3 23.5,17 20.1,17 C16.7,17 13.8,19.2 12.8,22.3 C12.2,22 11.5,21.9 10.7,21.9 C7.9,21.9 5.5,24.2 5.5,27.1 L5.5,27.5 C5.1,27.4 4.6,27.3 4.1,27.3 C1.8,27.3 0,29.2 0,31.4 L0,31.6 L40.6,31.6 L40.6,31.4 Z" id="Shape" fill="#FFFFFF" opacity="0.5"></path>
                    <path d="M79.7,132.9 C79.6,132.9 79.7,133 79.7,133 C79.7,133 79.7,133 79.7,132.9 L79.7,132.9 Z M80.1,134.9 C80.1,134.9 80.1,134.8 80.1,134.9 L80.1,134.9 L80.1,134.9 L80.1,134.9 Z M88.2,161.8 C87.9,160.7 87.6,159.7 87.1,158.7 C87.1,158.8 87,158.7 87,158.7 L87,158.7 L86.9,158.6 C86.9,158.5 86.9,158.5 87,158.6 C86.8,158.2 86.7,157.8 86.5,157.4 C86.5,157.4 86.5,157.4 86.4,157.3 L79.4,129.1 C79.4,129.1 79.4,129 79.5,129 C79.5,129 79.5,129 79.4,129 L79.3,128.7 L79.3,129.1 L79.3,129.1 L79.3,129.2 L79.3,129.3 L79.3,129.3 C79.3,129.5 79.3,129.6 79.4,129.8 L79.4,129.7 L79.4,129.8 L79.4,129.9 L79.4,129.9 C79.4,129.9 79.4,129.9 79.3,129.9 C79.3,129.9 79.3,129.9 79.3,130 L79.2,130 C79.3,130 79.3,130.3 79.3,130.3 L79.3,130.3 C79.3,130.5 79.3,130.3 79.4,130.4 C79.4,130.5 79.3,130.4 79.3,130.5 C79.3,130.7 79.4,130.9 79.4,131.1 C79.4,131.2 79.5,131.4 79.5,131.5 C79.5,131.6 79.4,131.5 79.5,131.6 L79.4,131.6 C79.4,131.6 79.4,131.8 79.5,131.7 C79.5,131.9 79.5,132.1 79.6,132.3 C79.6,132.2 79.5,132.2 79.5,132.3 C79.6,132.4 79.6,132.5 79.6,132.7 C79.7,132.7 79.6,132.6 79.7,132.6 L79.7,132.7 C79.7,132.7 79.6,132.7 79.6,132.9 C79.5,132.9 79.6,132.7 79.5,132.7 C79.4,132.7 79.4,132.4 79.4,132.3 C79.3,132.2 79.4,132.4 79.3,132.4 C79.3,132.5 79.4,132.6 79.4,132.7 C79.4,132.7 79.4,132.6 79.5,132.7 C79.6,132.8 79.5,132.9 79.5,132.9 L79.5,132.8 C79.5,132.9 79.6,132.9 79.6,133 C79.5,133.1 79.6,132.8 79.5,132.8 L79.4,132.9 C79.4,133.1 79.5,132.9 79.5,133.1 L79.5,133.1 L79.5,133.2 C79.5,133.2 79.6,133.2 79.6,133.1 C79.7,133.1 79.6,133.2 79.7,133.3 C79.8,133.3 79.7,133.2 79.7,133.2 L79.8,133.3 C79.8,133.4 79.8,133.4 79.7,133.4 L79.7,133.3 C79.6,133.2 79.6,133.4 79.5,133.3 C79.5,133.4 79.6,133.4 79.6,133.5 L79.7,133.5 C79.9,133.7 79.6,133.6 79.7,133.8 C79.8,133.7 79.9,134 80,133.9 L80.1,134 C80,134 80.1,134.1 80,134 L80,134.1 L79.9,134 C79.9,134.1 79.9,134.2 79.8,134.3 C79.9,134.4 79.9,134.3 79.9,134.4 C79.9,134.4 79.8,134.4 79.9,134.5 C79.9,134.4 80,134.5 80,134.5 L80,134.7 L79.9,134.6 C80,134.7 79.9,134.6 79.9,134.7 C79.9,134.7 80,134.7 80.1,134.8 L80.1,134.9 L80,134.8 C80,134.9 79.9,134.9 80,135 L80.1,135 L80.1,135 L80.2,135.1 L80.2,135.1 C80.2,135.2 80.3,135.2 80.3,135.3 C80.4,135.2 80.3,135.2 80.3,135.1 C80.3,135 80.4,135.2 80.4,135.2 C80.3,135.2 80.4,135.3 80.4,135.4 L80.4,135.5 L80.5,135.5 C80.4,135.6 80.6,135.6 80.5,135.7 L80.4,135.7 C80.5,135.6 80.5,135.8 80.6,135.8 C80.6,135.9 80.5,135.8 80.4,135.8 C80.5,135.9 80.4,136 80.5,136 C80.5,135.9 80.6,136 80.6,136 C80.6,136.1 80.6,136 80.6,136.1 C80.6,136.2 80.7,136.2 80.7,136.1 C80.7,136.2 80.8,136.2 80.8,136.3 C80.8,136.3 80.7,136.1 80.7,136.2 C80.7,136.4 80.8,136.3 80.9,136.4 C80.9,136.3 81,136.4 81.1,136.4 C81.1,136.6 81.1,136.3 81,136.4 L81,136.5 C80.9,136.6 80.8,136.3 80.8,136.4 L80.8,136.5 L80.7,136.5 C80.8,136.5 80.8,136.7 80.8,136.7 C80.9,136.7 80.8,136.6 80.8,136.6 C80.8,136.7 80.9,136.7 80.9,136.8 C80.8,136.7 80.8,136.8 80.8,136.8 C80.8,136.9 80.9,136.8 80.9,136.9 L80.9,136.9 C81,137.2 81.1,137.7 81.3,137.9 L81.3,138.3 C81.3,138.2 81.4,138.3 81.4,138.3 L81.4,138.4 C81.4,138.5 81.5,138.6 81.5,138.7 L81.5,138.7 C81.5,138.8 81.6,138.8 81.6,138.8 L81.6,138.9 L81.6,138.9 C81.6,139 81.7,139.1 81.6,139.1 C81.6,139.1 81.6,139.2 81.7,139.1 C81.7,139.2 81.7,139.4 81.8,139.6 C81.8,139.5 81.8,139.5 81.9,139.5 C82,139.5 81.9,139.5 82,139.6 C82,139.6 82,139.7 81.9,139.6 C81.9,139.8 82,140.1 82.1,140.4 C82.1,140.5 82.1,140.4 82.2,140.5 C82.2,140.7 82.3,140.9 82.3,141.1 C82.3,141.1 82.4,141.1 82.4,141.2 C82.5,141.3 82.3,141.3 82.3,141.4 C82.3,141.4 82.4,141.5 82.4,141.6 L82.4,141.6 C82.4,141.7 82.5,141.7 82.5,141.8 L82.5,141.8 L82.5,142 C82.6,142 82.6,142.2 82.6,142.2 L82.6,142.2 L82.6,142.2 L82.6,142.3 C82.6,142.3 82.6,142.3 82.5,142.2 C82.5,142.3 82.6,142.2 82.6,142.3 C82.7,142.4 82.6,142.4 82.6,142.4 L82.6,142.3 L82.6,142.4 C82.6,142.4 82.7,142.4 82.7,142.5 C82.7,142.6 82.8,142.7 82.7,142.7 C82.7,142.7 82.7,142.8 82.8,142.8 L82.8,142.6 L82.8,142.7 L82.8,142.7 C82.8,142.7 82.8,142.9 82.9,142.8 L82.9,142.9 C82.9,142.9 83,143 83,143.1 C82.9,143.1 82.9,143.1 82.9,143.2 L83,143.3 L83,143.4 C83,143.6 83.2,143.6 83.2,143.8 C83.1,143.7 83.1,143.8 83.1,143.9 L83.1,143.9 C83.1,143.9 83,143.9 83.1,143.8 C83.1,143.8 83.1,143.9 83.2,143.9 C83.1,144.1 83.3,144.4 83.2,144.6 C83.3,144.6 83.2,144.7 83.3,144.8 C83.2,144.8 83.3,144.9 83.3,145 L83.4,144.9 C83.4,145.1 83.6,145.1 83.5,145.2 C83.5,145.3 83.4,145.2 83.4,145.2 C83.3,145.3 83.5,145.5 83.5,145.6 L83.6,145.6 L83.6,145.8 C83.6,145.9 83.7,145.9 83.6,146 C83.6,146 83.6,146 83.6,145.9 C83.6,146 83.7,146.1 83.7,146.2 L83.7,146.6 C83.8,146.7 83.7,146.8 83.8,146.8 L83.8,146.8 L83.9,146.9 L83.8,146.9 C83.7,146.9 83.8,147.1 83.8,147.1 C83.8,147 83.8,147.2 83.9,147.2 L83.9,147.3 C83.9,147.4 83.9,147.3 84,147.4 C84,147.5 83.9,147.4 83.9,147.4 L83.9,147.6 L83.9,147.6 L83.9,147.6 C83.9,147.6 83.9,147.6 83.9,147.7 L83.9,147.7 L83.9,147.6 C83.9,147.6 83.9,147.6 83.9,147.7 L83.9,147.7 C83.9,147.7 83.9,147.7 83.9,147.8 L83.8,147.8 C83.8,147.9 83.9,148 83.9,148 C83.9,148.2 84,148.5 84.1,148.6 L84.1,148.6 C84.1,148.7 84.2,148.7 84.2,148.7 L84.2,148.9 L84.2,148.9 C84.2,149.1 84.3,149.3 84.3,149.5 C84.3,149.5 84.3,149.5 84.2,149.5 C84.3,149.7 84.3,149.8 84.4,149.9 C84.4,149.9 84.4,149.9 84.3,149.9 C84.3,150 84.4,150.1 84.4,150.2 C84.4,150.1 84.4,150.2 84.4,150.2 C84.4,150.1 84.5,150.2 84.5,150.3 L84.5,150.3 C84.5,150.4 84.6,150.4 84.6,150.5 C84.6,150.6 84.6,150.4 84.5,150.5 C84.4,150.5 84.5,150.8 84.5,150.8 C84.5,150.8 84.5,150.9 84.6,150.8 C84.6,150.9 84.6,150.8 84.6,150.9 L84.8,151.1 L84.8,151.1 C84.8,151.1 84.8,151.2 84.7,151.1 C84.7,151.2 84.8,151.3 84.8,151.3 C84.8,151.4 84.9,151.6 84.9,151.7 C84.9,151.7 84.8,151.8 84.8,151.7 C84.8,151.8 84.9,152 84.9,152.2 C85,152.1 85,152.3 85.1,152.3 L85.1,152.4 C85.1,152.4 85,152.4 85,152.5 C85.1,152.7 85.1,152.8 85.1,153 L85.1,153 C85.2,153.1 85.2,153.4 85.3,153.5 L85.3,153.5 L85.3,153.5 C85.3,153.6 85.3,153.6 85.4,153.6 L85.4,153.7 L85.4,153.7 C85.5,153.8 85.4,153.9 85.5,154 L85.5,154 L85.5,154 C85.5,154.1 85.6,154.2 85.6,154.3 L85.6,154.3 C85.6,154.3 85.6,154.3 85.6,154.4 C85.6,154.4 85.6,154.4 85.5,154.4 C85.5,154.5 85.6,154.5 85.6,154.5 L85.6,154.6 L85.6,154.7 C85.6,154.7 85.6,154.8 85.7,154.8 C85.7,154.9 85.7,154.9 85.8,155 L85.8,155.1 C86,155.6 86.2,156.2 86.4,156.7 L86.4,156.8 C86.4,156.9 86.3,156.7 86.3,156.8 C86.4,156.8 86.4,156.9 86.4,157 L86.4,157 C86.4,157.1 86.4,157.1 86.5,157.2 L86.5,157.2 C86.6,157.3 86.5,157.4 86.6,157.4 L86.6,157.5 C86.7,157.5 86.6,157.6 86.7,157.7 L86.7,157.7 C86.7,157.8 86.9,157.9 86.9,158 C86.9,158.1 87,158.2 87,158.2 L87,158.2 C87,158.2 87,158.2 86.9,158.2 C87,158.5 87.2,158.8 87.3,159.1 C87.3,159.2 87.4,159.3 87.4,159.4 L87.4,159.3 C87.4,159.4 87.5,159.4 87.5,159.5 L87.5,159.5 C87.7,159.7 87.6,160 87.8,160.1 L87.9,160.1 L87.9,160.2 C88,160.2 88,160.4 88,160.4 L88,160.4 C88,160.5 88.2,160.6 88.2,160.7 L88.2,160.7 C88.2,160.9 88.3,161.1 88.3,161.3 C88.1,160.6 87.9,160 87.6,159.3 L88.9,164.5 C88.9,164.2 88.9,164 88.8,163.7 C88.8,163.8 88.9,163.9 88.9,164 C89,164.3 89.2,164.4 89.2,164.4 C89.1,163.5 89,162.8 88.9,161.9 C88.4,162.4 88.2,162 88.2,161.8 L88.2,161.8 Z M79.4,129.3 L79.4,129.3 L79.4,129.4 L79.4,129.4 L79.4,129.4 C79.4,129.4 79.4,129.4 79.4,129.5 L79.4,129.3 L79.4,129.3 Z M88.1,163.2 C88.1,163.1 88.1,163 88,162.9 C88.1,162.9 88.1,163 88.1,163.2 C88.2,163.1 88.2,163.2 88.1,163.2 L88.1,163.2 Z M88.2,163.4 C88.2,163.6 88.3,163.7 88.3,163.9 C88.2,163.7 88.2,163.6 88.2,163.4 L88.2,163.4 Z M79.5,131.7 L79.5,131.7 C79.4,131.7 79.4,131.8 79.4,131.8 L79.3,131.8 C79.5,131.9 79.5,131.8 79.5,131.7 L79.5,131.7 L79.5,131.7 Z M79.6,132.2 L79.5,132 C79.5,132.1 79.6,132.2 79.6,132.2 L79.6,132.2 Z M79.6,132.9 L79.6,132.9 C79.6,132.9 79.6,132.8 79.6,132.9 L79.6,132.9 Z M79.5,128.8 L79.5,128.8 C79.5,128.9 79.5,128.7 79.5,128.8 L79.5,128.8 Z M83.9,150.7 C83.9,150.6 83.9,150.7 83.9,150.7 C83.9,150.7 83.8,150.6 83.9,150.7 L83.9,150.7 Z M83.8,150.3 C83.8,150.2 83.8,150.2 83.8,150.3 C83.8,150.2 83.8,150.2 83.8,150.3 L83.8,150.3 Z M79.9,134.4 L79.9,134.3 C79.8,134.2 79.9,134.3 79.9,134.4 L79.9,134.4 Z M79.8,133.8 C79.8,133.8 79.8,133.9 79.8,133.8 C79.9,133.9 79.8,133.8 79.8,133.8 L79.8,133.8 Z M114.6,136.9 L114.6,136.8 C114.6,137.1 114.6,136.8 114.6,136.9 L114.6,136.9 Z M114.9,140.9 L114.9,140.9 L114.9,140.9 L114.9,140.9 L114.9,140.9 Z M122.6,167.9 L122.6,167.9 C122.6,167.9 122.5,167.8 122.6,167.9 L122.6,167.9 Z M115.8,144.8 L115.8,144.6 C115.7,144.6 115.8,144.8 115.8,144.8 L115.8,144.8 Z M115.2,142.7 L115.2,142.7 C115.2,142.8 115.2,142.8 115.2,142.7 L115.2,142.7 Z M114.9,141.2 C114.9,141.3 114.9,141.2 114.9,141.2 C114.9,141.3 114.9,141.2 114.9,141 L114.9,141 C114.9,141 114.9,141 114.8,141 C114.9,141.1 114.9,141.2 114.9,141.2 L114.9,141.2 Z M122.5,167.4 C122.5,167.3 122.4,167.3 122.5,167.4 C122.4,167.3 122.4,167.3 122.5,167.4 L122.5,167.4 Z M114.9,141.1 C114.9,141 114.9,141 114.9,141.1 C114.9,141 114.9,141 114.9,141.1 L114.9,141.1 Z M115.3,142.8 L115.3,142.9 L115.3,142.8 L115.3,142.8 Z M116.1,145.5 L116.1,145.5 L116.1,145.5 C116,145.6 116.1,145.6 116.1,145.5 L116.1,145.5 Z M115.1,141.8 L115,141.5 C115,141.6 115.1,141.8 115.1,141.8 L115.1,141.8 Z M129.8,188.5 C129.3,187.4 129,186.4 128.7,185.2 C128.6,184.8 128.4,184.3 128.3,184 C127.8,182.5 127.4,181 126.9,179.5 L126.9,179.5 L114.6,137.2 L114.6,137.1 C114.6,137.1 114.6,137.1 114.5,137.1 L114.4,136.7 C114.4,136.9 114.4,137.1 114.5,137.3 L114.5,137.3 L114.5,137.4 L114.5,137.5 L114.5,137.5 C114.5,137.7 114.5,137.9 114.6,138.2 L114.6,138.1 C114.6,138.2 114.6,138.2 114.7,138.3 L114.7,138.4 C114.7,138.4 114.7,138.4 114.7,138.5 C114.7,138.4 114.7,138.5 114.6,138.5 L114.6,138.6 L114.5,138.5 C114.6,138.5 114.6,138.9 114.6,139 L114.6,139 C114.6,139.2 114.6,139 114.7,139.1 C114.7,139.2 114.6,139.2 114.6,139.3 C114.6,139.5 114.8,139.9 114.8,140.1 C114.9,140.3 114.9,140.5 115,140.7 C115,140.9 114.9,140.7 115,140.9 L114.9,140.9 C114.9,140.9 115,141.2 115,141.1 C115,141.4 115.1,141.6 115.2,141.9 C115.2,141.8 115.1,141.8 115.1,141.9 C115.2,142 115.3,142.2 115.3,142.4 C115.4,142.4 115.3,142.3 115.4,142.3 L115.5,142.4 C115.5,142.4 115.4,142.5 115.4,142.7 C115.3,142.7 115.3,142.4 115.3,142.5 C115.2,142.4 115.1,142.1 115.1,142 C115,141.8 115.1,142.1 115,142.1 C115,142.3 115.1,142.3 115.2,142.6 C115.2,142.6 115.2,142.5 115.3,142.6 C115.4,142.8 115.3,142.9 115.3,142.9 L115.3,142.8 C115.3,143 115.4,143 115.4,143.1 C115.3,143.2 115.3,142.9 115.2,142.8 L115.2,142.9 C115.3,143.1 115.3,142.9 115.3,143.2 L115.3,143.2 L115.4,143.3 C115.4,143.3 115.5,143.2 115.4,143.1 C115.5,143.2 115.4,143.2 115.5,143.4 C115.6,143.5 115.5,143.3 115.5,143.3 C115.5,143.3 115.6,143.4 115.6,143.5 L115.6,143.7 C115.6,143.7 115.5,143.5 115.6,143.5 C115.5,143.3 115.5,143.6 115.4,143.5 C115.4,143.7 115.5,143.6 115.5,143.7 C115.5,143.6 115.6,143.7 115.6,143.7 C115.8,143.9 115.5,143.9 115.6,144.2 C115.7,144.1 115.8,144.5 115.9,144.3 C115.9,144.4 116,144.4 116,144.5 C115.9,144.4 116,144.6 115.9,144.5 L115.9,144.6 L115.8,144.5 L115.8,144.9 C115.9,145 115.8,144.8 115.9,145 L115.9,145.1 C115.9,144.9 116,145.1 116,145.2 L116,145.5 L115.9,145.4 C116,145.5 115.9,145.5 115.9,145.6 C115.9,145.6 116,145.7 116.1,145.7 L116.1,145.9 L116,145.8 C116.1,146 115.9,145.9 116,146.1 L116.1,146.1 C116.1,146.1 116.1,146.2 116.1,146.1 C116.1,146.1 116.2,146.2 116.2,146.3 L116.2,146.3 C116.2,146.4 116.3,146.5 116.3,146.6 C116.4,146.5 116.3,146.5 116.3,146.4 C116.3,146.3 116.4,146.5 116.4,146.6 C116.3,146.6 116.5,146.8 116.5,146.9 L116.5,147.1 L116.6,147.1 C116.5,147.2 116.7,147.3 116.7,147.4 C116.7,147.4 116.6,147.4 116.6,147.5 C116.6,147.4 116.7,147.6 116.8,147.6 C116.8,147.8 116.7,147.6 116.6,147.7 C116.7,147.8 116.6,147.9 116.7,148 C116.7,147.8 116.8,148 116.8,148 C116.8,148.2 116.8,148 116.8,148.1 C116.8,148.2 116.9,148.3 116.9,148.1 C116.9,148.2 117,148.3 117,148.4 C117,148.5 116.9,148.2 116.9,148.3 C117,148.6 117.1,148.4 117.1,148.6 C117.1,148.5 117.2,148.6 117.3,148.7 C117.4,149 117.2,148.6 117.2,148.7 L117.2,148.8 C117.2,149 117,148.5 116.9,148.7 L117,148.8 L116.9,148.8 C117,148.8 117,149.1 117,149.1 C117.1,149.1 117,149 117,149 C117,149.1 117.1,149.1 117.2,149.3 C117.1,149.2 117.1,149.4 117.1,149.3 C117.1,149.4 117.2,149.3 117.2,149.4 L117.2,149.4 C117.3,149.9 117.5,150.5 117.7,150.9 L117.7,151.4 C117.7,151.3 117.8,151.4 117.8,151.4 L117.8,151.5 C117.8,151.6 117.9,151.8 118,151.9 L118,151.9 C118,152 118.1,152 118.1,152.1 L118.1,152.2 L118.1,152.2 C118.2,152.3 118.2,152.5 118.1,152.5 C118.1,152.5 118.2,152.6 118.2,152.5 C118.2,152.6 118.3,153 118.4,153.2 L118.4,153.1 C118.5,153.1 118.4,153.2 118.5,153.2 C118.5,153.2 118.5,153.3 118.4,153.2 C118.4,153.5 118.6,153.9 118.7,154.3 C118.7,154.4 118.7,154.3 118.8,154.4 C118.8,154.7 118.9,154.9 119,155.2 C119,155.1 119.1,155.2 119.2,155.3 C119.3,155.4 119.1,155.4 119.1,155.5 C119.1,155.6 119.2,155.7 119.2,155.7 L119.2,155.7 C119.3,155.8 119.3,155.9 119.3,156 L119.3,156 L119.3,156.3 C119.4,156.3 119.4,156.5 119.5,156.6 L119.5,156.6 L119.5,156.6 L119.5,156.8 C119.5,156.8 119.4,156.8 119.4,156.7 C119.4,156.9 119.5,156.7 119.5,156.8 C119.6,156.9 119.5,156.9 119.5,157 L119.5,156.9 C119.4,156.8 119.5,157 119.5,157 C119.5,157 119.6,157 119.6,157.1 C119.6,157.2 119.7,157.4 119.6,157.4 C119.6,157.5 119.7,157.5 119.7,157.6 L119.7,157.4 C119.7,157.5 119.8,157.6 119.8,157.6 L119.8,157.6 C119.8,157.6 119.9,157.8 119.9,157.7 L119.9,157.8 C120,157.8 120,158 120,158.1 C120,158.1 119.9,158.1 119.9,158.2 L120,158.4 L120,158.5 C120.1,158.8 120.2,158.8 120.2,159 C120.1,158.9 120.1,159 120.1,159.1 L120.1,159.1 C120.1,159.1 120,159.1 120.1,159 L120.2,159.1 C120.1,159.3 120.4,159.8 120.4,160.2 C120.5,160.2 120.5,160.3 120.5,160.4 C120.4,160.4 120.6,160.6 120.5,160.7 L120.6,160.6 C120.6,160.8 120.8,160.9 120.8,161.1 C120.8,161.2 120.7,161.1 120.7,161 C120.7,161.2 120.9,161.4 120.8,161.6 C120.8,161.6 120.9,161.5 120.9,161.7 L120.9,162 C120.9,162.1 121,162.1 121,162.2 C121,162.2 121,162.2 120.9,162.1 C120.9,162.3 121,162.4 121.1,162.5 C121.1,162.6 121.2,162.9 121.2,163.1 C121.3,163.2 121.3,163.4 121.4,163.4 L121.4,163.4 C121.4,163.5 121.5,163.5 121.6,163.6 L121.5,163.6 C121.4,163.6 121.6,163.9 121.5,163.9 C121.5,163.8 121.5,164 121.6,164 L121.6,164.1 C121.7,164.3 121.6,164.1 121.7,164.3 C121.7,164.4 121.6,164.4 121.6,164.3 C121.6,164.4 121.6,164.5 121.7,164.6 L121.7,164.6 L121.7,164.6 L121.7,164.7 L121.7,164.7 L121.7,164.6 L121.7,164.7 L121.7,164.7 L121.7,164.8 L121.6,164.8 C121.6,164.9 121.7,165 121.7,165 C121.7,165.3 121.9,165.7 122,165.9 L122,165.9 C122,166 122.1,166.1 122.1,166.1 L122.1,166.3 L122.1,166.3 C122.1,166.6 122.3,166.8 122.3,167.1 C122.3,167.1 122.3,167.1 122.2,167 C122.3,167.2 122.4,167.4 122.5,167.6 C122.5,167.6 122.5,167.6 122.4,167.5 C122.4,167.7 122.5,167.8 122.6,167.9 C122.6,167.8 122.6,167.9 122.6,167.8 C122.6,167.7 122.7,167.9 122.7,168 L122.7,168 C122.7,168.2 122.8,168.2 122.8,168.3 C122.8,168.4 122.8,168.2 122.7,168.3 C122.6,168.4 122.8,168.7 122.8,168.7 L122.9,168.8 C123,168.9 122.9,168.9 122.9,168.9 L123.1,169.2 L123.1,169.2 C123.1,169.2 123.1,169.3 123,169.2 C123.1,169.4 123.1,169.5 123.2,169.5 C123.3,169.7 123.3,169.9 123.4,170.1 C123.4,170.1 123.4,170.2 123.3,170.1 C123.4,170.2 123.4,170.5 123.5,170.8 C123.5,170.6 123.6,171 123.7,171 L123.7,171.1 C123.7,171.1 123.6,171.1 123.7,171.2 C123.8,171.4 123.9,171.7 123.9,171.9 L123.9,171.9 C124,172.1 124.1,172.4 124.2,172.6 L124.2,172.6 C124.2,172.6 124.2,172.6 124.1,172.6 C124.1,172.7 124.2,172.7 124.2,172.7 L124.2,172.8 L124.2,172.8 C124.3,172.9 124.3,173.1 124.4,173.3 L124.4,173.3 C124.4,173.3 124.4,173.3 124.3,173.3 C124.4,173.4 124.4,173.6 124.5,173.7 L124.5,173.8 C124.5,173.8 124.5,173.8 124.4,173.7 C124.4,173.8 124.5,173.9 124.5,173.9 L124.5,174 L124.5,174.1 C124.5,174.1 124.6,174.3 124.6,174.4 L124.6,174.5 L124.6,174.7 C124.8,175.5 125.1,176.3 125.4,177 L125.4,177.1 C125.4,177.2 125.3,176.9 125.3,177 C125.4,177 125.4,177.1 125.5,177.4 L125.5,177.4 C125.5,177.5 125.5,177.6 125.6,177.7 L125.6,177.7 C125.7,177.8 125.6,178 125.7,178 L125.7,178.1 C125.8,178.2 125.7,178.3 125.8,178.4 L125.8,178.4 C125.8,178.6 126,178.8 126,178.9 C126.1,179 126.1,179.2 126.2,179.2 L126.2,179.3 C126.2,179.3 126.2,179.3 126.1,179.3 C126.3,179.7 126.4,180.2 126.6,180.6 C127,181.8 127.4,182.9 127.7,184 C127.8,184.4 127.9,184.8 128.1,185.1 C128.2,185.3 128.2,185.4 128.3,185.6 L128.3,185.6 C128.3,185.7 128.4,185.7 128.4,185.8 C128.7,186.7 129,187.5 129.3,188.3 L129.1,187.5 C129.1,187.5 129.1,187.6 129.2,187.6 C129.6,188.4 129.8,188.5 129.8,188.5 L129.8,188.5 Z M114.6,137.7 L114.6,137.7 L114.6,137.9 L114.6,137.9 L114.6,137.9 L114.6,138 L114.6,137.7 L114.6,137.7 Z M114.7,173 C114.4,172.2 114.3,171.3 114,170.4 C114,170.5 113.9,170.4 113.9,170.4 L113.9,170.4 L113.8,170.3 C113.8,170.2 113.8,170.2 113.9,170.3 C113.8,170 113.7,169.7 113.6,169.3 C113.5,169.3 113.5,169.1 113.5,169.1 L113.5,169.1 C113.4,168.9 113.4,168.9 113.4,168.6 C113.2,167.7 112.9,166.8 112.7,165.9 C112.4,165 112.1,164.1 111.8,163.2 C111.7,163.1 111.6,162.9 111.5,162.7 L111.5,162.7 C111.4,162.6 111.5,162.5 111.4,162.3 C111.4,162.3 111.4,162.2 111.3,162.3 C111.2,162.3 111.3,162.2 111.3,162.1 L111.3,162.1 C111.2,161.9 111.3,162.1 111.3,161.8 C111.2,161.4 111,161 110.9,160.6 C110.9,160.6 110.9,160.7 110.9,160.6 C111,160.5 110.8,160.5 110.8,160.4 L110.9,160.4 C110.9,160.2 110.8,160.1 110.8,159.9 C110.7,159.8 110.7,159.5 110.6,159.4 L110.6,159.3 C110.4,159.2 110.5,159 110.4,158.9 L110.4,158.9 C110.3,158.5 110.1,158 109.9,157.5 C109.8,157.2 109.8,156.9 109.6,156.7 C109.6,156.7 109.6,156.7 109.5,156.7 C109.5,156.6 109.5,156.7 109.5,156.7 C109.4,156.6 109.4,156.4 109.3,156.2 C109.3,156.2 109.2,156.1 109.2,156.2 C109.2,156 109,155.8 109,155.5 C108.9,155.6 108.9,155.4 108.9,155.4 C108.9,155.4 108.9,155.3 108.9,155.4 C108.8,155.3 108.8,155.2 108.8,155 C108.8,154.9 108.7,154.9 108.7,154.8 C108.7,154.7 108.6,154.6 108.6,154.5 C108.6,154.5 108.5,154.4 108.4,154.3 L108.5,154.3 C108.3,154 108.2,153.6 108,153.2 L108,153.2 C107.8,152.9 107.7,152.5 107.5,152.2 C107.5,152.1 107.4,151.9 107.4,151.8 C107.3,151.7 107.3,151.6 107.2,151.6 L107.2,151.5 C107.1,151.3 107.1,151.2 107,151.1 L107,151.1 C106.9,151 106.8,150.8 106.8,150.7 C106.7,150.7 106.7,150.5 106.7,150.6 C106.7,150.5 106.8,150.5 106.7,150.5 L106.8,150.5 C106.7,150.2 106.5,149.9 106.4,149.6 C106.4,149.5 106.3,149.3 106.2,149.1 C106.1,149 106.1,148.8 106,148.8 L106,148.8 C105.9,148.7 105.9,148.5 105.8,148.3 C105.8,148.2 105.7,148.2 105.6,148.1 L105.6,148.1 C105.5,148 105.5,148 105.4,148 L105.4,148 L105.4,147.9 C105.5,148 105.5,148 105.6,148 C105.6,147.9 105.4,147.8 105.4,147.7 C105.4,147.6 105.3,147.5 105.3,147.6 C105.3,147.6 105.3,147.5 105.3,147.6 C105.3,147.5 105.2,147.5 105.2,147.5 L105.2,147.5 C105.2,147.5 105.1,147.4 105.1,147.5 L105.1,147.4 C105.1,147.4 105.2,147.5 105.2,147.4 L105,147.3 C104.9,147.1 104.8,147 104.8,147 L104.9,147.4 L104.9,147.4 L104.9,147.4 L104.9,147.4 L104.9,147.4 C105,147.5 105,147.6 105,147.7 L105.1,147.9 L105.1,147.9 L105.1,147.9 L105.2,148.2 L105.2,148.2 L105.3,148.3 L105.6,149 L105.6,149 L105.6,149 L105.7,149.4 L105.6,149.3 C105.6,149.4 105.7,149.4 105.7,149.4 L105.8,149.8 C105.7,149.7 105.7,149.6 105.7,149.6 C105.6,149.5 105.7,149.7 105.7,149.7 C105.7,149.8 105.8,149.8 105.9,149.9 L105.9,149.9 L105.9,149.9 L105.9,150 C105.9,150 105.9,150 105.9,149.9 L105.9,150 L105.9,150 L105.9,150.1 L105.9,150.2 C105.9,150.2 105.9,150.1 105.8,150.1 L105.8,150.2 C105.8,150.3 105.9,150.2 105.9,150.3 L105.9,150.3 L106,150.4 L106,150.4 L106.1,150.6 C106.1,150.6 106.1,150.6 106,150.6 C106,150.7 106.1,150.7 106.1,150.7 L106.2,151 L106.2,151 L114.2,173.4 L114.2,173.5 L114.4,174 L114.4,174 L114.4,174.1 L114.5,174.4 C114.5,174.3 114.4,174.2 114.4,174.1 C114.6,174.4 114.6,174.9 114.8,175.1 C114.9,175.4 115.1,175.4 115.1,175.4 C114.8,174.8 114.7,174.2 114.6,173.5 C114.8,173.4 114.7,173.2 114.7,173 L114.7,173 Z M112,165.3 L112,165.3 L112,165.3 C111.9,165.3 111.9,165.1 111.9,165 L112,165.1 L112,165.3 C112,165.4 112.1,165.3 112,165.3 L112,165.3 Z M112.1,165.9 L112.1,165.9 C112.1,165.8 112.1,165.8 112.1,165.9 L112.1,165.9 L112.1,165.9 Z M112.4,166.9 C112.4,166.9 112.4,166.8 112.4,166.9 C112.4,166.8 112.5,166.8 112.4,166.9 L112.4,166.9 L112.4,166.9 Z M112.6,167.4 L112.6,167.4 C112.6,167.3 112.6,167.4 112.6,167.4 L112.6,167.4 L112.6,167.4 Z M113.1,169.3 C113.1,169.3 113.1,169.2 113.1,169.3 C113.1,169.2 113.1,169.3 113.1,169.3 L113.1,169.3 L113.1,169.3 Z M113.7,171.3 C113.7,171.4 113.8,171.5 113.8,171.6 L113.8,171.6 C113.9,171.8 113.9,172 114,172.1 L114.1,172.1 C114.1,172.2 114.1,172.2 114,172.2 L114.1,172.4 L114.1,172.4 C114.1,172.5 114.2,172.6 114.2,172.7 L114.2,172.7 C114.2,172.9 114.2,173.1 114.3,173.3 C114.1,172.6 113.9,171.9 113.7,171.3 L113.7,171.3 Z M114.6,174.1 C114.6,174 114.5,173.9 114.5,173.8 C114.6,173.9 114.6,174 114.6,174.1 L114.6,174.1 L114.6,174.1 Z M110.7,160.1 L110.7,160.1 L110.7,160.1 L110.7,160.1 L110.7,160.1 Z M105.1,147.1 L105.1,147.1 C105.1,147.2 105.1,147.1 105.1,147.1 L105.1,147.1 Z M105.1,146.9 L105.1,146.9 C105.1,147 105,146.9 105.1,146.9 L105.1,146.9 Z M105.3,147.4 C105.3,147.4 105.3,147.5 105.3,147.4 L105.3,147.4 L105.3,147.4 Z M105.7,149.2 C105.7,149.1 105.7,149.1 105.7,149.2 C105.7,149.1 105.7,149.1 105.7,149.2 C105.7,149.1 105.7,149.1 105.7,149.2 L105.7,149.2 Z M106,150.1 L106,150.1 C106,150.2 106,150.2 106,150.1 L106,150.1 Z M105.7,149.3 L105.7,149.3 C105.7,149.4 105.7,149.3 105.7,149.2 L105.7,149.2 C105.7,149.2 105.7,149.2 105.6,149.2 C105.7,149.2 105.7,149.3 105.7,149.3 L105.7,149.3 Z M109.1,155.4 C109.1,155.4 109,155.4 109.1,155.4 C109,155.4 109.1,155.4 109.1,155.4 C109.1,155.5 109.1,155.4 109.1,155.4 L109.1,155.4 Z M114.8,174.5 C114.9,174.9 115.1,175.3 115.2,175.6 L114.8,174.5 L114.8,174.5 Z M95.3,146.7 C95.3,146.7 95.3,146.8 95.3,146.7 C95.3,146.8 95.3,146.7 95.3,146.7 L95.3,146.7 Z M95.2,146.5 L95.2,146.5 C95.2,146.6 95.2,146.4 95.2,146.5 L95.2,146.5 Z M96.5,151.6 C96.5,151.6 96.5,151.7 96.5,151.6 C96.6,151.7 96.5,151.7 96.5,151.6 L96.5,151.6 Z M96.7,152.2 L96.7,152.1 C96.6,152 96.7,152.1 96.7,152.2 L96.7,152.2 Z M95.8,149.4 C95.8,149.5 95.8,149.5 95.8,149.4 C95.9,149.5 95.8,149.4 95.8,149.4 L95.8,149.4 Z M96.3,150.7 C96.2,150.7 96.3,150.8 96.3,150.8 C96.3,150.8 96.3,150.8 96.3,150.7 L96.3,150.7 Z M96.2,150.7 C96.2,150.7 96.1,150.7 96.2,150.7 L96.2,150.7 L96.2,150.7 Z M106,180.8 C105.8,179.7 105.6,178.5 105.3,177.4 C105.3,177.5 105.2,177.4 105.2,177.4 L105.2,177.4 L105.1,177.3 C105.1,177.2 105.1,177.2 105.2,177.3 C105.1,176.8 105,176.4 104.9,176 C104.8,176 104.8,175.8 104.8,175.8 L104.8,175.8 C104.7,175.5 104.7,175.5 104.7,175.2 C104.4,174 104.1,172.9 103.8,171.7 C103.5,170.5 103.1,169.4 102.7,168.2 C102.5,168 102.5,167.8 102.4,167.6 L102.4,167.6 C102.3,167.4 102.3,167.4 102.3,167.1 C102.3,167.1 102.3,167 102.2,167.1 C102.1,167 102.2,166.9 102.2,166.8 L102.2,166.8 C102,166.5 102.3,166.8 102.2,166.4 C102,165.9 101.8,165.3 101.7,164.8 C101.7,164.8 101.7,164.9 101.7,164.8 C101.8,164.7 101.6,164.6 101.6,164.5 C101.6,164.5 101.6,164.5 101.7,164.6 C101.7,164.4 101.5,164.2 101.5,163.9 C101.4,163.7 101.4,163.4 101.3,163.3 L101.3,163.1 C101.1,163 101.2,162.7 101.1,162.5 L101.1,162.5 C100.9,161.9 100.7,161.3 100.5,160.7 C100.4,160.4 100.4,160 100.2,159.6 C100.2,159.5 100.2,159.6 100.1,159.5 C100.1,159.4 100.1,159.5 100.1,159.4 C100,159.2 100,159 99.9,158.8 L99.8,158.7 C99.8,158.4 99.6,158.1 99.5,157.8 C99.4,157.9 99.4,157.7 99.3,157.6 L99.3,157.5 C99.2,157.3 99.2,157.2 99.1,157 C99.1,156.9 99,156.9 99,156.8 C99,156.7 98.9,156.5 98.9,156.4 C98.9,156.5 98.8,156.3 98.7,156.2 L98.8,156.2 C98.6,155.8 98.5,155.2 98.3,154.8 L98.3,154.7 C98.1,154.2 98,153.8 97.7,153.3 C97.7,153.2 97.6,153 97.6,152.8 C97.5,152.6 97.5,152.6 97.4,152.5 L97.4,152.4 C97.3,152.2 97.3,152 97.2,151.8 L97.2,151.8 C97.1,151.6 97,151.4 96.9,151.2 C96.8,151.2 96.8,151 96.7,151.1 C96.7,151 96.8,151 96.7,151 L96.8,151 C96.7,150.6 96.5,150.2 96.3,149.8 C96.3,149.7 96.2,149.4 96.1,149.2 C96,149.1 96,148.8 95.9,148.8 L95.9,148.8 C95.8,148.6 95.8,148.4 95.7,148.1 C95.7,148 95.6,148 95.5,147.9 L95.5,147.9 C95.4,147.8 95.4,147.8 95.3,147.8 C95.3,147.8 95.3,147.8 95.3,147.7 L95.3,147.5 C95.4,147.6 95.4,147.6 95.5,147.7 C95.5,147.5 95.3,147.4 95.3,147.3 C95.3,147.2 95.2,147.1 95.2,147.1 C95.2,147.1 95.2,147 95.3,147.1 C95.3,147 95.2,147 95.2,146.9 C95.2,146.9 95.2,146.9 95.2,147 L95.1,146.9 L95.1,146.8 C95.1,146.8 95.2,146.9 95.2,146.8 L95,146.6 C94.9,146.5 94.9,146.3 94.8,146.2 L94.9,146.6 L94.9,146.6 L94.9,146.6 L94.9,146.7 L94.9,146.7 L95,146.8 L95,146.8 L95,146.8 C95.1,147 95.1,147.1 95.2,147.3 L95.2,147.3 L95.3,147.5 L95.3,147.5 L95.3,147.5 L95.3,147.6 L95.2,147.6 C95.2,147.6 95.3,147.6 95.3,147.7 L95.4,147.9 L95.4,147.9 L95.4,148 L95.4,148.1 C95.4,148.1 95.4,148.1 95.4,148.2 C95.5,148.4 95.6,148.6 95.6,148.8 C95.6,148.9 95.7,148.9 95.7,149 L95.8,149.4 L95.8,149.4 C95.8,149.4 95.9,149.6 95.9,149.5 L96,150 L96,150 C96,150 96,150 96.1,150.1 L96.2,150.5 L96.2,150.5 C96.1,150.5 96,150.2 96,150.1 C95.9,150 96,150.2 95.9,150.2 C95.9,150.3 96,150.4 96.1,150.5 C96.1,150.5 96.1,150.4 96.2,150.5 L96.2,150.5 L96.2,150.6 L96.2,150.7 L96.2,150.6 C96.2,150.7 96.3,150.7 96.3,150.8 C96.2,150.9 96.2,150.6 96.2,150.6 L96.2,150.7 C96.3,150.9 96.3,150.7 96.3,150.9 L96.3,150.9 L96.4,151 C96.4,151 96.5,150.9 96.4,150.9 C96.5,150.9 96.4,151 96.5,151.1 L96.5,151.1 L96.5,151.2 C96.4,151.1 96.4,151.3 96.4,151.2 C96.4,151.3 96.5,151.3 96.5,151.4 L96.6,151.4 L96.7,151.6 C96.7,151.6 96.6,151.7 96.7,151.8 L96.8,151.8 L96.9,152.1 L96.9,152.3 C97,152.4 96.9,152.3 97,152.3 L97,152.3 L97,152.4 L97,152.3 L97.1,152.6 L97.1,152.6 L97,152.5 C97.1,152.6 97,152.5 97,152.6 L97.1,152.6 L97.1,152.8 C97.1,152.8 97,152.8 97.1,152.9 L97.2,152.9 L97.2,152.9 L97.2,152.9 L97.3,153 L97.3,153 L97.3,153 L97.3,153 L106.4,184 C106.4,183.7 106.3,183.4 106.3,183.1 C106.3,183.2 106.4,183.4 106.4,183.5 C106.5,183.9 106.7,183.9 106.7,183.9 C106.5,183 106.5,182.2 106.4,181.4 C106.1,181.5 106,181.1 106,180.8 L106,180.8 Z M103.1,170.7 L103.1,170.8 C103.1,170.8 103.1,170.8 103.1,170.7 C103,170.6 103,170.5 102.9,170.4 L103,170.5 C103.1,170.5 103.2,170.7 103.1,170.7 C103.2,170.8 103.2,170.7 103.1,170.7 L103.1,170.7 Z M103.3,171.4 L103.3,171.4 C103.3,171.5 103.3,171.5 103.3,171.4 C103.3,171.5 103.3,171.4 103.3,171.4 L103.3,171.4 Z M103.7,172.8 C103.7,172.7 103.7,172.7 103.7,172.8 C103.7,172.7 103.7,172.7 103.7,172.8 L103.7,172.8 L103.7,172.8 Z M103.8,173.4 L103.8,173.4 L103.8,173.4 L103.8,173.4 L103.8,173.4 Z M104,174 C104,173.9 104,173.9 104,174 C104,173.9 104,173.9 104,174 L104,174 L104,174 Z M105.1,178.6 C105.1,178.7 105.2,178.8 105.2,178.9 L105.2,178.9 C105.3,179.1 105.2,179.4 105.4,179.6 L105.5,179.7 C105.5,179.8 105.5,179.8 105.4,179.8 C105.4,179.8 105.5,180 105.5,180.1 L105.5,180.1 C105.5,180.2 105.6,180.3 105.6,180.5 L105.6,180.5 L105.6,181.2 C105.5,180.2 105.3,179.4 105.1,178.6 L105.1,178.6 Z M105.8,182 C105.8,182.1 105.9,182.2 105.9,182.2 L105.9,182.3 C105.9,182.2 105.8,182.1 105.8,182 L105.8,182 Z M105.9,182.5 C106,182.7 106,182.9 106,183.1 C106,182.9 105.9,182.7 105.9,182.5 L105.9,182.5 Z M95.9,149.5 L95.9,149.6 C95.9,149.6 95.8,149.6 95.9,149.6 C95.9,149.7 95.9,149.6 95.9,149.5 L95.9,149.5 L95.9,149.5 L95.9,149.5 Z M96,149.8 C96,149.9 96.1,150 96.1,150 L96,149.8 L96,149.8 Z M95.9,149.4 C95.9,149.4 95.8,149.4 95.9,149.4 C95.8,149.4 95.9,149.4 95.9,149.4 L95.9,149.4 L95.9,149.4 Z" id="Shape" fill="#FFFFFF"></path>
                    <path d="M71.4,127.5 C71.4,127.5 73.9,119.6 84.4,118.3 C94.9,117 104.4,131.3 117.9,124.8 L102.2,70 C102.2,70 101.1,64.9 96.8,64.4 C92.5,63.9 72.2,59.6 72.2,59.6 C72.2,59.6 61.1,88.8 71.4,127.5 L71.4,127.5 Z" id="Shape" fill="#F36C36"></path>
                    <g id="Group" transform="translate(69.000000, 88.000000)">
                        <path d="M1.4,0.3 C1.4,0.3 0.2,2.5 1.4,6 C4.2,14.2 10.3,30 19.1,43.4 C19.1,43.4 20.8,42.4 21.1,41.4 C21.1,41.4 14.8,23.7 12.6,15 C12.6,15 18.8,16.7 21.8,16.4 C21.8,16.4 26.8,30.9 35,43.3 L37.2,42 C37.2,42 32.3,22.2 31.8,18.4 C31.3,14.6 32.9,7.7 29.1,3.4 L1.4,0.3 L1.4,0.3 Z" id="Shape" fill="#121212"></path>
                        <path d="M22.3,41 C21.8,40.4 20.9,40.7 20.9,40.7 C20.9,40.7 19.8,42.5 18.7,42.8 C18.7,42.8 19,43.2 18.6,43.7 C18.3,44.2 15.5,52 20.9,51.8 C25.3,51.6 22.3,41 22.3,41 L22.3,41 Z" id="Shape" fill="#000000"></path>
                        <path d="M38.5,41 C38,40.4 37.1,40.7 37.1,40.7 C37.1,40.7 36,42.5 34.9,42.8 C34.9,42.8 35.2,43.2 34.8,43.7 C34.5,44.2 31.7,52 37.1,51.8 C41.5,51.6 38.5,41 38.5,41 L38.5,41 Z" id="Shape" fill="#000000"></path>
                    </g>
                    <g id="Group" transform="translate(70.000000, 0.000000)">
                        <path d="M30.3,66.2 C30.3,66.2 29.7,63.9 33,62.9 C38.9,57.6 48.5,40.8 40.6,33.7 L28.6,20.4 C7.6,22.1 3.5,39.8 4.4,53 C5.2,64 0.4,64.9 0.4,64.9 L2.1,68.6 L27.1,75.5 L30.3,66.2 L30.3,66.2 Z" id="Shape" fill="#F5E0CD"></path>
                        <path d="M43.3,32.6 C48.4,19.4 36.4,19.4 31.7,14.2 C24.5,6.4 33.4,0.9 33.4,0.9 C14.5,9.2 18.8,21.6 25.1,28.4 C29.5,33.1 35.8,34.9 35.8,34.9 C35.8,34.9 32.6,38.8 32.1,49 C32.8,47.8 33.9,46.5 35.5,46.5 C38.5,46.6 38.8,51.5 36.5,53.7 C35.1,55.1 33.2,54.8 32.1,54.5 C32.2,57 32.5,59.8 33,62.9 C33,62.9 40.9,56.4 45,48.9 C49.8,40.2 46.6,33.6 43.3,32.6 L43.3,32.6 Z" id="Shape" fill="#4A3222"></path>
                        <path d="M10.1,45.8 C10.1,45.8 18.6,49.4 22.2,52.3 C22.2,52.3 20,60.1 12.6,56.7 C5.8,53.7 10.1,45.8 10.1,45.8 L10.1,45.8 Z" id="Shape" fill="#CF9E76"></path>
                        <path d="M15.5,42.4 C18.2,40.6 20.4,38.3 22.4,33.5 C22.4,33.5 19.1,41 13.3,41.7 C12.3,42 14,43 18.8,44.9 C18.8,44.8 17.1,44.1 15.5,42.4 L15.5,42.4 Z" id="Shape" fill="#ECC19C"></path>
                        <ellipse id="Oval" fill="#543E36" transform="translate(16.108540, 34.348570) rotate(-66.447063) translate(-16.108540, -34.348570) " cx="16.10854" cy="34.34857" rx="2.20002095" ry="1.50001429"></ellipse>
                        <ellipse id="Oval" fill="#543E36" transform="translate(27.259620, 40.990460) rotate(-66.447063) translate(-27.259620, -40.990460) " cx="27.25962" cy="40.99046" rx="2.20002095" ry="1.50001429"></ellipse>
                    </g>
                    <g id="Group" transform="translate(60.000000, 4.000000)">
                        <path d="M11.5,49.1 C11.5,49.1 8.8,39.1 7.8,26.8 C6.8,14.5 8.1,3.6 9,1.5 C9.2,0.5 6.4,3.73256981e-13 5.1,0.2 C3.8,0.4 -5.5,-1.4 6.7,49.6 L11.5,49.1 L11.5,49.1 Z" id="Shape" fill="#F5E0CD"></path>
                        <polygon id="Shape" fill="#FFFFFF" points="5 48.7 11.8 47.3 13.8 57.7 8.8 64.2"></polygon>
                    </g>
                    <g id="Group" transform="translate(68.000000, 58.000000)">
                        <path d="M4,0.9 C4,0.9 11.5,10.7 32.6,8.3 C33.9,8.2 30.6,20.4 32.8,39.8 C32.8,41.3 17.6,45.3 2.8,36.5 C0.3,34.8 -2.1,7.9 4,0.9 L4,0.9 Z" id="Shape" fill="#FFFFFF"></path>
                        <polygon id="Shape" fill="#999999" points="8.1 6.2 12.4 8.2 11.8 10.4 10.8 10.8 13 31.9 11.5 37.5 6.3 32.4 8.1 9.9 7.3 9.2"></polygon>
                        <polygon id="Shape" fill="#335C64" points="8.1 6.2 12.5 8 12 10.3 11 10.8 15.6 31.3 13.4 37.3 7.9 32.6 8.3 10 7.3 9.2"></polygon>
                    </g>
                    <g id="Group" transform="translate(91.000000, 66.000000)">
                        <path d="M12.4,8.2 C12.4,8.2 20.3,17.1 17.6,17.6 C15,18.1 1.6,16.2 1.2,16.6 C0.8,17 0,19.8 0,20.6 C0,21.4 0.5,23.1 1.1,23.6 C1.7,24.1 25.5,23 25.4,20.5 C25.3,18 15,5.9 15,5.9 L12.4,8.2 L12.4,8.2 Z" id="Shape" fill="#F5E0CD"></path>
                        <path d="M7.6,7.9 L13,12.2 L18.2,6.8 C18.2,6.8 11.2,-1.2 8.3,1.3 L7.6,7.9 L7.6,7.9 Z" id="Shape" fill="#FFFFFF"></path>
                    </g>
                </g>
            </g>
        </g>
    </g>
</svg>