<?xml version="1.0" encoding="utf-8"?>
<!-- Generator: Adobe Illustrator 19.2.1, SVG Export Plug-In . SVG Version: 6.00 Build 0)  -->
<svg version="1.1" xmlns="http://www.w3.org/2000/svg" xmlns:xlink="http://www.w3.org/1999/xlink" x="0px" y="0px"
	 viewBox="0 0 155.2 207.2" style="enable-background:new 0 0 155.2 207.2;" xml:space="preserve">
<style type="text/css">
	.st0{display:none;}
	.st1{display:inline;fill:none;stroke:#000000;stroke-miterlimit:10;}
	.st2{fill:#E95F42;}
	.st3{fill:#00A7AB;}
	.st4{fill:#282828;}
	.st5{fill:none;}
	.st6{fill:#63C1C4;}
	.st7{fill:url(#SVGID_1_);}
	.st8{fill:url(#SVGID_2_);}
	.st9{fill:url(#SVGID_3_);}
	.st10{fill:url(#SVGID_4_);}
	.st11{fill:url(#SVGID_5_);}
	.st12{fill:url(#SVGID_6_);}
	.st13{fill:url(#SVGID_7_);}
	.st14{fill:url(#SVGID_8_);}
	.st15{fill:url(#SVGID_9_);}
	.st16{fill:url(#SVGID_10_);}
	.st17{fill:url(#SVGID_11_);}
	.st18{fill:url(#SVGID_12_);}
	.st19{fill:url(#SVGID_13_);}
	.st20{fill:url(#SVGID_14_);}
	.st21{fill:url(#SVGID_15_);}
	.st22{fill:url(#SVGID_16_);}
	.st23{fill:url(#SVGID_17_);}
	.st24{fill:url(#SVGID_18_);}
	.st25{fill:#FFFFFF;}
	.st26{fill:#E8571E;}
	.st27{fill:#008184;}
	.st28{fill:#2C9FA2;}
	.st29{fill:url(#SVGID_19_);}
	.st30{fill:url(#SVGID_20_);}
	.st31{fill:url(#SVGID_21_);}
	.st32{fill:url(#SVGID_22_);}
	.st33{fill:url(#SVGID_23_);}
	.st34{fill:url(#SVGID_24_);}
	.st35{fill:url(#SVGID_25_);}
	.st36{fill:url(#SVGID_26_);}
	.st37{fill:url(#SVGID_27_);}
	.st38{fill:url(#SVGID_28_);}
	.st39{fill:url(#SVGID_29_);}
	.st40{fill:url(#SVGID_30_);}
	.st41{fill:url(#SVGID_31_);}
	.st42{fill:url(#SVGID_32_);}
	.st43{fill:url(#SVGID_33_);}
	.st44{fill:url(#SVGID_34_);}
	.st45{fill:url(#SVGID_35_);}
	.st46{fill:url(#SVGID_36_);}
	.st47{fill:#E9642E;}
	.st48{fill:#DC481B;}
	.st49{fill:#E6E7E9;}
	.st50{display:inline;fill:#008184;}
	.st51{display:inline;}
	.st52{clip-path:url(#SVGID_38_);}
	.st53{clip-path:url(#SVGID_40_);}
	.st54{clip-path:url(#SVGID_42_);}
	.st55{clip-path:url(#SVGID_44_);}
	.st56{clip-path:url(#SVGID_46_);}
	.st57{display:inline;opacity:0.5;}
	.st58{clip-path:url(#SVGID_48_);}
	.st59{display:none;fill:#008184;}
	.st60{fill:#2C688F;}
	.st61{fill:#F0F0E7;}
	.st62{fill:#F8B03E;}
	.st63{fill:#5F8596;}
	.st64{fill:#FDC818;}
	.st65{fill:#7EA2B0;}
	.st66{fill:#043348;}
	.st67{fill:#16507A;}
	.st68{fill:#EFEFE6;}
	.st69{fill:#C3E2DE;}
	.st70{opacity:0.82;}
	.st71{opacity:0.82;fill:#C3E2DE;}
	.st72{fill:#71C6CC;}
	.st73{opacity:0.97;fill:#B5DEE6;}
	.st74{fill:#5E8394;}
	.st75{fill:#3A7397;}
	.st76{fill:#3A7397;stroke:#356799;stroke-width:2;stroke-linecap:round;stroke-linejoin:round;}
	.st77{fill:#17507A;}
	.st78{fill:#5994B2;stroke:#6392B4;stroke-width:2;}
	.st79{fill:none;stroke:#78BFA0;stroke-width:0.8297;}
	.st80{fill:#7BC7C9;}
	.st81{fill:url(#SVGID_49_);}
	.st82{fill:url(#SVGID_50_);}
	.st83{fill:url(#SVGID_51_);}
	.st84{fill:url(#SVGID_52_);}
	.st85{fill:url(#SVGID_53_);}
	.st86{fill:url(#SVGID_54_);}
	.st87{fill:#F6AF3F;}
	.st88{fill:#529A5E;}
	.st89{fill:#C2E1D4;}
	.st90{fill:#72B980;}
	.st91{fill:#B1D8C7;}
	.st92{fill:url(#SVGID_55_);}
	.st93{fill:#1EABB1;}
	.st94{fill:url(#SVGID_56_);}
	.st95{fill:#D0E9EE;}
	.st96{opacity:0.61;fill:#FFFFFF;}
	.st97{fill:#4EBBC2;}
	.st98{fill:#FCC816;}
	.st99{fill:#DE401B;}
	.st100{fill:#F4D8C0;}
	.st101{fill:#F3E1D3;}
	.st102{fill:#FDDCA0;}
	.st103{fill:url(#SVGID_57_);}
	.st104{fill:#E0D5BE;}
	.st105{fill:#DFD4BD;}
	.st106{fill:#F59E1E;}
	.st107{fill:#1F2F3B;}
	.st108{fill:#FAFAFA;}
	.st109{fill:#F8F7F7;}
	.st110{fill:#D8D9D9;}
	.st111{fill:#14202D;}
	.st112{fill:#F2F2F2;}
	.st113{fill:#EAEAEA;}
	.st114{fill:#BCBCBB;}
	.st115{fill:#C0E1DC;}
	.st116{fill:#C2C1C1;}
	.st117{fill:#3895D2;}
	.st118{fill:#70B8D8;}
	.st119{fill:#E87E08;}
	.st120{fill:#354A5F;}
	.st121{fill:#4E7392;}
	.st122{fill:#B3D1CA;}
	.st123{fill:#A5A5A4;}
	.st124{fill:#F2C504;}
	.st125{fill:#F9ECB7;}
	.st126{fill:#E94C36;}
	.st127{fill:#F18D85;}
	.st128{fill:#CE6A14;}
	.st129{fill:#F49967;}
	.st130{fill:#132C39;}
	.st131{opacity:0.2;fill:#F6F5F5;}
	.st132{fill:#F3F2F1;}
	.st133{fill:#CED0D0;}
	.st134{fill:#001B2C;}
	.st135{opacity:0.2;fill:#ECECEB;}
	.st136{fill:#E3E4E3;}
	.st137{fill:#B0B2B2;}
	.st138{fill:#F8AD49;}
	.st139{fill:#FDC630;}
	.st140{fill:#759CA9;}
	.st141{fill:#EAEAE0;}
	.st142{fill:#2E6B8F;}
	.st143{font-family:'Menlo-Regular';}
	.st144{font-size:12px;}
	.st145{font-family:'Helvetica';}
</style>
<g id="Слой_1" class="st0">
</g>
<g id="Слой_2" class="st0">
</g>
<g id="Слой_3" class="st0">
</g>
<g id="Слой_4">
</g>
<g id="Слой_5">
</g>
<g id="Слой_6">
</g>
<g id="Layer_7">
	<g>
		<path class="st138" d="M96.3,45.9v31.5c0.4,1.7,1.5,3.1,2.5,3.1h25c4.2,0,7.6,3.8,7.6,8.4v29.3c0,1.6-1.3,2.8-2.8,2.8
			c-1.5,0-2.8-1.3-2.8-2.8V88.9c0-1.7-1-2.8-2-2.8h-25c-3.9,0-7.3-3.3-8.1-7.9c0-0.2,0-0.3,0-0.5V45.9"/>
		<path class="st139" d="M57.8,45.9v29.7c0.3,2.1-0.3,4.2-1.6,5.8c-1.5,1.8-3.8,2.8-6.2,2.8L32.8,84c-0.7,0-1.4,0.3-2,0.8
			c-0.5,0.5-0.8,1.2-0.8,2l0,69.4c0,1.5-1.3,2.8-2.8,2.8c0,0,0,0,0,0c-1.6,0-2.8-1.3-2.8-2.8l0-69.4c0-2.2,0.9-4.4,2.5-5.9
			c1.6-1.6,3.7-2.4,6-2.4l17.1,0.1c0.7,0,1.5-0.3,1.9-0.8c0.3-0.4,0.5-0.9,0.4-1.4c0-0.2,0-0.3,0-0.5l0-29.9"/>
		<path class="st138" d="M99.4,52.2c0.7,0,1.5,0.5,1.8,1.1l5.4,9.4c0.3,0.6,0.3,1.5,0,2.1l-5.4,9.4c-0.3,0.6-1.2,1.1-1.8,1.1H88.6
			c-0.7,0-1.5-0.5-1.8-1.1l-5.4-9.4c-0.3-0.6-0.3-1.5,0-2.1l5.4-9.4c0.3-0.6,1.2-1.1,1.8-1.1H99.4z"/>
		<path class="st140" d="M39.9,156.5c1.4,0,3.2,1,3.9,2.2l11.4,19.8c0.7,1.2,0.7,3.2,0,4.5l-11.4,19.8c-0.7,1.2-2.5,2.2-3.9,2.2
			H17.1c-1.4,0-3.2-1-3.9-2.2L1.8,183c-0.7-1.2-0.7-3.2,0-4.5l11.4-19.8c0.7-1.2,2.5-2.2,3.9-2.2H39.9z"/>
		<path class="st141" d="M100.7,2.9c1.4,0,3.1,0.9,3.7,2l11.1,17.7c0.7,1.1,0.7,2.9,0,4l-11.1,17.7c-0.7,1.1-2.4,2-3.7,2H48.6
			c-1.4,0-3.1-0.9-3.7-2L33.8,26.5c-0.7-1.1-0.7-2.9,0-4L44.9,4.9c0.7-1.1,2.4-2,3.7-2H100.7z"/>
		<path class="st142" d="M138.1,119.8c1.4,0,3.1,1,3.8,2.2l11.2,19.4c0.7,1.2,0.7,3.2,0,4.4l-11.2,19.4c-0.7,1.2-2.4,2.2-3.8,2.2
			h-22.4c-1.4,0-3.1-1-3.8-2.2l-11.2-19.4c-0.7-1.2-0.7-3.2,0-4.4L112,122c0.7-1.2,2.4-2.2,3.8-2.2H138.1z"/>
		<path class="st139" d="M60.4,52.3c0.7,0,1.5,0.5,1.8,1l5.3,9.1c0.3,0.6,0.3,1.5,0,2.1l-5.3,9.1c-0.3,0.6-1.1,1-1.8,1H49.8
			c-0.7,0-1.5-0.5-1.8-1l-5.3-9.1c-0.3-0.6-0.3-1.5,0-2.1l5.3-9.1c0.3-0.6,1.1-1,1.8-1H60.4z"/>
		<text transform="matrix(1 0 0 1 10.0792 184.8477)" class="st138 st143 st144">const</text>
		<text transform="matrix(1 0 0 1 116.1174 146.4537)" class="st139 st143 st144">let</text>
		<text transform="matrix(1 0 0 1 51.6902 19.61)"><tspan x="0" y="0" class="st142 st145 st144">данные </tspan><tspan x="-10.2" y="14.4" class="st142 st145 st144">изменятся?</tspan></text>
		<text transform="matrix(1 0 0 1 87.029 66.9637)" class="st142 st145 st144">да</text>
		<text transform="matrix(1 0 0 1 45.3978 66.293)" class="st142 st145 st144">нет</text>
	</g>
</g>
</svg>
