<?xml version="1.0" encoding="utf-8"?>
<!-- Generator: Adobe Illustrator 19.2.1, SVG Export Plug-In . SVG Version: 6.00 Build 0)  -->
<svg version="1.1" xmlns="http://www.w3.org/2000/svg" xmlns:xlink="http://www.w3.org/1999/xlink" x="0px" y="0px"
	 viewBox="0 0 227.2 101.3" style="enable-background:new 0 0 227.2 101.3;" xml:space="preserve">
<style type="text/css">
	.st0{display:none;}
	.st1{display:inline;fill:none;stroke:#000000;stroke-miterlimit:10;}
	.st2{fill:#E95F42;}
	.st3{fill:#00A7AB;}
	.st4{fill:#282828;}
	.st5{fill:none;}
	.st6{fill:#63C1C4;}
	.st7{fill:url(#SVGID_1_);}
	.st8{fill:url(#SVGID_2_);}
	.st9{fill:url(#SVGID_3_);}
	.st10{fill:url(#SVGID_4_);}
	.st11{fill:url(#SVGID_5_);}
	.st12{fill:url(#SVGID_6_);}
	.st13{fill:url(#SVGID_7_);}
	.st14{fill:url(#SVGID_8_);}
	.st15{fill:url(#SVGID_9_);}
	.st16{fill:url(#SVGID_10_);}
	.st17{fill:url(#SVGID_11_);}
	.st18{fill:url(#SVGID_12_);}
	.st19{fill:url(#SVGID_13_);}
	.st20{fill:url(#SVGID_14_);}
	.st21{fill:url(#SVGID_15_);}
	.st22{fill:url(#SVGID_16_);}
	.st23{fill:url(#SVGID_17_);}
	.st24{fill:url(#SVGID_18_);}
	.st25{fill:#FFFFFF;}
	.st26{fill:#E8571E;}
	.st27{fill:#008184;}
	.st28{fill:#2C9FA2;}
	.st29{fill:url(#SVGID_19_);}
	.st30{fill:url(#SVGID_20_);}
	.st31{fill:url(#SVGID_21_);}
	.st32{fill:url(#SVGID_22_);}
	.st33{fill:url(#SVGID_23_);}
	.st34{fill:url(#SVGID_24_);}
	.st35{fill:url(#SVGID_25_);}
	.st36{fill:url(#SVGID_26_);}
	.st37{fill:url(#SVGID_27_);}
	.st38{fill:url(#SVGID_28_);}
	.st39{fill:url(#SVGID_29_);}
	.st40{fill:url(#SVGID_30_);}
	.st41{fill:url(#SVGID_31_);}
	.st42{fill:url(#SVGID_32_);}
	.st43{fill:url(#SVGID_33_);}
	.st44{fill:url(#SVGID_34_);}
	.st45{fill:url(#SVGID_35_);}
	.st46{fill:url(#SVGID_36_);}
	.st47{fill:#E9642E;}
	.st48{fill:#DC481B;}
	.st49{fill:#E6E7E9;}
	.st50{display:inline;fill:#008184;}
	.st51{display:inline;}
	.st52{clip-path:url(#SVGID_38_);}
	.st53{clip-path:url(#SVGID_40_);}
	.st54{clip-path:url(#SVGID_42_);}
	.st55{clip-path:url(#SVGID_44_);}
	.st56{clip-path:url(#SVGID_46_);}
	.st57{display:inline;opacity:0.5;}
	.st58{clip-path:url(#SVGID_48_);}
	.st59{display:none;fill:#008184;}
	.st60{fill:#2C688F;}
	.st61{fill:#F0F0E7;}
	.st62{fill:#F8B03E;}
	.st63{fill:#5F8596;}
	.st64{fill:#FDC818;}
	.st65{fill:#7EA2B0;}
	.st66{fill:#043348;}
	.st67{fill:#16507A;}
	.st68{fill:#EFEFE6;}
	.st69{fill:#C3E2DE;}
	.st70{opacity:0.82;}
	.st71{opacity:0.82;fill:#C3E2DE;}
	.st72{fill:#71C6CC;}
	.st73{opacity:0.97;fill:#B5DEE6;}
	.st74{fill:#5E8394;}
	.st75{fill:#3A7397;}
	.st76{fill:#3A7397;stroke:#356799;stroke-width:2;stroke-linecap:round;stroke-linejoin:round;}
	.st77{fill:#17507A;}
	.st78{fill:#5994B2;stroke:#6392B4;stroke-width:2;}
	.st79{fill:none;stroke:#78BFA0;stroke-width:0.8297;}
	.st80{fill:#7BC7C9;}
	.st81{fill:url(#SVGID_49_);}
	.st82{fill:url(#SVGID_50_);}
	.st83{fill:url(#SVGID_51_);}
	.st84{fill:url(#SVGID_52_);}
	.st85{fill:url(#SVGID_53_);}
	.st86{fill:url(#SVGID_54_);}
	.st87{fill:#F6AF3F;}
	.st88{fill:#529A5E;}
	.st89{fill:#C2E1D4;}
	.st90{fill:#72B980;}
	.st91{fill:#B1D8C7;}
	.st92{fill:url(#SVGID_55_);}
	.st93{fill:#1EABB1;}
	.st94{fill:url(#SVGID_56_);}
	.st95{fill:#D0E9EE;}
	.st96{opacity:0.61;fill:#FFFFFF;}
	.st97{fill:#4EBBC2;}
	.st98{fill:#FCC816;}
	.st99{fill:#DE401B;}
	.st100{fill:#F4D8C0;}
	.st101{fill:#F3E1D3;}
	.st102{fill:#FDDCA0;}
	.st103{fill:url(#SVGID_57_);}
	.st104{fill:#E0D5BE;}
	.st105{fill:#DFD4BD;}
	.st106{fill:#F59E1E;}
	.st107{fill:#1F2F3B;}
	.st108{fill:#FAFAFA;}
	.st109{fill:#F8F7F7;}
	.st110{fill:#D8D9D9;}
	.st111{fill:#14202D;}
	.st112{fill:#F2F2F2;}
	.st113{fill:#EAEAEA;}
	.st114{fill:#BCBCBB;}
	.st115{fill:#C0E1DC;}
	.st116{fill:#C2C1C1;}
	.st117{fill:#3895D2;}
	.st118{fill:#70B8D8;}
	.st119{fill:#E87E08;}
	.st120{fill:#354A5F;}
	.st121{fill:#4E7392;}
	.st122{fill:#B3D1CA;}
	.st123{fill:#A5A5A4;}
	.st124{fill:#F2C504;}
	.st125{fill:#F9ECB7;}
	.st126{fill:#E94C36;}
	.st127{fill:#F18D85;}
	.st128{fill:#CE6A14;}
	.st129{fill:#F49967;}
	.st130{fill:#132C39;}
	.st131{opacity:0.2;fill:#F6F5F5;}
	.st132{fill:#F3F2F1;}
	.st133{fill:#CED0D0;}
	.st134{fill:#001B2C;}
	.st135{opacity:0.2;fill:#ECECEB;}
	.st136{fill:#E3E4E3;}
	.st137{fill:#B0B2B2;}
	.st138{fill:#F8AD49;}
	.st139{fill:#FDC630;}
	.st140{fill:#759CA9;}
	.st141{fill:#EAEAE0;}
	.st142{fill:#2E6B8F;}
	.st143{fill:#5B8192;}
	.st144{font-family:'Monaco';}
	.st145{font-size:12px;}
	.st146{font-size:8.2489px;}
</style>
<g id="Слой_1" class="st0">
</g>
<g id="Слой_2" class="st0">
</g>
<g id="Слой_3" class="st0">
</g>
<g id="Слой_4">
</g>
<g id="Слой_5">
</g>
<g id="Слой_6">
</g>
<g id="Layer_7">
</g>
<g id="Layer_8">
	<g>
		<path class="st142" d="M37.9,11.6l-0.1-5c0-3.4,2.9-6.2,6.7-6.2L118.4,0l0,2.2L44.5,2.6c-2.5,0-4.5,1.8-4.4,4l0.1,5L37.9,11.6
			L37.9,11.6z"/>
	</g>
	<g>
		<path class="st142" d="M118.4,0h4c3.4,0,5.3,1.7,5.4,5.4l0.3,26.9l-2.2,0l-0.3-26.9c0-2.5-0.9-3.2-3.1-3.2l-4,0V1.1L118.4,0z"/>
	</g>
	<g>
		<path class="st142" d="M125.8,32.3l-0.1,5c0,3.4,2.9,6.2,6.7,6.2l32.9,0.3l0-2.2l-32.9-0.3c-2.5,0-4.5-1.8-4.4-4l0.1-5L125.8,32.3
			L125.8,32.3z"/>
	</g>
	<g>
		<g>
			<path class="st138" d="M95.5,39.1c0-0.2,0.6-15.8,0.6-17.4c0-2.4,2.9-4.1,6.7-4.1h33.6v2.2l-33.6,0c-2.7,0-4.5,1.1-4.5,1.9
				c0,1.7-0.5,16.8-0.6,17.5L95.5,39.1L95.5,39.1z"/>
		</g>
		<g>
			<path class="st138" d="M144.9,42.6c0-0.2-0.2-19.4-0.2-21c0-2.4-2.9-4.1-6.7-4.1h-33.6v2.2l33.6,0c2.7,0,4.5,1.1,4.5,1.9
				c0,1.7,0.5,16.8,0.6,17.5l-0.4,2.2L144.9,42.6z"/>
		</g>
		<g>
			<path class="st138" d="M164.2,68.3c-0.2,0-15.8-0.6-17.4-0.6c-2.4,0-4.1-2.9-4.1-6.7V27.4l2.1-5.8l0.2,39.4
				c0,2.7,1.1,4.5,1.9,4.5c1.7,0,16.8,0.5,17.5,0.6L164.2,68.3L164.2,68.3z"/>
		</g>
	</g>
	<g>
		<g>
			<path class="st143" d="M64.6,83.5l-0.1,12.1l-2.2,0l0.1-12.1c0-2.5-2-4.5-4.5-4.5l-29.2-0.2l0-2.2l29.2,0.2
				C61.6,76.8,64.7,79.8,64.6,83.5L64.6,83.5z"/>
		</g>
		<path class="st143" d="M62.1,94.4l0.1-12.1l2.2,0l-0.1,12.1c0,2.5,2,4.5,4.5,4.5l49.2,0.2l0,2.2l-49.2-0.2
			C65.1,101.1,62.1,98.1,62.1,94.4L62.1,94.4z"/>
		<path class="st143" d="M127.1,101.3l-12.1,0l0-2.2l12.1,0c2.5,0,4.5-2,4.5-4.5l-0.1-29.2l2.2,0l0.1,29.2
			C133.8,98.3,130.8,101.3,127.1,101.3L127.1,101.3z"/>
		<path class="st143" d="M131.5,60.4l0,12.1l2.2,0l0-12.1c0-2.5,2-4.5,4.5-4.5l29.2,0.1l0-2.2l-29.2-0.1
			C134.5,53.7,131.5,56.7,131.5,60.4L131.5,60.4z"/>
	</g>
	<g>
		<g>
			<path class="st139" d="M46.1,4.2c1.1,0,2.4,0.7,2.9,1.6l8.7,14.5c0.5,0.9,0.5,2.4,0,3.3L49,38.2c-0.5,0.9-1.9,1.6-2.9,1.6H28.6
				c-1.1,0-2.4-0.7-2.9-1.6L17,23.6c-0.5-0.9-0.5-2.4,0-3.3l8.7-14.5c0.5-0.9,1.9-1.6,2.9-1.6H46.1z"/>
			<text transform="matrix(1 0 0 1 19.3458 25.7493)" class="st142 st144 st145">apply</text>
		</g>
		<g>
			<path class="st138" d="M39.4,55.1c1.3,0,2.9,0.9,3.6,2.1l10.6,18.4c0.7,1.1,0.7,3,0,4.1L43,98.1c-0.7,1.1-2.3,2.1-3.6,2.1H18.1
				c-1.3,0-2.9-0.9-3.6-2.1L3.9,79.7c-0.7-1.1-0.7-3,0-4.1l10.6-18.4c0.7-1.1,2.3-2.1,3.6-2.1H39.4z"/>
			<text transform="matrix(1 0 0 1 7.1568 81.3844)" class="st142 st144 st145">concat</text>
		</g>
		<g>
			<path class="st141" d="M107.3,28.3c1.7,0,3.8,1.1,4.7,2.5l13.8,21.8c0.9,1.4,0.9,3.6,0,4.9L112,79.4c-0.9,1.4-2.9,2.5-4.7,2.5
				H69.8c-1.7,0-3.8-1.1-4.7-2.5L51.4,57.5c-0.9-1.4-0.9-3.6,0-4.9l13.8-21.8c0.9-1.4,3-2.5,4.7-2.5H107.3z"/>
			<text transform="matrix(1.0182 0 0 1 75.9866 39.8175)"><tspan x="0" y="0" class="st142 st144 st146">Array</tspan><tspan x="-12.4" y="9.9" class="st142 st144 st146">.prototype</tspan><tspan x="-14.9" y="19.8" class="st142 st144 st146">.slice.call</tspan><tspan x="-14.9" y="29.7" class="st142 st144 st146">(arguments)</tspan></text>
		</g>
	</g>
	<g>
		<path class="st142" d="M201,25.4c1.8,0,4.1,1.2,5,2.7l14.9,24.2c0.9,1.5,0.9,4,0,5.5L206,82c-0.9,1.5-3.2,2.7-5,2.7h-29.7
			c-1.8,0-4.1-1.2-5-2.7l-14.9-24.2c-0.9-1.5-0.9-4,0-5.5l14.9-24.2c0.9-1.5,3.2-2.7,5-2.7H201z"/>
		<g>
			<g>
				<path class="st138" d="M166.7,50.6c-1,0-1.9-0.4-2.7-1.1s-1.1-1.6-1.1-2.7c0-1.1,0.4-2,1.1-2.7s1.7-1.1,2.7-1.1s1.9,0.4,2.7,1.1
					s1.1,1.6,1.1,2.7c0,1-0.4,1.9-1.1,2.7S167.8,50.6,166.7,50.6z"/>
				<path class="st138" d="M186.1,50.6c-1,0-1.9-0.4-2.7-1.1s-1.1-1.6-1.1-2.7c0-1.1,0.4-2,1.1-2.7s1.7-1.1,2.7-1.1s1.9,0.4,2.7,1.1
					s1.1,1.6,1.1,2.7c0,1-0.4,1.9-1.1,2.7S187.2,50.6,186.1,50.6z"/>
				<path class="st138" d="M205.5,50.6c-1,0-1.9-0.4-2.7-1.1s-1.1-1.6-1.1-2.7c0-1.1,0.4-2,1.1-2.7s1.7-1.1,2.7-1.1s1.9,0.4,2.7,1.1
					s1.1,1.6,1.1,2.7c0,1-0.4,1.9-1.1,2.7S206.6,50.6,205.5,50.6z"/>
				<path class="st138" d="M163.6,66.1c-1.1-0.1-2-0.4-2.7-0.9s-1.3-1.3-1.8-2.2s-0.7-1.9-0.7-2.8s0.2-1.9,0.7-2.8s1-1.7,1.8-2.2
					s1.7-0.9,2.7-0.9v0.9c-0.8,0.1-1.5,0.3-2.1,0.8c-0.6,0.5-1.1,1.1-1.4,1.8c-0.3,0.7-0.5,1.5-0.5,2.4c0,0.8,0.2,1.6,0.5,2.4
					c0.3,0.7,0.8,1.3,1.4,1.8c0.6,0.5,1.3,0.7,2.1,0.8V66.1z"/>
				<path class="st138" d="M165.5,63.6v-1.2c0.4,0.3,0.9,0.5,1.4,0.6s0.9,0.2,1.2,0.2c0.6,0,0.9-0.1,1.2-0.3s0.4-0.4,0.4-0.7
					c0-0.2-0.1-0.3-0.2-0.5s-0.4-0.3-0.8-0.5l-0.4-0.2l-0.8-0.3c-0.8-0.3-1.3-0.6-1.5-0.9c-0.2-0.3-0.3-0.6-0.3-1
					c0-0.5,0.2-1,0.6-1.3c0.4-0.3,1.1-0.5,2-0.5c0.7,0,1.4,0.1,2,0.3v1c-0.7-0.3-1.4-0.4-2-0.4c-0.5,0-0.8,0.1-1.1,0.2
					c-0.3,0.2-0.4,0.4-0.4,0.6c0,0.2,0.1,0.4,0.3,0.6c0.2,0.1,0.6,0.3,1.1,0.5l0.7,0.3c0.7,0.2,1.2,0.5,1.4,0.8
					c0.3,0.3,0.4,0.7,0.4,1.1c0,0.6-0.2,1-0.7,1.4s-1.1,0.5-2.1,0.5C167.3,64.1,166.4,63.9,165.5,63.6z"/>
				<path class="st138" d="M173.7,58.9c0.3-0.5,0.7-1,1.2-1.2s0.9-0.4,1.3-0.4c0.5,0,1,0.2,1.5,0.7s0.7,1.2,0.7,2.2
					c0,0.8-0.1,1.4-0.4,2s-0.7,1.1-1.2,1.4s-1.1,0.5-1.8,0.5c-0.2,0-0.5,0-0.9-0.1c-0.1,0-0.2,0-0.3,0v2.5h-1.1v-9.1h1.1V58.9z
					 M173.7,60.2V63c0.4,0.1,0.8,0.2,1.1,0.2c0.7,0,1.2-0.3,1.7-0.8s0.7-1.2,0.7-2.1c0-0.7-0.1-1.1-0.4-1.5
					c-0.2-0.3-0.5-0.5-0.8-0.5c-0.3,0-0.7,0.2-1.1,0.5C174.4,59.1,174,59.6,173.7,60.2z"/>
				<path class="st138" d="M180.4,63.9v-6.5h1.1v1.4c0.3-0.5,0.7-0.9,1.2-1.2s0.9-0.4,1.5-0.4c0.4,0,0.8,0.1,1.2,0.2v2.4h-1v-1.5
					c-0.2,0-0.3,0-0.4,0c-0.4,0-0.8,0.2-1.2,0.5s-0.8,0.8-1.1,1.4v3.8H180.4z"/>
				<path class="st138" d="M192.5,63.5c-0.9,0.4-1.7,0.6-2.5,0.6c-0.6,0-1.1-0.1-1.6-0.4c-0.5-0.3-0.8-0.7-1.1-1.3
					c-0.3-0.5-0.4-1.1-0.4-1.7c0-0.6,0.1-1.2,0.4-1.7c0.3-0.5,0.6-1,1.1-1.3c0.5-0.3,1-0.5,1.6-0.5c0.8,0,1.4,0.3,1.9,0.8
					s0.7,1.4,0.7,2.6v0.2h-4.5c0,0.5,0.1,0.9,0.3,1.2s0.4,0.7,0.7,0.8c0.3,0.2,0.7,0.3,1.1,0.3c0.7,0,1.5-0.2,2.3-0.7V63.5z
					 M188.1,60h3.3v-0.2c0-0.5-0.1-1-0.4-1.3c-0.3-0.3-0.6-0.5-1-0.5c-0.4,0-0.8,0.2-1.1,0.5S188.3,59.4,188.1,60z"/>
				<path class="st138" d="M198.6,62.5c-0.3,0.5-0.7,1-1.2,1.2s-0.9,0.4-1.3,0.4c-0.5,0-1-0.2-1.5-0.7s-0.7-1.2-0.7-2.2
					c0-0.8,0.1-1.4,0.4-2c0.3-0.6,0.7-1.1,1.2-1.4c0.5-0.3,1.1-0.5,1.8-0.5c0.2,0,0.5,0,0.9,0.1c0.1,0,0.2,0,0.3,0h1.1V62
					c0,0.8,0.1,1.4,0.3,1.9h-1.1C198.7,63.6,198.6,63.1,198.6,62.5z M198.6,61.2v-2.8c-0.4-0.1-0.7-0.2-1.1-0.2
					c-0.7,0-1.2,0.3-1.7,0.8s-0.7,1.2-0.7,2.1c0,0.6,0.1,1.1,0.4,1.5c0.2,0.3,0.5,0.5,0.8,0.5c0.3,0,0.7-0.2,1.1-0.5
					C197.9,62.2,198.2,61.7,198.6,61.2z"/>
				<path class="st138" d="M205.8,62.5c-0.3,0.5-0.7,1-1.2,1.2c-0.5,0.3-0.9,0.4-1.3,0.4c-0.5,0-1-0.2-1.5-0.7
					c-0.4-0.5-0.7-1.2-0.7-2.2c0-0.8,0.1-1.4,0.4-2c0.3-0.6,0.7-1.1,1.2-1.4s1.1-0.5,1.8-0.5c0.2,0,0.5,0,0.9,0.1c0.1,0,0.2,0,0.3,0
					v-2.9h1.1v9.5h-1.1V62.5z M205.8,61.2v-2.8c-0.4-0.1-0.7-0.2-1.1-0.2c-0.7,0-1.2,0.3-1.7,0.8s-0.7,1.2-0.7,2.1
					c0,0.6,0.1,1.1,0.4,1.5c0.2,0.3,0.5,0.5,0.8,0.5c0.3,0,0.7-0.2,1.1-0.5C205.1,62.2,205.5,61.7,205.8,61.2z"/>
				<path class="st138" d="M208.7,54.3c1.1,0.1,2,0.4,2.7,0.9s1.3,1.3,1.8,2.2s0.7,1.9,0.7,2.8s-0.2,1.9-0.7,2.8s-1,1.7-1.8,2.2
					s-1.7,0.9-2.7,0.9v-0.9c0.8-0.1,1.5-0.4,2.1-0.8c0.6-0.5,1.1-1.1,1.4-1.8c0.3-0.7,0.5-1.5,0.5-2.4c0-0.8-0.2-1.6-0.5-2.4
					c-0.3-0.7-0.8-1.3-1.4-1.8c-0.6-0.5-1.3-0.8-2.1-0.8V54.3z"/>
			</g>
		</g>
	</g>
</g>
</svg>
